<?xml version="1.0" encoding="utf-8"?>
<!-- Generator: Adobe Illustrator 19.1.0, SVG Export Plug-In . SVG Version: 6.00 Build 0)  -->
<svg version="1.1" id="Capa_1" xmlns="http://www.w3.org/2000/svg" xmlns:xlink="http://www.w3.org/1999/xlink" x="0px" y="0px"
	 viewBox="0 0 101 101" style="enable-background:new 0 0 101 101;" xml:space="preserve">
<style type="text/css">
	.st0{fill:#FFFFFF;}
	.st1{fill:#F6921E;}
	.st2{fill:#00A69C;}
	.st3{opacity:0.8;}
	.st4{clip-path:url(#SVGID_2_);}
	.st5{fill:#016458;}
	.st6{fill:#231F20;}
	.st7{fill:#9E1F63;}
	.st8{fill:#4F6E32;}
	.st9{fill:#618B3D;}
	.st10{fill:#008478;}
	.st11{fill:#7C1A52;}
	.st12{fill:#89BC40;}
	.st13{fill:#D91C5C;}
	.st14{clip-path:url(#SVGID_4_);}
	.st15{clip-path:url(#SVGID_6_);}
	.st16{clip-path:url(#SVGID_8_);}
	.st17{clip-path:url(#SVGID_10_);}
	.st18{opacity:0.8;fill:#FFFFFF;}
	.st19{opacity:0.6;fill:#FFFFFF;}
	.st20{clip-path:url(#SVGID_12_);}
	.st21{clip-path:url(#SVGID_14_);}
	.st22{clip-path:url(#SVGID_16_);}
	.st23{fill:none;}
	.st24{opacity:0.7;fill:#FFFFFF;}
	.st25{fill-rule:evenodd;clip-rule:evenodd;fill:#FFFFFF;}
	.st26{fill:#F15A29;}
	.st27{fill:#FBB040;}
	.st28{fill:#B3CF50;}
	.st29{fill:#17977F;}
	.st30{fill:#38D9C3;}
	.st31{fill:#1BAFA5;}
	.st32{fill:#287DAA;}
	.st33{clip-path:url(#SVGID_18_);}
	.st34{fill:#443C86;}
	.st35{fill:#92278F;}
	.st36{fill:#DA1C5C;}
	.st37{fill:#662D91;}
	.st38{fill:#ED1C24;}
</style>
<circle class="st34" cx="50.5" cy="50.5" r="50.2"/>
<g>
	<path class="st0" d="M67.4,32.1c-3.7-6.1-9.8-10.5-17.3-11.5c-13.4-1.9-24.6,8.2-27.8,21.9c-4,17.4,0.5,23.4,8.9,23.7
		c1.6-1.4,3.5-2.5,5.6-3.1L67.4,32.1z M42.7,31c0.5-3.3,3.5-5.6,6.8-5.1c3.3,0.5,5.6,3.5,5.1,6.8c-0.5,3.3-3.5,5.6-6.8,5.1
		C44.5,37.3,42.2,34.3,42.7,31L42.7,31z M30.3,37.5c0.3-2.4,2.6-4.1,5-3.8c2.4,0.3,4.1,2.6,3.8,5c-0.3,2.4-2.6,4.1-5,3.8
		C31.6,42.2,29.9,39.9,30.3,37.5L30.3,37.5z M31.5,57.4c-2.4-0.3-4.1-2.6-3.8-5c0.3-2.4,2.6-4.1,5-3.8c2.4,0.3,4.1,2.6,3.8,5
		C36.2,56.1,34,57.8,31.5,57.4L31.5,57.4z M31.5,57.4"/>
	<path class="st0" d="M56.9,60.7l0.6-0.8l22.6-29.4c0-0.5-0.3-1.2-1.2-1.9c-1.7-1.5-2.8-0.8-2.8-0.8L49.9,53.1l-0.7,0.6L56.9,60.7z
		 M56.9,60.7"/>
	<path class="st0" d="M47.8,70.7l0.6-0.7l7.1-7.9l-7.7-6.9l-7,7.8l-0.7,0.7L47.8,70.7z M43.6,62.7l3.5-4c0.3-0.4,0.9-0.4,1.3-0.1
		l0.5,0.4c0.2,0.2,0.3,0.4,0.3,0.6c0,0.2-0.1,0.5-0.2,0.6l-3.5,4c-0.3,0.4-0.9,0.4-1.2,0.1l-0.5-0.4c-0.2-0.2-0.3-0.4-0.3-0.6
		C43.4,63.1,43.5,62.9,43.6,62.7L43.6,62.7z M43.6,62.7"/>
	<path class="st0" d="M45.8,72.8L45.8,72.8c0,0,0.4-0.6,0.5-0.8l-7.2-6.5c-0.2,0-0.3,0.1-0.5,0.1c0,0,0,0,0,0
		c-5.8,1.4-11.5,7.6-5.8,14.6c0.3,0.3,0.7,0.5,1.1,0.4c0.4-0.1,0.7-0.4,0.8-0.8c0.2-0.9,0.5-1.9,1.3-2.7
		C37.7,75.4,42.6,78.1,45.8,72.8L45.8,72.8z M38.8,74.6c-1.4,0.1-2.9,0.1-4.1,1.2c-0.2,0.2-0.4,0.4-0.6,0.7
		c-0.2,0.3-0.5,0.4-0.9,0.3c-0.3-0.1-0.6-0.3-0.7-0.6c-0.3-1-0.4-2.1-0.1-3.2c0.2-0.6,0.5-1.2,0.9-1.8c1.5,1.6,2.7,2.5,5.1,2.3
		c1.5-0.1,2.8-0.1,4.1,0.3C41.4,74.5,40.1,74.5,38.8,74.6L38.8,74.6z M38.8,74.6"/>
</g>
</svg>
