<?xml version="1.0" encoding="utf-8"?>
<!-- Generator: Adobe Illustrator 19.1.0, SVG Export Plug-In . SVG Version: 6.00 Build 0)  -->
<svg version="1.1" id="Capa_1" xmlns="http://www.w3.org/2000/svg" xmlns:xlink="http://www.w3.org/1999/xlink" x="0px" y="0px"
	 viewBox="0 0 101 101" style="enable-background:new 0 0 101 101;" xml:space="preserve">
<style type="text/css">
	.st0{fill:#FFFFFF;}
	.st1{fill:#F6921E;}
	.st2{fill:#00A69C;}
	.st3{opacity:0.8;}
	.st4{clip-path:url(#SVGID_2_);}
	.st5{fill:#016458;}
	.st6{fill:#231F20;}
	.st7{fill:#9E1F63;}
	.st8{fill:#4F6E32;}
	.st9{fill:#618B3D;}
	.st10{fill:#008478;}
	.st11{fill:#7C1A52;}
	.st12{fill:#89BC40;}
	.st13{fill:#D91C5C;}
	.st14{clip-path:url(#SVGID_4_);}
	.st15{clip-path:url(#SVGID_6_);}
	.st16{clip-path:url(#SVGID_8_);}
	.st17{clip-path:url(#SVGID_10_);}
	.st18{opacity:0.8;fill:#FFFFFF;}
	.st19{opacity:0.6;fill:#FFFFFF;}
	.st20{clip-path:url(#SVGID_12_);}
	.st21{clip-path:url(#SVGID_14_);}
	.st22{clip-path:url(#SVGID_16_);}
	.st23{fill:none;}
	.st24{opacity:0.7;fill:#FFFFFF;}
	.st25{fill-rule:evenodd;clip-rule:evenodd;fill:#FFFFFF;}
	.st26{fill:#F15A29;}
	.st27{fill:#FBB040;}
	.st28{fill:#B3CF50;}
	.st29{fill:#17977F;}
	.st30{fill:#38D9C3;}
	.st31{fill:#1BAFA5;}
	.st32{fill:#287DAA;}
	.st33{clip-path:url(#SVGID_18_);}
	.st34{fill:#443C86;}
	.st35{fill:#92278F;}
	.st36{fill:#DA1C5C;}
	.st37{fill:#662D91;}
	.st38{fill:#ED1C24;}
</style>
<g>
	<path class="st0" d="M59.6,52.4c-3-0.4-6.6,0.2-10.7,1.8c-2.9,1.1-5.2,2.4-6.2,3c-1.4-2.3-6.1-12.1-7.8-16c-0.9-2-3.7-6-6.6-4.9
		c-0.7,0.3-1.2,0.8-1.5,1.4c-1,2.3,0.6,6.1,0.7,6.2c2.3,5.4,8.5,20,9.2,21.6c0.1,0.2,0.2,0.6,0.4,0.9c0.4,0.8,0.9,2,1.3,3
		c0.5,1.4,0.4,1.8,0.3,1.9c-0.1,0.1-0.2,0.1-0.3,0.2c-1.9,0.8-5.8-2.9-7.3-4.7c-1.3-1.6-4.2-2.5-6-1.8c-0.7,0.3-1.2,0.8-1.4,1.5
		c-0.3,1,0,2.1,1,3.5c0,0,0,0,0.1,0.1c1.3,2.1,5.1,7.5,10.9,11.9c3.7,2.8,7.6,4.7,11.5,5.6C52,88.7,57,88.3,62,86.4
		c5.3-2.1,8.3-6.1,9-11.9c0.6-5.7-1.3-11.8-2.5-14.9C66.8,55.3,63.9,52.9,59.6,52.4L59.6,52.4z M59.6,52.4"/>
	<g>
		<path class="st0" d="M70.1,20.5h-1v3.9H70c0.6,0,1.1-0.2,1.3-0.5c0.3-0.3,0.4-0.8,0.4-1.5c0-0.6-0.1-1.1-0.4-1.4
			S70.7,20.5,70.1,20.5z"/>
		<polygon class="st0" points="59.6,27.6 61.1,27.6 60.3,22.1 		"/>
		<path class="st0" d="M31.5,20.9c-0.1-0.2-0.3-0.3-0.5-0.3c-0.2-0.1-0.5-0.1-0.8-0.1h-0.5v9.7h0.5c0.2,0,0.4,0,0.6,0
			c0.2,0,0.3-0.1,0.4-0.2c0.1-0.1,0.2-0.2,0.3-0.2c0.1-0.1,0.1-0.2,0.1-0.4c0-0.2,0.1-0.3,0.1-0.5s0-0.4,0-0.6v-6c0-0.4,0-0.6,0-0.8
			C31.6,21.3,31.6,21.1,31.5,20.9z"/>
		<path class="st0" d="M86.6,12.8H14.4C6.7,12.8,0.5,19,0.5,26.7c0,7.7,6.2,13.9,13.9,13.9h10c-0.1-1.2,0-2.5,0.4-3.6
			c0.5-1.2,1.5-2.2,2.7-2.6c0.6-0.2,1.2-0.3,1.8-0.3c3.9,0,6.8,4.6,7.6,6.4c0,0.1,0.1,0.1,0.1,0.2h49.7c7.7,0,13.9-6.2,13.9-13.9
			C100.5,19,94.3,12.8,86.6,12.8z M34.9,27.9c0,0.8-0.1,1.5-0.2,2c-0.1,0.5-0.4,1-0.8,1.4c-0.4,0.4-0.8,0.7-1.4,0.8
			c-0.6,0.2-1.4,0.3-2.3,0.3h-3.6v-14h3.5c0.9,0,1.7,0.1,2.3,0.2s1.1,0.4,1.5,0.8s0.6,0.8,0.8,1.4s0.2,1.2,0.2,2V27.9z M45,28
			c0,1.5-0.3,2.7-1,3.5c-0.7,0.8-1.7,1.2-3.3,1.2c-0.8,0-1.4-0.1-2-0.3c-0.5-0.2-1-0.5-1.3-0.9s-0.6-0.9-0.7-1.4
			c-0.1-0.6-0.2-1.2-0.2-2v-5.2c0-0.8,0.1-1.4,0.2-2c0.1-0.5,0.4-1,0.7-1.4c0.3-0.4,0.8-0.7,1.3-0.9c0.5-0.2,1.2-0.3,2-0.3
			c1.5,0,2.6,0.4,3.3,1.2s1,1.9,1,3.4V28z M54.5,32.4h-2.1l-2.9-7.3v7.3h-2.6v-14h2.2l2.9,6.7v-6.7h2.6V32.4z M61.8,32.4l-0.5-3h-2
			l-0.5,3h-2.9l2.7-14H62l2.6,14H61.8z M71.6,32.4l-1.5-6.3h-0.9v6.3h-3.1v-14h3.8c0.6,0,1.1,0,1.6,0.1c0.5,0.1,0.9,0.2,1.3,0.4
			c0.4,0.2,0.7,0.4,1,0.7c0.3,0.3,0.5,0.6,0.6,1.1s0.2,0.9,0.2,1.5c0,0.9-0.1,1.7-0.4,2.2c-0.2,0.6-0.7,1-1.3,1.3l1.9,6.8H71.6z"/>
		<path class="st0" d="M41.7,21.1c0-0.2-0.1-0.3-0.2-0.4c-0.1-0.1-0.2-0.2-0.3-0.2c-0.1-0.1-0.3-0.1-0.5-0.1s-0.3,0-0.5,0.1
			c-0.1,0.1-0.2,0.1-0.3,0.2c-0.1,0.1-0.1,0.2-0.2,0.4c0,0.2-0.1,0.3-0.1,0.4c0,0.1,0,0.3,0,0.5v6.7c0,0.2,0,0.4,0,0.5
			c0,0.1,0,0.3,0.1,0.4c0,0.2,0.1,0.3,0.2,0.4s0.2,0.2,0.3,0.2c0.1,0.1,0.3,0.1,0.5,0.1s0.3,0,0.5-0.1c0.1-0.1,0.2-0.1,0.3-0.2
			s0.1-0.2,0.2-0.4c0-0.2,0.1-0.3,0.1-0.4s0-0.3,0-0.5V22c0-0.2,0-0.3,0-0.5C41.8,21.4,41.8,21.2,41.7,21.1z"/>
	</g>
</g>
</svg>
