<?xml version="1.0" encoding="utf-8"?>
<!-- Generator: Adobe Illustrator 19.1.0, SVG Export Plug-In . SVG Version: 6.00 Build 0)  -->
<svg version="1.1" id="Capa_1" xmlns="http://www.w3.org/2000/svg" xmlns:xlink="http://www.w3.org/1999/xlink" x="0px" y="0px"
	 viewBox="0 0 101 101" style="enable-background:new 0 0 101 101;" xml:space="preserve">
<style type="text/css">
	.st0{fill:#FFFFFF;}
	.st1{fill:#F6921E;}
	.st2{fill:#00A69C;}
	.st3{opacity:0.8;}
	.st4{clip-path:url(#SVGID_2_);}
	.st5{fill:#016458;}
	.st6{fill:#231F20;}
	.st7{fill:#9E1F63;}
	.st8{fill:#4F6E32;}
	.st9{fill:#618B3D;}
	.st10{fill:#008478;}
	.st11{fill:#7C1A52;}
	.st12{fill:#89BC40;}
	.st13{fill:#D91C5C;}
	.st14{clip-path:url(#SVGID_4_);}
	.st15{clip-path:url(#SVGID_6_);}
	.st16{clip-path:url(#SVGID_8_);}
	.st17{clip-path:url(#SVGID_10_);}
	.st18{opacity:0.8;fill:#FFFFFF;}
	.st19{opacity:0.6;fill:#FFFFFF;}
	.st20{clip-path:url(#SVGID_12_);}
	.st21{clip-path:url(#SVGID_14_);}
	.st22{clip-path:url(#SVGID_16_);}
	.st23{fill:none;}
	.st24{opacity:0.7;fill:#FFFFFF;}
	.st25{fill-rule:evenodd;clip-rule:evenodd;fill:#FFFFFF;}
	.st26{fill:#F15A29;}
	.st27{fill:#FBB040;}
	.st28{fill:#B3CF50;}
	.st29{fill:#17977F;}
	.st30{fill:#38D9C3;}
	.st31{fill:#1BAFA5;}
	.st32{fill:#287DAA;}
	.st33{clip-path:url(#SVGID_18_);}
	.st34{fill:#443C86;}
	.st35{fill:#92278F;}
	.st36{fill:#DA1C5C;}
	.st37{fill:#662D91;}
	.st38{fill:#ED1C24;}
</style>
<path id="XMLID_70_" class="st0" d="M58.3,77.6c0,6.4-0.2,12.7,0.1,19.1c0.2,3.4-1,4.2-4.2,4c-3.6-0.3-7.2-0.3-10.8,0
	c-3.1,0.2-3.9-1-3.9-3.9c0.1-12.7,0-25.5,0.1-38.2c0-2.7-0.5-3.9-3.5-3.7c-3,0.3-6.1,0-9.1,0.1c-1.9,0.1-2.5-0.7-2.5-2.5
	c0.1-4.3,0.1-8.7,0-13c-0.1-2.2,0.9-2.8,2.9-2.6c0.1,0,0.3,0,0.4,0c3.8-0.3,9.1,1.7,11.2-0.9c1.9-2.4,0.5-7.5,0.6-11.4
	c0.1-12,5.5-20.7,15.1-23.2c6.6-1.7,13.5-0.5,20.3-0.7c1.7-0.1,1.6,1.2,1.6,2.4c0,3.9-0.1,7.8,0,11.7c0.1,1.9-0.6,2.6-2.5,2.5
	c-2.9-0.1-5.8-0.1-8.7,0c-4.3,0.2-6.6,2.4-7.1,6.7C56.8,37,56.8,37,70,37c0.1,0,0.3,0,0.4,0c6.4,0.2,5.7-1.4,5,5.8
	c-0.3,2.9-1.1,5.7-1.2,8.6c-0.1,3.2-1.6,3.7-4.3,3.6c-3.7-0.2-8.8-1.3-10.9,0.6c-2.5,2.2-0.6,7.3-0.8,11.2
	C58.2,70.3,58.3,73.9,58.3,77.6z"/>
</svg>
