<?xml version="1.0" encoding="utf-8"?>
<!-- Generator: Adobe Illustrator 19.1.0, SVG Export Plug-In . SVG Version: 6.00 Build 0)  -->
<svg version="1.1" id="Capa_1" xmlns="http://www.w3.org/2000/svg" xmlns:xlink="http://www.w3.org/1999/xlink" x="0px" y="0px"
	 viewBox="0 0 101 101" style="enable-background:new 0 0 101 101;" xml:space="preserve">
<style type="text/css">
	.st0{fill:#FFFFFF;}
	.st1{fill:#F6921E;}
	.st2{fill:#00A69C;}
	.st3{opacity:0.8;}
	.st4{clip-path:url(#SVGID_2_);}
	.st5{fill:#016458;}
	.st6{fill:#231F20;}
	.st7{fill:#9E1F63;}
	.st8{fill:#4F6E32;}
	.st9{fill:#618B3D;}
	.st10{fill:#008478;}
	.st11{fill:#7C1A52;}
	.st12{fill:#89BC40;}
	.st13{fill:#D91C5C;}
	.st14{clip-path:url(#SVGID_4_);}
	.st15{clip-path:url(#SVGID_6_);}
	.st16{clip-path:url(#SVGID_8_);}
	.st17{clip-path:url(#SVGID_10_);}
	.st18{opacity:0.8;fill:#FFFFFF;}
	.st19{opacity:0.6;fill:#FFFFFF;}
	.st20{clip-path:url(#SVGID_12_);}
	.st21{clip-path:url(#SVGID_14_);}
	.st22{clip-path:url(#SVGID_16_);}
	.st23{fill:none;}
	.st24{opacity:0.7;fill:#FFFFFF;}
	.st25{fill-rule:evenodd;clip-rule:evenodd;fill:#FFFFFF;}
	.st26{fill:#F15A29;}
	.st27{fill:#FBB040;}
	.st28{fill:#B3CF50;}
	.st29{fill:#17977F;}
	.st30{fill:#38D9C3;}
	.st31{fill:#1BAFA5;}
	.st32{fill:#287DAA;}
	.st33{clip-path:url(#SVGID_18_);}
	.st34{fill:#443C86;}
	.st35{fill:#92278F;}
	.st36{fill:#DA1C5C;}
	.st37{fill:#662D91;}
	.st38{fill:#ED1C24;}
</style>
<path id="XMLID_65_" class="st0" d="M81.3,80.8c0,2.6,0,4.6,0,6.6c0,10.1,0,10-10.2,11.6c-7.9,1.2-15.8,2-23.7,0.1
	c-9.9-2.3-14.3-8-14.3-18.1c0-11.5-0.2-23.1,0.1-34.6c0.1-3.5-1.1-4.2-4.3-4.2c-8.9,0.1-8.7-0.1-9.1-8.9c-0.2-3.5,1-5,3.9-6.5
	c8.7-4.6,14.5-11.8,16.2-21.5c0.7-3.7,1.8-4.7,5.4-4.6c8.3,0.2,8.3,0,8.3,8.2c0,4.6,0.1,9.2-0.1,13.7c-0.1,2.5,0.8,3.2,3.2,3.2
	c6.3-0.1,12.5,0.1,18.8-0.1c2.9-0.1,3.7,0.9,3.8,3.8c0.4,12.5,0.5,12.5-12.2,12.5c-4.2,0-9.8-1.4-12.3,0.8c-3,2.5-0.9,8.3-1,12.6
	c-0.2,5.4-0.1,10.8,0,16.3C54,81.6,60,86.4,69.6,84.4C73.3,83.6,77,82.1,81.3,80.8z"/>
</svg>
