<?xml version="1.0" encoding="utf-8"?>
<!-- Generator: Adobe Illustrator 19.1.0, SVG Export Plug-In . SVG Version: 6.00 Build 0)  -->
<svg version="1.1" id="Capa_1" xmlns="http://www.w3.org/2000/svg" xmlns:xlink="http://www.w3.org/1999/xlink" x="0px" y="0px"
	 viewBox="0 0 101 101" style="enable-background:new 0 0 101 101;" xml:space="preserve">
<style type="text/css">
	.st0{fill:#FFFFFF;}
	.st1{fill:#F6921E;}
	.st2{fill:#00A69C;}
	.st3{opacity:0.8;}
	.st4{clip-path:url(#SVGID_2_);}
	.st5{fill:#016458;}
	.st6{fill:#231F20;}
	.st7{fill:#9E1F63;}
	.st8{fill:#4F6E32;}
	.st9{fill:#618B3D;}
	.st10{fill:#008478;}
	.st11{fill:#7C1A52;}
	.st12{fill:#89BC40;}
	.st13{fill:#D91C5C;}
	.st14{clip-path:url(#SVGID_4_);}
	.st15{clip-path:url(#SVGID_6_);}
	.st16{clip-path:url(#SVGID_8_);}
	.st17{clip-path:url(#SVGID_10_);}
	.st18{opacity:0.8;fill:#FFFFFF;}
	.st19{opacity:0.6;fill:#FFFFFF;}
	.st20{clip-path:url(#SVGID_12_);}
	.st21{clip-path:url(#SVGID_14_);}
	.st22{clip-path:url(#SVGID_16_);}
	.st23{fill:none;}
	.st24{opacity:0.7;fill:#FFFFFF;}
	.st25{fill-rule:evenodd;clip-rule:evenodd;fill:#FFFFFF;}
	.st26{fill:#F15A29;}
	.st27{fill:#FBB040;}
	.st28{fill:#B3CF50;}
	.st29{fill:#17977F;}
	.st30{fill:#38D9C3;}
	.st31{fill:#1BAFA5;}
	.st32{fill:#287DAA;}
	.st33{clip-path:url(#SVGID_18_);}
	.st34{fill:#443C86;}
	.st35{fill:#92278F;}
	.st36{fill:#DA1C5C;}
	.st37{fill:#662D91;}
	.st38{fill:#ED1C24;}
</style>
<circle class="st0" cx="50.5" cy="50.5" r="50.2"/>
<g>
	<path class="st26" d="M56.8,23.7h-0.5v-1.8c0-0.8-0.7-1.5-1.5-1.5c-0.8,0-1.5,0.7-1.5,1.5v1.8h-5.8v-1.8c0-0.8-0.7-1.5-1.5-1.5
		c-0.8,0-1.5,0.7-1.5,1.5v1.8h-5.8v-1.8c0-0.8-0.7-1.5-1.5-1.5c-0.8,0-1.5,0.7-1.5,1.5v1.8h-5.8v-1.8c0-0.8-0.7-1.5-1.5-1.5
		c-0.8,0-1.5,0.7-1.5,1.5v1.8h-0.5c-3.2,0-5.8,2.6-5.8,5.8v45.2c0,3.2,2.6,5.8,5.8,5.8h30.3c3.2,0,5.8-2.6,5.8-5.8V29.5
		C62.6,26.3,60,23.7,56.8,23.7L56.8,23.7z M59.7,74.7c0,1.6-1.3,2.9-2.9,2.9H26.5c-1.6,0-2.9-1.3-2.9-2.9V29.5
		c0-1.6,1.3-2.9,2.9-2.9H27v3.8c0,0.8,0.7,1.5,1.5,1.5c0.8,0,1.5-0.7,1.5-1.5v-3.8h5.8v3.8c0,0.8,0.7,1.5,1.5,1.5s1.5-0.7,1.5-1.5
		v-3.8h5.8v3.8c0,0.8,0.7,1.5,1.5,1.5s1.5-0.7,1.5-1.5v-3.8h5.8v3.8c0,0.8,0.7,1.5,1.5,1.5c0.8,0,1.5-0.7,1.5-1.5v-3.8h0.5
		c1.6,0,2.9,1.3,2.9,2.9V74.7z M59.7,74.7"/>
	<path class="st26" d="M54.7,43.3H28.5c-0.8,0-1.5,0.7-1.5,1.5s0.7,1.5,1.5,1.5h26.2c0.8,0,1.5-0.7,1.5-1.5S55.5,43.3,54.7,43.3
		L54.7,43.3z M54.7,43.3"/>
	<path class="st26" d="M54.7,52.1H28.5c-0.8,0-1.5,0.7-1.5,1.5c0,0.8,0.7,1.5,1.5,1.5h26.2c0.8,0,1.5-0.7,1.5-1.5
		C56.2,52.7,55.5,52.1,54.7,52.1L54.7,52.1z M54.7,52.1"/>
	<path class="st26" d="M54.7,60.8H28.5c-0.8,0-1.5,0.7-1.5,1.5s0.7,1.5,1.5,1.5h26.2c0.8,0,1.5-0.7,1.5-1.5S55.5,60.8,54.7,60.8
		L54.7,60.8z M54.7,60.8"/>
	<path class="st26" d="M79.8,26.6c-0.1-0.5-0.4-1-0.9-1.2c-1.8-0.8-3.4-1.2-4.9-1.2c-1.5,0-3.1,0.4-4.9,1.2
		c-0.5,0.2-0.8,0.7-0.9,1.2c-0.8,8-0.8,15.9,0,23.9c0.1,0.5,0.4,1,0.8,1.2l1,20.4c0,0.1,0,0.2,0,0.3l1.7,6.5
		c0.2,0.6,0.7,1.1,1.4,1.1h1.6c0.7,0,1.2-0.4,1.4-1.1l1.7-6.5c0-0.1,0-0.2,0-0.3l1-20.4c0.5-0.2,0.8-0.7,0.8-1.2
		C80.6,42.5,80.6,34.7,79.8,26.6L79.8,26.6z M71.1,27.8c0.5-0.2,1-0.3,1.5-0.4v10.9c0,0.8,0.7,1.5,1.5,1.5c0.8,0,1.5-0.7,1.5-1.5
		V27.4c0.5,0.1,1,0.2,1.5,0.4c0.7,7.2,0.7,14.3,0,21.5h-5.9C70.4,42.1,70.4,35,71.1,27.8L71.1,27.8z M75.1,71.8l-1,4l-1-4l-1-19.6h4
		L75.1,71.8z M75.1,71.8"/>
</g>
</svg>
