<?xml version="1.0" encoding="utf-8"?>
<!-- Generator: Adobe Illustrator 19.1.0, SVG Export Plug-In . SVG Version: 6.00 Build 0)  -->
<svg version="1.1" id="Capa_1" xmlns="http://www.w3.org/2000/svg" xmlns:xlink="http://www.w3.org/1999/xlink" x="0px" y="0px"
	 viewBox="0 0 101 101" style="enable-background:new 0 0 101 101;" xml:space="preserve">
<style type="text/css">
	.st0{fill:#FFFFFF;}
	.st1{fill:#F6921E;}
	.st2{fill:#00A69C;}
	.st3{opacity:0.8;}
	.st4{clip-path:url(#SVGID_2_);}
	.st5{fill:#016458;}
	.st6{fill:#231F20;}
	.st7{fill:#9E1F63;}
	.st8{fill:#4F6E32;}
	.st9{fill:#618B3D;}
	.st10{fill:#008478;}
	.st11{fill:#7C1A52;}
	.st12{fill:#89BC40;}
	.st13{fill:#D91C5C;}
	.st14{clip-path:url(#SVGID_4_);}
	.st15{clip-path:url(#SVGID_6_);}
	.st16{clip-path:url(#SVGID_8_);}
	.st17{clip-path:url(#SVGID_10_);}
	.st18{opacity:0.8;fill:#FFFFFF;}
	.st19{opacity:0.6;fill:#FFFFFF;}
	.st20{clip-path:url(#SVGID_12_);}
	.st21{clip-path:url(#SVGID_14_);}
	.st22{clip-path:url(#SVGID_16_);}
	.st23{fill:none;}
	.st24{opacity:0.7;fill:#FFFFFF;}
	.st25{fill-rule:evenodd;clip-rule:evenodd;fill:#FFFFFF;}
	.st26{fill:#F15A29;}
	.st27{fill:#FBB040;}
	.st28{fill:#B3CF50;}
	.st29{fill:#17977F;}
	.st30{fill:#38D9C3;}
	.st31{fill:#1BAFA5;}
	.st32{fill:#287DAA;}
	.st33{clip-path:url(#SVGID_18_);}
	.st34{fill:#443C86;}
	.st35{fill:#92278F;}
	.st36{fill:#DA1C5C;}
	.st37{fill:#662D91;}
	.st38{fill:#ED1C24;}
</style>
<circle class="st0" cx="50.5" cy="50.5" r="50.2"/>
<circle class="st29" cx="50.5" cy="50.5" r="50.2"/>
<path class="st0" d="M76.6,36.6h-8.6c0.6-1.2,1.1-2.5,1.4-3.9c0.9-3.7,0.8-7,0.8-7.2l-0.2-4.7l-2.4,4.1c-1.2,2.1-2.7,3.9-4.4,5.4
	c-1.4,1.2-2.9,2.1-4.6,2.8c-1,0.4-2,0.7-2.8,0.9H45.1c-3-0.7-8.2-2.7-11.8-9.1l-2.3-4.1l-0.2,4.7c0,0.1-0.1,3.4,0.8,7.2
	c0.4,1.4,0.8,2.8,1.4,3.9h-8.5l0,1.3c0,0.2,0,4.3,3,7.4c1.8,1.9,4.4,3,7.6,3.3c0,4.1,0.6,7.1,1.8,9.2c2.2,3.8,2.8,15,2.8,19v0.3
	l0.2,0.3c0.2,0.4,0.8,1,2.3,1.6c1.9,0.7,4.8,1.1,8.5,1.1c3.7,0,6.5-0.4,8.4-1.1c1.6-0.6,2.1-1.3,2.3-1.6l0.2-0.3l0-0.3
	c0-4,0.6-15.2,2.8-19c1.2-2.1,1.8-5.1,1.8-9.2c3.2-0.3,5.7-1.4,7.6-3.3c3-3.1,3-7.2,3-7.4L76.6,36.6z M36,36.6
	c-1.2-2-1.9-4.3-2.2-6.3c0.7,0.8,1.4,1.5,2.2,2.1c1.2,1,2.4,1.8,3.7,2.5c-0.8,0.4-1.8,1-2.6,1.7H36z M39.1,54.6
	c-1-0.5-1.3-2-0.6-3.3c0.7-1.3,2.1-1.9,3.1-1.4c1,0.5,1.3,2,0.7,3.3C41.5,54.5,40.1,55.1,39.1,54.6L39.1,54.6z M58.7,76.2
	c-0.3,0.2-1.1,0.5-2.4,0.8c-0.7-1.1-2.3-2.5-5.7-2.5v0c0,0,0,0,0,0c0,0,0,0,0,0v0c-3.4,0-5,1.5-5.7,2.6c-1.4-0.3-2.1-0.6-2.5-0.8
	c0-0.6,0-1.5-0.1-2.6c2-1.7,5.6-6,5.7-14c0.2-11.1-7.2-12.8-4.5-17c2.7-4.2,5.7-3.3,7.1-3.3c1.4,0,4.4-0.9,7.1,3.3
	c2.7,4.2-4.7,5.9-4.5,17c0.1,7.9,3.6,12.2,5.6,13.9C58.7,74.7,58.7,75.6,58.7,76.2L58.7,76.2z M62,54.6c-1,0.5-2.4-0.1-3.1-1.4
	c-0.7-1.3-0.4-2.8,0.7-3.3c1-0.5,2.4,0.1,3.1,1.4C63.3,52.5,63,54,62,54.6L62,54.6z M64.9,36.6h-1.1c-0.8-0.7-1.7-1.3-2.6-1.7
	c1.3-0.7,2.6-1.5,3.7-2.5c0.8-0.6,1.5-1.4,2.2-2.1C66.8,32.4,66.2,34.7,64.9,36.6L64.9,36.6z M64.9,36.6"/>
</svg>
