<?xml version="1.0" encoding="utf-8"?>
<!-- Generator: Adobe Illustrator 19.1.0, SVG Export Plug-In . SVG Version: 6.00 Build 0)  -->
<svg version="1.1" id="Capa_1" xmlns="http://www.w3.org/2000/svg" xmlns:xlink="http://www.w3.org/1999/xlink" x="0px" y="0px"
	 viewBox="0 0 101 101" style="enable-background:new 0 0 101 101;" xml:space="preserve">
<style type="text/css">
	.st0{fill:#FFFFFF;}
	.st1{fill:#F6921E;}
	.st2{fill:#00A69C;}
	.st3{opacity:0.8;}
	.st4{clip-path:url(#SVGID_2_);}
	.st5{fill:#016458;}
	.st6{fill:#231F20;}
	.st7{fill:#9E1F63;}
	.st8{fill:#4F6E32;}
	.st9{fill:#618B3D;}
	.st10{fill:#008478;}
	.st11{fill:#7C1A52;}
	.st12{fill:#89BC40;}
	.st13{fill:#D91C5C;}
	.st14{clip-path:url(#SVGID_4_);}
	.st15{clip-path:url(#SVGID_6_);}
	.st16{clip-path:url(#SVGID_8_);}
	.st17{clip-path:url(#SVGID_10_);}
	.st18{opacity:0.8;fill:#FFFFFF;}
	.st19{opacity:0.6;fill:#FFFFFF;}
	.st20{clip-path:url(#SVGID_12_);}
	.st21{clip-path:url(#SVGID_14_);}
	.st22{clip-path:url(#SVGID_16_);}
	.st23{fill:none;}
	.st24{opacity:0.7;fill:#FFFFFF;}
	.st25{fill-rule:evenodd;clip-rule:evenodd;fill:#FFFFFF;}
	.st26{fill:#F15A29;}
	.st27{fill:#FBB040;}
	.st28{fill:#B3CF50;}
	.st29{fill:#17977F;}
	.st30{fill:#38D9C3;}
	.st31{fill:#1BAFA5;}
	.st32{fill:#287DAA;}
	.st33{clip-path:url(#SVGID_18_);}
	.st34{fill:#443C86;}
	.st35{fill:#92278F;}
	.st36{fill:#DA1C5C;}
	.st37{fill:#662D91;}
	.st38{fill:#ED1C24;}
</style>
<g>
	<path class="st0" d="M66.6,25c0,8.6-6.9,15.5-15.5,15.5c-8.5,0-15.5-6.9-15.5-15.5c0-8.6,6.9-15.5,15.5-15.5
		C59.7,9.5,66.6,16.4,66.6,25L66.6,25z M66.6,25"/>
	<path class="st0" d="M96.8,20.7c-3.4-2.9-8.5-2.5-11.4,0.9L62.6,48.6c-2.9-3-7-4.9-11.5-4.9c-4.9,0-9.2,2.2-12.1,5.6L15.6,21.7
		c-2.9-3.4-8-3.8-11.4-0.9c-3.4,2.9-3.8,8-0.9,11.4L33.7,68c0.4,0.5,0.8,0.8,1.3,1.2v22.3h32.4V68.1c0,0,0,0,0.1-0.1l30.4-35.9
		C100.7,28.7,100.2,23.6,96.8,20.7L96.8,20.7z M62.1,63.8"/>
</g>
</svg>
