<?xml version="1.0" encoding="utf-8"?>
<!-- Generator: Adobe Illustrator 19.1.0, SVG Export Plug-In . SVG Version: 6.00 Build 0)  -->
<svg version="1.1" id="Capa_1" xmlns="http://www.w3.org/2000/svg" xmlns:xlink="http://www.w3.org/1999/xlink" x="0px" y="0px"
	 viewBox="0 0 101 101" style="enable-background:new 0 0 101 101;" xml:space="preserve">
<style type="text/css">
	.st0{fill:#FFFFFF;}
	.st1{fill:#F6921E;}
	.st2{fill:#00A69C;}
	.st3{opacity:0.8;}
	.st4{clip-path:url(#SVGID_2_);}
	.st5{fill:#016458;}
	.st6{fill:#231F20;}
	.st7{fill:#9E1F63;}
	.st8{fill:#4F6E32;}
	.st9{fill:#618B3D;}
	.st10{fill:#008478;}
	.st11{fill:#7C1A52;}
	.st12{fill:#89BC40;}
	.st13{fill:#D91C5C;}
	.st14{clip-path:url(#SVGID_4_);}
	.st15{clip-path:url(#SVGID_6_);}
	.st16{clip-path:url(#SVGID_8_);}
	.st17{clip-path:url(#SVGID_10_);}
	.st18{opacity:0.8;fill:#FFFFFF;}
	.st19{opacity:0.6;fill:#FFFFFF;}
	.st20{clip-path:url(#SVGID_12_);}
	.st21{clip-path:url(#SVGID_14_);}
	.st22{clip-path:url(#SVGID_16_);}
	.st23{fill:none;}
	.st24{opacity:0.7;fill:#FFFFFF;}
	.st25{fill-rule:evenodd;clip-rule:evenodd;fill:#FFFFFF;}
	.st26{fill:#F15A29;}
	.st27{fill:#FBB040;}
	.st28{fill:#B3CF50;}
	.st29{fill:#17977F;}
	.st30{fill:#38D9C3;}
	.st31{fill:#1BAFA5;}
	.st32{fill:#287DAA;}
	.st33{clip-path:url(#SVGID_18_);}
	.st34{fill:#443C86;}
	.st35{fill:#92278F;}
	.st36{fill:#DA1C5C;}
	.st37{fill:#662D91;}
	.st38{fill:#ED1C24;}
</style>
<g>
	<path class="st0" d="M89,95.1V5.9c0-2.9-2.3-5.2-5.2-5.2H17.2C14.3,0.7,12,3,12,5.9v89.3c0,2.9,2.3,5.2,5.2,5.2h66.7
		C86.7,100.3,89,98,89,95.1L89,95.1z M33.2,88.4c0,1.4-1.2,2.6-2.6,2.6h-6c-1.4,0-2.6-1.2-2.6-2.6v-6c0-1.4,1.2-2.6,2.6-2.6h6
		c1.4,0,2.6,1.2,2.6,2.6V88.4z M33.2,73c0,1.4-1.2,2.6-2.6,2.6h-6c-1.4,0-2.6-1.2-2.6-2.6v-6c0-1.4,1.2-2.6,2.6-2.6h6
		c1.4,0,2.6,1.2,2.6,2.6V73z M33.2,57.7c0,1.4-1.2,2.6-2.6,2.6h-6c-1.4,0-2.6-1.2-2.6-2.6v-6c0-1.4,1.2-2.6,2.6-2.6h6
		c1.4,0,2.6,1.2,2.6,2.6V57.7z M33.2,42.3c0,1.4-1.2,2.6-2.6,2.6h-6c-1.4,0-2.6-1.2-2.6-2.6v-6c0-1.4,1.2-2.6,2.6-2.6h6
		c1.4,0,2.6,1.2,2.6,2.6V42.3z M48.5,88.4c0,1.4-1.2,2.6-2.6,2.6h-6c-1.4,0-2.6-1.2-2.6-2.6v-6c0-1.4,1.2-2.6,2.6-2.6h6
		c1.4,0,2.6,1.2,2.6,2.6V88.4z M48.5,73c0,1.4-1.2,2.6-2.6,2.6h-6c-1.4,0-2.6-1.2-2.6-2.6v-6c0-1.4,1.2-2.6,2.6-2.6h6
		c1.4,0,2.6,1.2,2.6,2.6V73z M48.5,57.7c0,1.4-1.2,2.6-2.6,2.6h-6c-1.4,0-2.6-1.2-2.6-2.6v-6c0-1.4,1.2-2.6,2.6-2.6h6
		c1.4,0,2.6,1.2,2.6,2.6V57.7z M48.5,42.3c0,1.4-1.2,2.6-2.6,2.6h-6c-1.4,0-2.6-1.2-2.6-2.6v-6c0-1.4,1.2-2.6,2.6-2.6h6
		c1.4,0,2.6,1.2,2.6,2.6V42.3z M63.7,88.4c0,1.4-1.2,2.6-2.6,2.6h-6c-1.4,0-2.6-1.2-2.6-2.6v-6c0-1.4,1.2-2.6,2.6-2.6h6
		c1.4,0,2.6,1.2,2.6,2.6L63.7,88.4L63.7,88.4z M63.7,73c0,1.4-1.2,2.6-2.6,2.6h-6c-1.4,0-2.6-1.2-2.6-2.6v-6c0-1.4,1.2-2.6,2.6-2.6
		h6c1.4,0,2.6,1.2,2.6,2.6L63.7,73L63.7,73z M63.7,57.7c0,1.4-1.2,2.6-2.6,2.6h-6c-1.4,0-2.6-1.2-2.6-2.6v-6c0-1.4,1.2-2.6,2.6-2.6
		h6c1.4,0,2.6,1.2,2.6,2.6L63.7,57.7L63.7,57.7z M63.7,42.3c0,1.4-1.2,2.6-2.6,2.6h-6c-1.4,0-2.6-1.2-2.6-2.6v-6
		c0-1.4,1.2-2.6,2.6-2.6h6c1.4,0,2.6,1.2,2.6,2.6L63.7,42.3L63.7,42.3z M79,88.4c0,1.4-1.2,2.6-2.6,2.6h-6c-1.4,0-2.6-1.2-2.6-2.6
		V67.1c0-1.4,1.2-2.6,2.6-2.6h6c1.4,0,2.6,1.2,2.6,2.6V88.4z M79,57.7c0,1.4-1.2,2.6-2.6,2.6h-6c-1.4,0-2.6-1.2-2.6-2.6v-6
		c0-1.4,1.2-2.6,2.6-2.6h6c1.4,0,2.6,1.2,2.6,2.6V57.7z M79,42.3c0,1.4-1.2,2.6-2.6,2.6h-6c-1.4,0-2.6-1.2-2.6-2.6v-6
		c0-1.4,1.2-2.6,2.6-2.6h6c1.4,0,2.6,1.2,2.6,2.6V42.3z M79,21.5c0,1.4-1.2,2.6-2.6,2.6H24.6c-1.4,0-2.6-1.2-2.6-2.6v-9
		c0-1.4,1.2-2.6,2.6-2.6h51.8c1.4,0,2.6,1.2,2.6,2.6V21.5z M79,21.5"/>
</g>
</svg>
