<?xml version="1.0" encoding="utf-8"?>
<!-- Generator: Adobe Illustrator 19.1.0, SVG Export Plug-In . SVG Version: 6.00 Build 0)  -->
<svg version="1.1" id="Capa_1" xmlns="http://www.w3.org/2000/svg" xmlns:xlink="http://www.w3.org/1999/xlink" x="0px" y="0px"
	 viewBox="0 0 101 101" style="enable-background:new 0 0 101 101;" xml:space="preserve">
<style type="text/css">
	.st0{fill:#FFFFFF;}
	.st1{fill:#F6921E;}
	.st2{fill:#00A69C;}
	.st3{opacity:0.8;}
	.st4{clip-path:url(#SVGID_2_);}
	.st5{fill:#016458;}
	.st6{fill:#231F20;}
	.st7{fill:#9E1F63;}
	.st8{fill:#4F6E32;}
	.st9{fill:#618B3D;}
	.st10{fill:#008478;}
	.st11{fill:#7C1A52;}
	.st12{fill:#89BC40;}
	.st13{fill:#D91C5C;}
	.st14{clip-path:url(#SVGID_4_);}
	.st15{clip-path:url(#SVGID_6_);}
	.st16{clip-path:url(#SVGID_8_);}
	.st17{clip-path:url(#SVGID_10_);}
	.st18{opacity:0.8;fill:#FFFFFF;}
	.st19{opacity:0.6;fill:#FFFFFF;}
	.st20{clip-path:url(#SVGID_12_);}
	.st21{clip-path:url(#SVGID_14_);}
	.st22{clip-path:url(#SVGID_16_);}
	.st23{fill:none;}
	.st24{opacity:0.7;fill:#FFFFFF;}
	.st25{fill-rule:evenodd;clip-rule:evenodd;fill:#FFFFFF;}
	.st26{fill:#F15A29;}
	.st27{fill:#FBB040;}
	.st28{fill:#B3CF50;}
	.st29{fill:#17977F;}
	.st30{fill:#38D9C3;}
	.st31{fill:#1BAFA5;}
	.st32{fill:#287DAA;}
	.st33{clip-path:url(#SVGID_18_);}
	.st34{fill:#443C86;}
	.st35{fill:#92278F;}
	.st36{fill:#DA1C5C;}
	.st37{fill:#662D91;}
	.st38{fill:#ED1C24;}
</style>
<g>
	<path class="st0" d="M24.7,25h4.5c1.6,0,3-1.1,3-2.4V3.4c0-1.3-1.3-2.4-3-2.4h-4.5c-1.7,0-3,1.1-3,2.4v19.2
		C21.7,23.9,23.1,25,24.7,25L24.7,25z M24.7,25"/>
	<path class="st0" d="M71.8,25h4.5c1.7,0,3-1.1,3-2.4V3.4c0-1.3-1.3-2.4-3-2.4h-4.5c-1.7,0-3,1.1-3,2.4v19.2
		C68.7,23.9,70.1,25,71.8,25L71.8,25z M71.8,25"/>
	<path class="st0" d="M94.7,10.2H82.8v14.7c0,3.3-3,6-6.6,6h-4.5c-3.6,0-6.6-2.7-6.6-6V10.2H35.8v14.7c0,3.3-3,6-6.6,6h-4.5
		c-3.6,0-6.6-2.7-6.6-6V10.2H6.2c-2,0-3.6,1.6-3.6,3.6v82.5c0,2,1.6,3.6,2.2,3.6h88.5c3.3,0,5-1.6,5-3.6V13.8
		C98.3,11.9,96.7,10.2,94.7,10.2L94.7,10.2z M92.8,91.8c0,3.6-3.1,3.3-3.1,3.3H57.4c0,0,19.8-9.9,35.4-23.9V91.8z M93.5,61.2
		c-1.3,5.4-4.3,11.5-9.8,7.5c-7.9-5.9-15.8-10.9-16.8,0.9C66,79.6,47.6,93.2,43.6,96h-35c-0.6,0-1.1-0.5-1.1-1.1V44
		c0-0.7,0.5-1.1,1.1-1.1h83.7c0.6,0,1.1,0.5,1.1,1.1L93.5,61.2L93.5,61.2z M93.5,61.2"/>
	<rect x="21.7" y="51.7" class="st0" width="14" height="14"/>
	<rect x="44.7" y="51.7" class="st0" width="14" height="14"/>
	<rect x="21.7" y="72.9" class="st0" width="14" height="14"/>
	<path class="st0" d="M44.7,86.9h4c3-2.8,7.4-7.4,9.9-10.5v-3.5H44.7V86.9z M44.7,86.9"/>
	<path class="st0" d="M67,58.3c1.4-1.4,3.1-1.8,4.6-1.8c2.9,0,6,1.6,9.3,3.8v-8.6H67V58.3z M67,58.3"/>
</g>
</svg>
