<?xml version="1.0" encoding="utf-8"?>
<!-- Generator: Adobe Illustrator 19.1.0, SVG Export Plug-In . SVG Version: 6.00 Build 0)  -->
<svg version="1.1" id="Capa_1" xmlns="http://www.w3.org/2000/svg" xmlns:xlink="http://www.w3.org/1999/xlink" x="0px" y="0px"
	 viewBox="0 0 101 101" style="enable-background:new 0 0 101 101;" xml:space="preserve">
<style type="text/css">
	.st0{fill:#FFFFFF;}
	.st1{fill:#F6921E;}
	.st2{fill:#00A69C;}
	.st3{opacity:0.8;}
	.st4{clip-path:url(#SVGID_2_);}
	.st5{fill:#016458;}
	.st6{fill:#231F20;}
	.st7{fill:#9E1F63;}
	.st8{fill:#4F6E32;}
	.st9{fill:#618B3D;}
	.st10{fill:#008478;}
	.st11{fill:#7C1A52;}
	.st12{fill:#89BC40;}
	.st13{fill:#D91C5C;}
	.st14{clip-path:url(#SVGID_4_);}
	.st15{clip-path:url(#SVGID_6_);}
	.st16{clip-path:url(#SVGID_8_);}
	.st17{clip-path:url(#SVGID_10_);}
	.st18{opacity:0.8;fill:#FFFFFF;}
	.st19{opacity:0.6;fill:#FFFFFF;}
	.st20{clip-path:url(#SVGID_12_);}
	.st21{clip-path:url(#SVGID_14_);}
	.st22{clip-path:url(#SVGID_16_);}
	.st23{fill:none;}
	.st24{opacity:0.7;fill:#FFFFFF;}
	.st25{fill-rule:evenodd;clip-rule:evenodd;fill:#FFFFFF;}
	.st26{fill:#F15A29;}
	.st27{fill:#FBB040;}
	.st28{fill:#B3CF50;}
	.st29{fill:#17977F;}
	.st30{fill:#38D9C3;}
	.st31{fill:#1BAFA5;}
	.st32{fill:#287DAA;}
	.st33{clip-path:url(#SVGID_18_);}
	.st34{fill:#443C86;}
	.st35{fill:#92278F;}
	.st36{fill:#DA1C5C;}
	.st37{fill:#662D91;}
	.st38{fill:#ED1C24;}
</style>
<g id="zHiPcu_1_">
	<g>
		<path class="st0" d="M66.4,72.8c-1.7-0.2-4.4,0.9-5.6-0.4c-1-1.2-0.5-3.8-0.3-5.7c0.1-1.8-0.6-2.5-2.2-3.3c-3-1.6-4.7-0.9-6.7,1.5
			c-2.9,3.3-3.1,3.2-6.1,0.1c-1.6-1.6-3.2-3.2-4.8-4.8c-0.7-0.7-0.7-1.2,0-1.9c1.4-1.4,2.8-2.8,4.2-4.2c0.7-0.7,0.7-1.2,0.5-2.2
			c-0.9-4.5-3.8-4.9-7.6-4.6c-3.3,0.3-2.9,0.5-3-2.8c0-2.6,0.1-5.3,0-7.9c-0.1-1.5,0.5-1.9,1.8-1.8c0.6,0.1,1.1-0.1,1.7,0
			c3.6,0.7,6-0.4,6.9-4.3c0.2-1.1,0.5-1.7-0.4-2.6c-1.5-1.3-2.8-2.8-4.2-4.2c-0.7-0.6-0.7-1.1,0-1.7c2.4-2.3,4.8-4.7,7.1-7.1
			c0.7-0.8,1.2-0.7,1.9,0c1.4,1.4,2.8,2.8,4.2,4.2c0.8,0.8,1.4,0.6,2.4,0.4c4.2-0.8,4.9-3.4,4.5-7.2C60.2,9,60.5,9,63.8,9
			c2.5,0,5,0.1,7.4,0c1.3-0.1,1.8,0.4,1.7,1.7c-0.1,0.6,0.1,1.3,0,1.9c-0.7,3.6,0.3,6,4.3,6.9c1.2,0.3,1.9,0.5,2.7-0.5
			c1.3-1.4,2.7-2.7,4-4.1c0.7-0.8,1.2-0.7,1.9,0c2.3,2.4,4.6,4.7,6.9,6.9c0.8,0.8,0.7,1.4-0.1,2c-0.5,0.5-0.9,1.1-1.5,1.5
			c-3.3,2.1-3.8,4.8-1.7,8.1c0.5,0.8,0.9,1.3,1.9,1.3c1.9,0,3.8,0,5.7,0c1,0,1.6,0.2,1.6,1.4c-0.1,3.3-0.1,6.5,0,9.8
			c0,1.2-0.6,1.4-1.6,1.4c-1.9-0.1-3.8,0-5.7,0c-1,0-1.3,0.4-1.9,1.3c-2.1,3.4-1.3,5.7,1.7,8.1c2.8,2.2,2.6,2.5,0.1,4.9
			c-1.8,1.8-3.6,3.5-5.2,5.3c-0.8,0.9-1.4,0.8-2.2,0c-1.3-1.4-2.7-2.7-4-4.1c-0.8-0.8-1.4-0.6-2.4-0.4c-4.2,0.8-4.8,3.5-4.5,7.2
			c0.3,3.3,0.1,3.3-3.3,3.3C68.6,72.8,67.7,72.8,66.4,72.8z M81,40.9c0-7.9-6.5-14.3-14.4-14.2c-7.9,0.1-14.2,6.5-14.2,14.5
			c0,7.8,6.5,14.2,14.3,14.2C74.5,55.3,81,48.8,81,40.9z"/>
		<path class="st0" d="M8.9,65.7c-0.3-0.9-1.3-1.6-2.1-2.3c-1.3-1.1-1.4-1.9,0-2.9c0.3-0.2,0.6-0.6,0.9-0.9c2.8-2.8,2.9-2.9,5.7-0.1
			c1.1,1.1,1.9,0.3,2.8,0c0.9-0.3,1.6-0.6,1.6-1.8c0.1-4,0.2-4,4.2-4c3.2,0,3.2,0,3.2,3.1c0,1.4,0.4,2.1,1.8,2.9
			c2.2,1.1,3-0.4,4-1.6c1.1-1.2,1.9-1.4,2.9,0c0.2,0.2,0.4,0.4,0.6,0.6c1,1,2.5,1.9,2.8,3.1c0.3,1.3-1.6,2.1-2.5,3.1
			c-1.1,1.1-0.1,1.8,0.2,2.6c0.2,0.8,0.4,1.6,1.6,1.6c1.3,0,3-0.7,3.8,0.3c0.9,1,0.3,2.7,0.3,4.1c0,3.1,0,3.2-3,3
			c-1.8-0.1-2.3,0.7-3,2.1c-0.8,1.6,0.2,2.2,1,3c2.1,2.1,2.1,2.1,0.1,4.1c-0.1,0.1-0.2,0.2-0.3,0.3c-2.8,2.8-2.9,2.9-5.7,0.1
			c-1.1-1.1-1.9-0.2-2.8,0c-0.9,0.3-1.6,0.6-1.6,1.9c-0.1,3.9-0.2,3.9-4.2,3.9c-0.3,0-0.6,0-0.8,0c-1.9,0.3-2.5-0.4-2.4-2.3
			c0.1-1.2,0.7-2.7-1.3-3.5c-1.8-0.7-2.9-0.5-3.9,1c-1.2,1.7-2.4,2-3.7,0.1c-0.2-0.3-0.5-0.5-0.7-0.8c-2.6-2.6-2.7-2.7,0-5.4
			c0.7-0.7,1-1.3,0.4-2.2c-0.6-0.9-0.4-2.3-2.2-2.3c-3.9,0-3.9-0.1-3.9-4.1c0-3.4,0-3.4,3.3-3.4C7.4,69,8.8,67.7,8.9,65.7z
			 M21.6,81.3c4.7,0,8.5-3.8,8.6-8.4c0.1-4.7-3.8-8.7-8.6-8.7c-4.8,0-8.7,3.9-8.6,8.7C13.1,77.6,16.9,81.3,21.6,81.3z"/>
		<path class="st0" d="M75.9,41c0,5.2-4.2,9.3-9.3,9.2c-5.1-0.1-9.1-4.2-9.1-9.2c0-5.2,4.1-9.4,9.2-9.4C71.8,31.6,75.9,35.8,75.9,41
			z M70,41c0-1.9-1.5-3.4-3.3-3.4c-1.8,0-3.3,1.5-3.4,3.3c0,1.9,1.4,3.4,3.3,3.4C68.5,44.3,70,42.8,70,41z"/>
	</g>
</g>
</svg>
