<?xml version="1.0" encoding="utf-8"?>
<!-- Generator: Adobe Illustrator 19.1.0, SVG Export Plug-In . SVG Version: 6.00 Build 0)  -->
<svg version="1.1" id="Capa_1" xmlns="http://www.w3.org/2000/svg" xmlns:xlink="http://www.w3.org/1999/xlink" x="0px" y="0px"
	 viewBox="0 0 101 101" style="enable-background:new 0 0 101 101;" xml:space="preserve">
<style type="text/css">
	.st0{fill:#FFFFFF;}
	.st1{fill:#F6921E;}
	.st2{fill:#00A69C;}
	.st3{opacity:0.8;}
	.st4{clip-path:url(#SVGID_2_);}
	.st5{fill:#016458;}
	.st6{fill:#231F20;}
	.st7{fill:#9E1F63;}
	.st8{fill:#4F6E32;}
	.st9{fill:#618B3D;}
	.st10{fill:#008478;}
	.st11{fill:#7C1A52;}
	.st12{fill:#89BC40;}
	.st13{fill:#D91C5C;}
	.st14{clip-path:url(#SVGID_4_);}
	.st15{clip-path:url(#SVGID_6_);}
	.st16{clip-path:url(#SVGID_8_);}
	.st17{clip-path:url(#SVGID_10_);}
	.st18{opacity:0.8;fill:#FFFFFF;}
	.st19{opacity:0.6;fill:#FFFFFF;}
	.st20{clip-path:url(#SVGID_12_);}
	.st21{clip-path:url(#SVGID_14_);}
	.st22{clip-path:url(#SVGID_16_);}
	.st23{fill:none;}
	.st24{opacity:0.7;fill:#FFFFFF;}
	.st25{fill-rule:evenodd;clip-rule:evenodd;fill:#FFFFFF;}
	.st26{fill:#F15A29;}
	.st27{fill:#FBB040;}
	.st28{fill:#B3CF50;}
	.st29{fill:#17977F;}
	.st30{fill:#38D9C3;}
	.st31{fill:#1BAFA5;}
	.st32{fill:#287DAA;}
	.st33{clip-path:url(#SVGID_18_);}
	.st34{fill:#443C86;}
	.st35{fill:#92278F;}
	.st36{fill:#DA1C5C;}
	.st37{fill:#662D91;}
	.st38{fill:#ED1C24;}
</style>
<g>
	<path class="st0" d="M18.2,16.4c0,1.5,1.2,2.8,2.8,2.8h52.9v68.5c0,1.5,1.2,2.8,2.8,2.8c1.5,0,2.8-1.2,2.8-2.8V16.4
		c0-1.5-1.2-2.8-2.8-2.8H20.9C19.4,13.7,18.2,14.9,18.2,16.4L18.2,16.4z M18.2,16.4"/>
	<path class="st0" d="M89.6,0.9H19.5c-0.9,0-1.8,0.5-2.3,1.2l-8.1,12c-0.3,0.5-0.5,1-0.5,1.6l0,75.6c0,0.1,0,0.1,0,0.2v6
		c0,1.5,1.2,2.8,2.8,2.8h65.9c0.3,0,0.7-0.1,0.9-0.2c0.3-0.1,0.7-0.3,0.9-0.5l12.1-9.3c0.7-0.5,1.1-1.3,1.1-2.2V3.6
		C92.4,2.1,91.1,0.9,89.6,0.9L89.6,0.9z M86.9,86.7l-10.4,8H14.1v-3.4c0-0.1,0-0.1,0-0.2l0-74.5L21,6.4h65.9V86.7z M86.9,86.7"/>
	<path class="st0" d="M37.8,42.5c-0.2-0.6-0.8-1-1.4-1h-2.8c-0.6,0-1.2,0.4-1.4,1l-7.9,23.2c-0.2,0.5-0.1,1,0.2,1.4
		c0.3,0.4,0.7,0.6,1.2,0.6h1.7c0.6,0,1.2-0.4,1.4-1l2.2-6.7h7.7l2.3,6.8c0.2,0.6,0.8,1,1.4,1h1.8c0.5,0,0.9-0.2,1.2-0.6
		c0.3-0.4,0.4-0.9,0.2-1.4L37.8,42.5z M32.3,56l2.1-6.2l0,0c0.2-0.6,0.4-1.2,0.6-1.9c0.2,0.6,0.4,1.3,0.6,2l2.1,6.1H32.3z M32.3,56"
		/>
	<path class="st0" d="M58.1,48.1c-2.1,0-4,0.7-5.4,2V43c0-0.8-0.7-1.5-1.5-1.5h-1.7c-0.4,0-0.8,0.2-1.1,0.4C48.2,42.2,48,42.6,48,43
		l0,23.3c0,0.8,0.7,1.5,1.5,1.5h1.3c0.8,0,1.5-0.7,1.5-1.5c0,0,0,0,0-0.1c1.3,1.3,3.1,2,5.3,2c2.2,0,4.4-0.9,6-2.6
		c1.8-1.9,2.7-4.5,2.7-7.7c0-3.1-0.9-5.8-2.7-7.6C62.2,48.9,60.3,48.1,58.1,48.1L58.1,48.1z M60.8,63c-0.7,0.8-1.7,1.1-2.9,1.1
		c-1.2,0-2.1-0.3-2.7-1.1c-1.6-1.7-1.5-5.1-1.5-5.1c0,0,0,0,0-0.1c0-0.2,0.1-5.7,4.4-5.7c4.2,0,4.5,5.5,4.5,5.7
		C62.5,58.8,62.2,61.5,60.8,63L60.8,63z M60.8,63"/>
</g>
</svg>
