<?xml version="1.0" encoding="utf-8"?>
<!-- Generator: Adobe Illustrator 19.1.0, SVG Export Plug-In . SVG Version: 6.00 Build 0)  -->
<svg version="1.1" id="Capa_1" xmlns="http://www.w3.org/2000/svg" xmlns:xlink="http://www.w3.org/1999/xlink" x="0px" y="0px"
	 viewBox="0 0 101 101" style="enable-background:new 0 0 101 101;" xml:space="preserve">
<style type="text/css">
	.st0{fill:#FFFFFF;}
	.st1{fill:#F6921E;}
	.st2{fill:#00A69C;}
	.st3{opacity:0.8;}
	.st4{clip-path:url(#SVGID_2_);}
	.st5{fill:#016458;}
	.st6{fill:#231F20;}
	.st7{fill:#9E1F63;}
	.st8{fill:#4F6E32;}
	.st9{fill:#618B3D;}
	.st10{fill:#008478;}
	.st11{fill:#7C1A52;}
	.st12{fill:#89BC40;}
	.st13{fill:#D91C5C;}
	.st14{clip-path:url(#SVGID_4_);}
	.st15{clip-path:url(#SVGID_6_);}
	.st16{clip-path:url(#SVGID_8_);}
	.st17{clip-path:url(#SVGID_10_);}
	.st18{opacity:0.8;fill:#FFFFFF;}
	.st19{opacity:0.6;fill:#FFFFFF;}
	.st20{clip-path:url(#SVGID_12_);}
	.st21{clip-path:url(#SVGID_14_);}
	.st22{clip-path:url(#SVGID_16_);}
	.st23{fill:none;}
	.st24{opacity:0.7;fill:#FFFFFF;}
	.st25{fill-rule:evenodd;clip-rule:evenodd;fill:#FFFFFF;}
	.st26{fill:#F15A29;}
	.st27{fill:#FBB040;}
	.st28{fill:#B3CF50;}
	.st29{fill:#17977F;}
	.st30{fill:#38D9C3;}
	.st31{fill:#1BAFA5;}
	.st32{fill:#287DAA;}
	.st33{clip-path:url(#SVGID_18_);}
	.st34{fill:#443C86;}
	.st35{fill:#92278F;}
	.st36{fill:#DA1C5C;}
	.st37{fill:#662D91;}
	.st38{fill:#ED1C24;}
</style>
<circle class="st0" cx="50.5" cy="50.5" r="50.2"/>
<g>
	<path class="st31" d="M50.5,32.7L23.7,54.8c0,0,0,0.1,0,0.1c0,0.1,0,0.1,0,0.1v22.4c0,0.8,0.3,1.5,0.9,2.1c0.6,0.6,1.3,0.9,2.1,0.9
		h17.9V62.5h11.9v17.9h17.9c0.8,0,1.5-0.3,2.1-0.9c0.6-0.6,0.9-1.3,0.9-2.1V55c0-0.1,0-0.2,0-0.3L50.5,32.7z M50.5,32.7"/>
	<path class="st31" d="M87.6,49.7l-10.2-8.5v-19c0-0.4-0.1-0.8-0.4-1.1c-0.3-0.3-0.6-0.4-1.1-0.4h-9c-0.4,0-0.8,0.1-1.1,0.4
		c-0.3,0.3-0.4,0.6-0.4,1.1v9.1L54,21.8c-1-0.8-2.2-1.2-3.5-1.2c-1.4,0-2.6,0.4-3.5,1.2L13.4,49.7c-0.3,0.2-0.5,0.6-0.5,1
		c0,0.4,0.1,0.8,0.3,1.1l2.9,3.5c0.2,0.3,0.6,0.5,1,0.5c0.4,0,0.7-0.1,1.1-0.3l32.3-26.9l32.3,26.9c0.2,0.2,0.6,0.3,1,0.3h0.1
		c0.4-0.1,0.7-0.2,1-0.5l2.9-3.5c0.2-0.3,0.4-0.7,0.3-1.1C88.1,50.3,87.9,50,87.6,49.7L87.6,49.7z M87.6,49.7"/>
</g>
</svg>
