<?xml version="1.0" encoding="utf-8"?>
<!-- Generator: Adobe Illustrator 19.1.0, SVG Export Plug-In . SVG Version: 6.00 Build 0)  -->
<svg version="1.1" id="Capa_1" xmlns="http://www.w3.org/2000/svg" xmlns:xlink="http://www.w3.org/1999/xlink" x="0px" y="0px"
	 viewBox="0 0 101 101" style="enable-background:new 0 0 101 101;" xml:space="preserve">
<style type="text/css">
	.st0{fill:#FFFFFF;}
	.st1{fill:#F6921E;}
	.st2{fill:#00A69C;}
	.st3{opacity:0.8;}
	.st4{clip-path:url(#SVGID_2_);}
	.st5{fill:#016458;}
	.st6{fill:#231F20;}
	.st7{fill:#9E1F63;}
	.st8{fill:#4F6E32;}
	.st9{fill:#618B3D;}
	.st10{fill:#008478;}
	.st11{fill:#7C1A52;}
	.st12{fill:#89BC40;}
	.st13{fill:#D91C5C;}
	.st14{clip-path:url(#SVGID_4_);}
	.st15{clip-path:url(#SVGID_6_);}
	.st16{clip-path:url(#SVGID_8_);}
	.st17{clip-path:url(#SVGID_10_);}
	.st18{opacity:0.8;fill:#FFFFFF;}
	.st19{opacity:0.6;fill:#FFFFFF;}
	.st20{clip-path:url(#SVGID_12_);}
	.st21{clip-path:url(#SVGID_14_);}
	.st22{clip-path:url(#SVGID_16_);}
	.st23{fill:none;}
	.st24{opacity:0.7;fill:#FFFFFF;}
	.st25{fill-rule:evenodd;clip-rule:evenodd;fill:#FFFFFF;}
	.st26{fill:#F15A29;}
	.st27{fill:#FBB040;}
	.st28{fill:#B3CF50;}
	.st29{fill:#17977F;}
	.st30{fill:#38D9C3;}
	.st31{fill:#1BAFA5;}
	.st32{fill:#287DAA;}
	.st33{clip-path:url(#SVGID_18_);}
	.st34{fill:#443C86;}
	.st35{fill:#92278F;}
	.st36{fill:#DA1C5C;}
	.st37{fill:#662D91;}
	.st38{fill:#ED1C24;}
</style>
<g>
	<path class="st24" d="M19.3,59.3l-9.1-14.1c-0.9,0-2.2-0.1-3.8-0.2v14.2H0.1v-34c0.3,0,1.7-0.1,3.9-0.2c2.3-0.1,4.1-0.2,5.5-0.2
		c8.6,0,13,3.3,13,10c0,2-0.6,3.8-1.8,5.5c-1.2,1.7-2.7,2.8-4.5,3.5l10.1,15.3H19.3z M6.4,30.5V40c1.1,0.1,2,0.1,2.6,0.1
		c2.5,0,4.4-0.4,5.5-1.1c1.2-0.7,1.8-2.1,1.8-4.2c0-1.7-0.6-2.8-1.9-3.5c-1.3-0.7-3.2-1-5.9-1C7.8,30.4,7.1,30.5,6.4,30.5z"/>
	<path class="st0" d="M48.6,48.7H30.9c0.1,2,0.8,3.5,2,4.6c1.3,1.1,2.9,1.6,5.1,1.6c2.6,0,4.7-0.7,6-2.1l2.3,4.4
		c-2,1.7-5.1,2.5-9.2,2.5c-3.8,0-6.8-1.1-9-3.3c-2.2-2.2-3.3-5.3-3.3-9.3c0-3.9,1.2-7.1,3.6-9.5c2.4-2.4,5.3-3.6,8.7-3.6
		c3.6,0,6.5,1.1,8.7,3.2c2.2,2.2,3.3,4.9,3.3,8.2C49.1,46.1,49,47.2,48.6,48.7z M31.1,44.3h12.2c-0.4-3.6-2.4-5.5-6-5.5
		C33.9,38.8,31.9,40.7,31.1,44.3z"/>
	<path class="st24" d="M67.2,59.3v-1.5c-0.5,0.5-1.3,1-2.4,1.3c-1.1,0.4-2.3,0.6-3.4,0.6c-3.4,0-6-1.1-7.9-3.2
		c-1.9-2.1-2.9-5.1-2.9-8.9s1.1-6.9,3.3-9.3c2.2-2.4,5-3.6,8.3-3.6c1.8,0,3.5,0.4,5,1.1v-9.7l5.6-1.4v34.4H67.2z M67.2,41
		c-1.2-1-2.5-1.4-3.8-1.4c-2.2,0-4,0.7-5.2,2.1C57,43,56.4,45,56.4,47.5c0,5,2.4,7.5,7.2,7.5c0.5,0,1.2-0.2,2-0.5
		c0.8-0.3,1.3-0.6,1.5-1V41z"/>
	<g>
		<path class="st0" d="M6.9,68.8H5.5c0-1.5-0.6-2.2-1.8-2.2c-0.8,0-1.3,0.3-1.6,0.9c-0.3,0.6-0.5,1.7-0.5,3.2c0,1.6,0.2,2.7,0.5,3.4
			c0.3,0.6,0.8,0.9,1.6,0.9c0.8,0,1.4-0.4,1.7-1.2c0.1-0.4,0.2-0.8,0.2-1.5l1.5,0c0,0.9-0.2,1.7-0.5,2.3c-0.6,1.1-1.5,1.6-2.9,1.6
			C3,76.2,2.5,76,2,75.8c-0.5-0.2-0.9-0.6-1.1-1C0.3,73.9,0,72.5,0,70.7c0-1.7,0.3-3,0.8-3.9c0.6-0.9,1.5-1.4,2.8-1.4
			c1.3,0,2.2,0.5,2.8,1.5C6.7,67.4,6.9,68.1,6.9,68.8z"/>
		<path class="st0" d="M10,62v1.9H8.5V62H10z M10,65.6V76H8.5V65.6H10z"/>
		<path class="st0" d="M18.8,65.6V76h-1.4v-1.2c-0.3,0.4-0.6,0.7-0.8,0.9c-0.5,0.3-1.1,0.5-1.7,0.5c-0.8,0-1.5-0.3-2-0.8
			c-0.3-0.3-0.4-0.7-0.5-1c-0.1-0.4-0.1-1-0.1-1.6v-7h1.5v6.7c0,0.8,0,1.3,0.1,1.6c0.2,0.7,0.7,1,1.4,1c0.7,0,1.2-0.3,1.6-0.8
			c0.2-0.3,0.3-0.6,0.4-0.9c0.1-0.3,0.1-0.8,0.1-1.2v-6.4H18.8z"/>
		<path class="st0" d="M27.6,62v14h-1.4v-1.2c-0.5,0.9-1.3,1.4-2.3,1.4c-1,0-1.8-0.4-2.3-1.2c-0.6-1-0.9-2.4-0.9-4.2
			c0-1.7,0.3-3,0.8-3.9c0.3-0.5,0.7-0.8,1.2-1.1c0.4-0.2,0.8-0.3,1.3-0.3c0.8,0,1.6,0.4,2.2,1.1V62H27.6z M24.2,66.6
			c-0.3,0-0.6,0.1-0.9,0.3c-0.3,0.2-0.5,0.4-0.6,0.8c-0.3,0.7-0.4,1.7-0.4,3.1c0,1.4,0.1,2.4,0.4,3.1c0.3,0.7,0.8,1,1.6,1
			c0.7,0,1.2-0.3,1.6-1c0.3-0.7,0.5-1.7,0.5-3c0-1.4-0.1-2.5-0.5-3.1C25.5,67,24.9,66.6,24.2,66.6z"/>
		<path class="st0" d="M31.2,68.5h-1.4c0-0.9,0.2-1.7,0.6-2.2c0.5-0.6,1.4-0.9,2.6-0.9c1.1,0,1.9,0.2,2.4,0.7c0.3,0.3,0.5,0.6,0.6,1
			c0.1,0.4,0.1,0.8,0.1,1.3v4.9c0,0.8,0,1.2,0.1,1.4c0.1,0.2,0.3,0.3,0.5,0.3c0.1,0,0.2,0,0.3,0v1c-0.2,0-0.4,0.1-0.6,0.1
			c-0.9,0-1.5-0.5-1.7-1.4c-0.6,1-1.5,1.5-2.6,1.5c-0.8,0-1.5-0.3-2-0.8c-0.5-0.5-0.7-1.2-0.7-2c0-1,0.3-1.8,1-2.3
			c0.3-0.2,0.7-0.4,1.1-0.5c0.4-0.1,0.8-0.2,1.3-0.3c0.9-0.2,1.4-0.4,1.6-0.6c0.2-0.2,0.3-0.6,0.3-1.1c0-0.6-0.1-1-0.3-1.3
			c-0.3-0.4-0.8-0.6-1.5-0.6c-0.9,0-1.5,0.3-1.7,0.9C31.2,67.7,31.2,68,31.2,68.5z M34.8,70.6c-0.4,0.2-0.8,0.3-1.5,0.5
			c-0.9,0.3-1.4,0.5-1.7,0.6c-0.4,0.3-0.6,0.8-0.6,1.4c0,1.2,0.5,1.8,1.5,1.8c0.7,0,1.3-0.3,1.7-0.9c0.2-0.3,0.4-0.6,0.4-1
			c0.1-0.4,0.1-0.8,0.1-1.3V70.6z"/>
		<path class="st0" d="M45.3,62v14h-1.4v-1.2c-0.5,0.9-1.3,1.4-2.3,1.4c-1,0-1.8-0.4-2.3-1.2c-0.6-1-0.9-2.4-0.9-4.2
			c0-1.7,0.3-3,0.8-3.9c0.3-0.5,0.7-0.8,1.2-1.1c0.4-0.2,0.8-0.3,1.3-0.3c0.8,0,1.6,0.4,2.2,1.1V62H45.3z M41.8,66.6
			c-0.3,0-0.6,0.1-0.9,0.3c-0.3,0.2-0.5,0.4-0.6,0.8c-0.3,0.7-0.5,1.7-0.5,3.1c0,1.4,0.2,2.4,0.5,3.1c0.3,0.7,0.8,1,1.6,1
			c0.7,0,1.2-0.3,1.6-1c0.3-0.7,0.5-1.7,0.5-3c0-1.4-0.2-2.5-0.5-3.1C43.1,67,42.6,66.6,41.8,66.6z"/>
		<path class="st0" d="M48.9,68.5h-1.4c0-0.9,0.2-1.7,0.6-2.2c0.5-0.6,1.4-0.9,2.6-0.9c1.1,0,1.9,0.2,2.4,0.7c0.3,0.3,0.5,0.6,0.6,1
			c0.1,0.4,0.1,0.8,0.1,1.3v4.9c0,0.8,0,1.2,0.1,1.4c0.1,0.2,0.3,0.3,0.5,0.3c0.1,0,0.2,0,0.3,0v1c-0.2,0-0.4,0.1-0.6,0.1
			c-0.9,0-1.5-0.5-1.7-1.4c-0.7,1-1.5,1.5-2.6,1.5c-0.8,0-1.5-0.3-2-0.8c-0.5-0.5-0.7-1.2-0.7-2c0-1,0.3-1.8,1-2.3
			c0.3-0.2,0.7-0.4,1.1-0.5c0.4-0.1,0.8-0.2,1.3-0.3c0.9-0.2,1.4-0.4,1.6-0.6c0.2-0.2,0.3-0.6,0.3-1.1c0-0.6-0.1-1-0.3-1.3
			c-0.3-0.4-0.8-0.6-1.5-0.6c-0.9,0-1.5,0.3-1.7,0.9C48.9,67.7,48.9,68,48.9,68.5z M52.4,70.6c-0.4,0.2-0.8,0.3-1.5,0.5
			c-0.9,0.3-1.4,0.5-1.7,0.6c-0.4,0.3-0.6,0.8-0.6,1.4c0,1.2,0.5,1.8,1.5,1.8c0.7,0,1.3-0.3,1.7-0.9c0.2-0.3,0.4-0.6,0.4-1
			c0.1-0.4,0.1-0.8,0.1-1.3V70.6z"/>
		<path class="st0" d="M56.4,65.6h1.4v1.2c0.3-0.4,0.6-0.7,0.8-0.9c0.5-0.3,1.1-0.5,1.7-0.5c0.8,0,1.5,0.3,2,0.8
			c0.3,0.3,0.4,0.7,0.5,1c0.1,0.4,0.1,0.9,0.1,1.6v7h-1.5v-6.7c0-0.8,0-1.3-0.1-1.6c-0.2-0.7-0.7-1-1.4-1c-0.7,0-1.2,0.3-1.6,0.8
			C58.1,67.7,58,68,58,68.3c-0.1,0.3-0.1,0.8-0.1,1.2V76h-1.5V65.6z"/>
		<path class="st0" d="M66.5,68.5H65c0-0.9,0.2-1.7,0.6-2.2c0.5-0.6,1.4-0.9,2.6-0.9c1.1,0,1.9,0.2,2.4,0.7c0.3,0.3,0.5,0.6,0.6,1
			c0.1,0.4,0.1,0.8,0.1,1.3v4.9c0,0.8,0,1.2,0.1,1.4c0.1,0.2,0.3,0.3,0.5,0.3c0.1,0,0.2,0,0.3,0v1c-0.2,0-0.4,0.1-0.6,0.1
			c-0.9,0-1.5-0.5-1.7-1.4c-0.6,1-1.5,1.5-2.6,1.5c-0.8,0-1.5-0.3-2-0.8c-0.5-0.5-0.7-1.2-0.7-2c0-1,0.3-1.8,1-2.3
			c0.3-0.2,0.7-0.4,1.1-0.5c0.4-0.1,0.8-0.2,1.3-0.3c0.9-0.2,1.4-0.4,1.6-0.6c0.2-0.2,0.3-0.6,0.3-1.1c0-0.6-0.1-1-0.3-1.3
			c-0.3-0.4-0.8-0.6-1.5-0.6c-0.9,0-1.5,0.3-1.7,0.9C66.5,67.7,66.5,68,66.5,68.5z M70,70.6c-0.4,0.2-0.8,0.3-1.5,0.5
			c-0.9,0.3-1.4,0.5-1.7,0.6c-0.4,0.3-0.6,0.8-0.6,1.4c0,1.2,0.5,1.8,1.5,1.8c0.7,0,1.3-0.3,1.7-0.9c0.2-0.3,0.4-0.6,0.4-1
			c0.1-0.4,0.1-0.8,0.1-1.3V70.6z"/>
	</g>
	<g>
		<path class="st23" d="M80.2,70.4c0,2.2,1.8,4,4,4c2.2,0,4-1.8,4-4c0-1.4-0.7-2.6-1.8-3.4c-0.2-0.1-0.5-0.3-0.7-0.4
			c-0.5-0.2-1-0.3-1.5-0.3C82,66.3,80.2,68.1,80.2,70.4z M86.1,67.6c0.9,0.6,1.4,1.6,1.4,2.7c0,1.8-1.5,3.3-3.3,3.3
			c-1.8,0-3.3-1.5-3.3-3.3c0-1.8,1.5-3.3,3.3-3.3c0.4,0,0.8,0.1,1.1,0.2C85.6,67.4,85.9,67.5,86.1,67.6z"/>
		<path class="st24" d="M95.3,44.8c-0.7,0-1.4,0.1-2,0.4l-5.7-10c1.4-1,2.4-2.7,2.4-4.6c0-3.1-2.5-5.7-5.7-5.7
			c-3.1,0-5.7,2.5-5.7,5.7c0,3.1,2.5,5.7,5.7,5.7c0.9,0,1.8-0.2,2.6-0.6l5.7,10c-1.7,1-2.9,2.8-2.9,4.9h1.6c0-1.5,0.8-2.8,2.1-3.5
			c0.2-0.1,0.5-0.2,0.8-0.3c0.4-0.1,0.8-0.2,1.2-0.2c2.2,0,4,1.8,4,4h1.6C101,47.3,98.4,44.8,95.3,44.8z M84.3,34.5
			c-2.2,0-4-1.8-4-4s1.8-4,4-4c2.2,0,4,1.8,4,4c0,1.3-0.6,2.4-1.6,3.2c-0.2,0.2-0.4,0.3-0.7,0.4C85.5,34.4,84.9,34.5,84.3,34.5z"/>
		<path class="st0" d="M99.3,50.4c0,2.2-1.8,4-4,4c-0.5,0-1.1-0.1-1.5-0.3c-0.3-0.1-0.5-0.2-0.7-0.4c-1.1-0.7-1.8-2-1.8-3.4h-1.6
			c0,2,1.1,3.8,2.6,4.8l-5.7,10c-0.7-0.3-1.5-0.5-2.3-0.5c-3.1,0-5.7,2.5-5.7,5.7c0,3.1,2.5,5.7,5.7,5.7c3.1,0,5.7-2.5,5.7-5.7
			c0-2-1.1-3.8-2.7-4.8l5.7-10c0.7,0.3,1.5,0.5,2.3,0.5c3.1,0,5.7-2.5,5.7-5.7H99.3z M88.3,70.4c0,2.2-1.8,4-4,4c-2.2,0-4-1.8-4-4
			c0-2.2,1.8-4,4-4c0.5,0,1,0.1,1.5,0.3c0.3,0.1,0.5,0.2,0.7,0.4C87.6,67.7,88.3,68.9,88.3,70.4z"/>
		<path class="st0" d="M84.3,27.2c-1.8,0-3.3,1.5-3.3,3.3c0,1.8,1.5,3.3,3.3,3.3c0.5,0,1-0.1,1.4-0.3c0.2-0.1,0.5-0.3,0.7-0.4
			c0.7-0.6,1.2-1.5,1.2-2.5C87.5,28.7,86.1,27.2,84.3,27.2z"/>
		<path class="st24" d="M81,70.4c0,1.8,1.5,3.3,3.3,3.3c1.8,0,3.3-1.5,3.3-3.3c0-1.1-0.6-2.1-1.4-2.7c-0.2-0.2-0.5-0.3-0.7-0.4
			c-0.3-0.1-0.7-0.2-1.1-0.2C82.5,67.1,81,68.5,81,70.4z"/>
		<path class="st24" d="M95,50.4H92c0,1.1,0.6,2.1,1.4,2.7c0.2,0.2,0.5,0.3,0.7,0.4c0.4,0.1,0.7,0.2,1.1,0.2c1.8,0,3.3-1.5,3.3-3.3
			h-2.7H95z"/>
		<path class="st0" d="M95.3,47.2c-0.3,0-0.6,0-0.8,0.1c-0.3,0.1-0.5,0.2-0.8,0.3c-1,0.6-1.7,1.6-1.7,2.9H95h0.9h2.7
			C98.6,48.6,97.1,47.2,95.3,47.2z"/>
	</g>
	<path class="st0" d="M32.3,58.3c0,0,0.3,2.7-1.9,3.7c0,0,5.1-0.2,6.5-2.9C38.3,56.3,32.3,58.3,32.3,58.3z"/>
</g>
</svg>
