<?xml version="1.0" encoding="utf-8"?>
<!-- Generator: Adobe Illustrator 19.1.0, SVG Export Plug-In . SVG Version: 6.00 Build 0)  -->
<svg version="1.1" id="Capa_1" xmlns="http://www.w3.org/2000/svg" xmlns:xlink="http://www.w3.org/1999/xlink" x="0px" y="0px"
	 viewBox="0 0 101 101" style="enable-background:new 0 0 101 101;" xml:space="preserve">
<style type="text/css">
	.st0{fill:#FFFFFF;}
	.st1{fill:#F6921E;}
	.st2{fill:#00A69C;}
	.st3{opacity:0.8;}
	.st4{clip-path:url(#SVGID_2_);}
	.st5{fill:#016458;}
	.st6{fill:#231F20;}
	.st7{fill:#9E1F63;}
	.st8{fill:#4F6E32;}
	.st9{fill:#618B3D;}
	.st10{fill:#008478;}
	.st11{fill:#7C1A52;}
	.st12{fill:#89BC40;}
	.st13{fill:#D91C5C;}
	.st14{clip-path:url(#SVGID_4_);}
	.st15{clip-path:url(#SVGID_6_);}
	.st16{clip-path:url(#SVGID_8_);}
	.st17{clip-path:url(#SVGID_10_);}
	.st18{opacity:0.8;fill:#FFFFFF;}
	.st19{opacity:0.6;fill:#FFFFFF;}
	.st20{clip-path:url(#SVGID_12_);}
	.st21{clip-path:url(#SVGID_14_);}
	.st22{clip-path:url(#SVGID_16_);}
	.st23{fill:none;}
	.st24{opacity:0.7;fill:#FFFFFF;}
	.st25{fill-rule:evenodd;clip-rule:evenodd;fill:#FFFFFF;}
	.st26{fill:#F15A29;}
	.st27{fill:#FBB040;}
	.st28{fill:#B3CF50;}
	.st29{fill:#17977F;}
	.st30{fill:#38D9C3;}
	.st31{fill:#1BAFA5;}
	.st32{fill:#287DAA;}
	.st33{clip-path:url(#SVGID_18_);}
	.st34{fill:#443C86;}
	.st35{fill:#92278F;}
	.st36{fill:#DA1C5C;}
	.st37{fill:#662D91;}
	.st38{fill:#ED1C24;}
</style>
<circle class="st0" cx="50.5" cy="50.5" r="50.2"/>
<g>
	<path class="st28" d="M42.1,31.1c-1.1,0-2.1-0.3-3-0.8c0,0.1,0,0.2,0,0.2c0,3,2.4,5.4,5.4,5.4c3,0,5.4-2.4,5.4-5.4
		c0-0.1,0-0.2,0-0.2c-0.9,0.5-1.9,0.8-3,0.8H42.1z M42.1,31.1"/>
	<path class="st28" d="M51.1,56.6H38c0,0,0-0.2,0,21c0,1.5,1.2,2.8,2.8,2.8c1.5,0,2.8-1.2,2.8-2.8V61.2h2v16.5
		c0,1.5,1.2,2.8,2.8,2.8c1.5,0,2.8-1.2,2.8-2.8C51.1,52.8,51.1,58.6,51.1,56.6L51.1,56.6z M51.1,56.6"/>
	<path class="st28" d="M37.7,24.6h13.6l0.8-1c0.2-0.3,0.2-0.7,0.1-1C52,22.2,51.7,22,51.3,22H37.8c-0.4,0-0.7,0.2-0.9,0.5
		c-0.2,0.3-0.1,0.7,0.1,1L37.7,24.6z M37.7,24.6"/>
	<path class="st28" d="M50.7,26.6H38.4c0.6,1.5,2,2.6,3.7,2.6H47C48.7,29.2,50.1,28.1,50.7,26.6L50.7,26.6z M50.7,26.6"/>
	<path class="st28" d="M70.7,28.1l-2-5.3c-0.3-0.7-0.9-1.2-1.6-1.3l-5.5-0.9c-0.7-0.1-1.5,0.2-2,0.7l-3.6,4.3
		c-0.5,0.6-0.6,1.4-0.3,2.1l2,5.3c0.3,0.7,0.9,1.2,1.6,1.3l1.3,0.2l-1.5,9.1l-3.5,1.3L51.1,38c-0.5-0.8-1.4-1-2.4-1h-8.5
		c-1,0-1.9,0.4-2.3,1.3l-7.7,16.8c-0.5,1.2,0,2.5,1.1,3.1c1.2,0.5,2.5,0,3.1-1.1l3.5-7.7v5.3h13.1v-8.3l1.7,2.6c0.4,0.7,1.2,1,1.9,1
		c0.6,0,3.7-1.2,4.3-1.4c0.3,0.3,0.6,0.4,1,0.4c0.7,0,1.3-0.5,1.4-1.2l0,0l0.5-0.2c1.2-0.4,1.8-1.8,1.4-3c-0.2-0.6-0.6-1-1.1-1.2
		l1.4-8.4l1.3,0.2c0.7,0.1,1.5-0.2,2-0.7l3.6-4.3C70.9,29.6,71,28.8,70.7,28.1L70.7,28.1z M47.3,45.8c-1,0-1.9-2.8-1.9-3.8
		c0-1,3.7-1,3.7,0C49.2,43,48.4,45.8,47.3,45.8L47.3,45.8z M47.3,45.8"/>
</g>
</svg>
