<?xml version="1.0" encoding="utf-8"?>
<!-- Generator: Adobe Illustrator 19.1.0, SVG Export Plug-In . SVG Version: 6.00 Build 0)  -->
<svg version="1.1" id="Capa_1" xmlns="http://www.w3.org/2000/svg" xmlns:xlink="http://www.w3.org/1999/xlink" x="0px" y="0px"
	 viewBox="0 0 101 101" style="enable-background:new 0 0 101 101;" xml:space="preserve">
<style type="text/css">
	.st0{fill:#FFFFFF;}
	.st1{fill:#F6921E;}
	.st2{fill:#00A69C;}
	.st3{opacity:0.8;}
	.st4{clip-path:url(#SVGID_2_);}
	.st5{fill:#016458;}
	.st6{fill:#231F20;}
	.st7{fill:#9E1F63;}
	.st8{fill:#4F6E32;}
	.st9{fill:#618B3D;}
	.st10{fill:#008478;}
	.st11{fill:#7C1A52;}
	.st12{fill:#89BC40;}
	.st13{fill:#D91C5C;}
	.st14{clip-path:url(#SVGID_4_);}
	.st15{clip-path:url(#SVGID_6_);}
	.st16{clip-path:url(#SVGID_8_);}
	.st17{clip-path:url(#SVGID_10_);}
	.st18{opacity:0.8;fill:#FFFFFF;}
	.st19{opacity:0.6;fill:#FFFFFF;}
	.st20{clip-path:url(#SVGID_12_);}
	.st21{clip-path:url(#SVGID_14_);}
	.st22{clip-path:url(#SVGID_16_);}
	.st23{fill:none;}
	.st24{opacity:0.7;fill:#FFFFFF;}
	.st25{fill-rule:evenodd;clip-rule:evenodd;fill:#FFFFFF;}
	.st26{fill:#F15A29;}
	.st27{fill:#FBB040;}
	.st28{fill:#B3CF50;}
	.st29{fill:#17977F;}
	.st30{fill:#38D9C3;}
	.st31{fill:#1BAFA5;}
	.st32{fill:#287DAA;}
	.st33{clip-path:url(#SVGID_18_);}
	.st34{fill:#443C86;}
	.st35{fill:#92278F;}
	.st36{fill:#DA1C5C;}
	.st37{fill:#662D91;}
	.st38{fill:#ED1C24;}
</style>
<circle class="st35" cx="51.3" cy="50.5" r="50.2"/>
<g>
	<path class="st0" d="M84.3,44.1v-4.5L84,38.4c-0.1-0.2-1.6-2.7-4.6-5.4c-2.3-2-5.5-4.1-9.5-5v-8.2C52,21.1,50.1,35.2,50.1,35.2v0.1
		c0,0,0,0-0.1,0c-0.6-0.7-1.4-1.6-2.3-2.4c-3-2.6-7.5-5.4-13.6-5.4c-6.1,0-10.6,2.8-13.5,5.4c-2.9,2.7-4.3,5.3-4.4,5.4l-0.3,1.2v4.5
		h-2.2v37.1h73.7V44.1H84.3z M26.8,73.6c2-1.2,4.4-2,7.3-2c2.9,0,5.3,0.8,7.3,2H26.8z M47.6,71.9c-3-2.6-7.5-5.3-13.5-5.3h0
		c-5.9,0-10.3,2.6-13.2,5.2V40.3c0.5-0.8,1.6-2.3,3.3-3.8c2.3-2,5.6-3.9,9.9-3.9c4.5,0,7.9,2,10.3,4.1c1.2,1.1,2.1,2.1,2.7,2.9
		c0.2,0.3,0.4,0.5,0.5,0.7V71.9z M65.8,24.2v37.4c0,0-6.7-1.2-13.2,4.6V37.3C52.7,37.3,55.1,26.3,65.8,24.2L65.8,24.2z M58.6,73.6
		c2-1.2,4.4-2,7.3-2c2.9,0,5.3,0.8,7.3,2H58.6z M79.3,71.9c-3-2.6-7.5-5.3-13.5-5.3c-5.9,0-10.3,2.6-13.2,5.2v-0.2
		C58.2,64,69.9,66,69.9,66V33.2c2.5,0.8,4.6,2.1,6.2,3.6c1.2,1.1,2.1,2.1,2.7,2.9c0.2,0.3,0.4,0.5,0.5,0.7V71.9z M79.3,71.9"/>
</g>
</svg>
