<?xml version="1.0" encoding="utf-8"?>
<!-- Generator: Adobe Illustrator 19.1.0, SVG Export Plug-In . SVG Version: 6.00 Build 0)  -->
<svg version="1.1" id="Capa_1" xmlns="http://www.w3.org/2000/svg" xmlns:xlink="http://www.w3.org/1999/xlink" x="0px" y="0px"
	 viewBox="0 0 101 101" style="enable-background:new 0 0 101 101;" xml:space="preserve">
<style type="text/css">
	.st0{fill:#FFFFFF;}
	.st1{fill:#F6921E;}
	.st2{fill:#00A69C;}
	.st3{opacity:0.8;}
	.st4{clip-path:url(#SVGID_2_);}
	.st5{fill:#016458;}
	.st6{fill:#231F20;}
	.st7{fill:#9E1F63;}
	.st8{fill:#4F6E32;}
	.st9{fill:#618B3D;}
	.st10{fill:#008478;}
	.st11{fill:#7C1A52;}
	.st12{fill:#89BC40;}
	.st13{fill:#D91C5C;}
	.st14{clip-path:url(#SVGID_4_);}
	.st15{clip-path:url(#SVGID_6_);}
	.st16{clip-path:url(#SVGID_8_);}
	.st17{clip-path:url(#SVGID_10_);}
	.st18{opacity:0.8;fill:#FFFFFF;}
	.st19{opacity:0.6;fill:#FFFFFF;}
	.st20{clip-path:url(#SVGID_12_);}
	.st21{clip-path:url(#SVGID_14_);}
	.st22{clip-path:url(#SVGID_16_);}
	.st23{fill:none;}
	.st24{opacity:0.7;fill:#FFFFFF;}
	.st25{fill-rule:evenodd;clip-rule:evenodd;fill:#FFFFFF;}
	.st26{fill:#F15A29;}
	.st27{fill:#FBB040;}
	.st28{fill:#B3CF50;}
	.st29{fill:#17977F;}
	.st30{fill:#38D9C3;}
	.st31{fill:#1BAFA5;}
	.st32{fill:#287DAA;}
	.st33{clip-path:url(#SVGID_18_);}
	.st34{fill:#443C86;}
	.st35{fill:#92278F;}
	.st36{fill:#DA1C5C;}
	.st37{fill:#662D91;}
	.st38{fill:#ED1C24;}
</style>
<g>
	<circle class="st29" cx="50.5" cy="50.5" r="50.2"/>
	<rect x="23.3" y="20.4" class="st23" width="54.3" height="60.2"/>
	<g>
		<path class="st0" d="M24.7,55.1h2.7v13.7c0,6.6,5.3,11.9,11.9,11.9h13.1c0,0-10-2.3-10-11.9V55.1h2.7c1.2,0,1.8-1.5,1-2.3
			L35.9,42.5c-0.5-0.5-1.4-0.5-1.9,0L23.8,52.7C22.9,53.6,23.5,55.1,24.7,55.1L24.7,55.1z M24.7,55.1"/>
		<g>
			<path class="st0" d="M73.7,80.9c-1.5-0.6-3.3-1.8-5.3-3.6s-3.7-3.6-4.9-5.5h-1c-2.8,0-5.2-0.4-7.1-1.1c-2-0.7-3.5-1.8-4.7-3.3
				c-1.2-1.5-2-3.2-2.5-5.2c-0.5-2-0.8-4.3-0.8-7V36.6c0-2.7,0.3-5,0.8-7c0.5-2,1.4-3.7,2.5-5.1c1.2-1.5,2.7-2.5,4.7-3.3
				c2-0.7,4.3-1.1,7.1-1.1c5.4,0,9.3,1.4,11.7,4.2c2.3,2.8,3.5,6.9,3.5,12.3v18.5c0,7.5-2.2,12.4-6.6,14.8c2,2.2,3.6,3.6,5,4.3
				L73.7,80.9z M60.7,63.5c0.5,0.2,1,0.4,1.7,0.4c0.7,0,1.2-0.1,1.7-0.3c0.5-0.2,0.9-0.5,1.1-0.9c0.3-0.4,0.5-0.8,0.6-1.4
				s0.2-1.1,0.3-1.6c0-0.5,0.1-1.1,0.1-1.8v-24c0-0.7,0-1.2-0.1-1.7c0-0.5-0.1-1-0.3-1.6c-0.2-0.6-0.4-1-0.6-1.3
				c-0.3-0.3-0.6-0.6-1.1-0.9c-0.5-0.2-1.1-0.3-1.7-0.3c-0.7,0-1.2,0.1-1.7,0.3c-0.5,0.2-0.8,0.5-1.1,0.8c-0.3,0.3-0.5,0.8-0.6,1.4
				s-0.2,1.1-0.3,1.6s0,1,0,1.8v24c0,0.7,0,1.3,0,1.8c0,0.5,0.1,1,0.3,1.6s0.3,1,0.6,1.4C59.9,63,60.3,63.2,60.7,63.5z"/>
		</g>
	</g>
</g>
</svg>
