<?xml version="1.0" encoding="utf-8"?>
<!-- Generator: Adobe Illustrator 19.1.0, SVG Export Plug-In . SVG Version: 6.00 Build 0)  -->
<svg version="1.1" id="Capa_1" xmlns="http://www.w3.org/2000/svg" xmlns:xlink="http://www.w3.org/1999/xlink" x="0px" y="0px"
	 viewBox="0 0 101 101" style="enable-background:new 0 0 101 101;" xml:space="preserve">
<style type="text/css">
	.st0{fill:#FFFFFF;}
	.st1{fill:#F6921E;}
	.st2{fill:#00A69C;}
	.st3{opacity:0.8;}
	.st4{clip-path:url(#SVGID_2_);}
	.st5{fill:#016458;}
	.st6{fill:#231F20;}
	.st7{fill:#9E1F63;}
	.st8{fill:#4F6E32;}
	.st9{fill:#618B3D;}
	.st10{fill:#008478;}
	.st11{fill:#7C1A52;}
	.st12{fill:#89BC40;}
	.st13{fill:#D91C5C;}
	.st14{clip-path:url(#SVGID_4_);}
	.st15{clip-path:url(#SVGID_6_);}
	.st16{clip-path:url(#SVGID_8_);}
	.st17{clip-path:url(#SVGID_10_);}
	.st18{opacity:0.8;fill:#FFFFFF;}
	.st19{opacity:0.6;fill:#FFFFFF;}
	.st20{clip-path:url(#SVGID_12_);}
	.st21{clip-path:url(#SVGID_14_);}
	.st22{clip-path:url(#SVGID_16_);}
	.st23{fill:none;}
	.st24{opacity:0.7;fill:#FFFFFF;}
	.st25{fill-rule:evenodd;clip-rule:evenodd;fill:#FFFFFF;}
	.st26{fill:#F15A29;}
	.st27{fill:#FBB040;}
	.st28{fill:#B3CF50;}
	.st29{fill:#17977F;}
	.st30{fill:#38D9C3;}
	.st31{fill:#1BAFA5;}
	.st32{fill:#287DAA;}
	.st33{clip-path:url(#SVGID_18_);}
	.st34{fill:#443C86;}
	.st35{fill:#92278F;}
	.st36{fill:#DA1C5C;}
	.st37{fill:#662D91;}
	.st38{fill:#ED1C24;}
</style>
<g>
	<path class="st0" d="M94.1,13.1H6.9c-3.4,0-6.2,2.8-6.2,6.2v62.2c0,3.4,2.8,6.2,6.2,6.2h87.1c3.4,0,6.2-2.8,6.2-6.2V19.4
		C100.3,15.9,97.5,13.1,94.1,13.1L94.1,13.1z M6.9,37.1l23.9,16.3L6.9,77.2V37.1z M11.3,81.6L36,56.9l14.5,9.8l14.4-9.9l24.8,24.8
		H11.3z M94.1,77.2l-24-24l24-16.5V77.2z M94.1,29.4l-0.1-0.2L50.5,59.2L6.9,29.6V19.4h87.1V29.4z M94.1,29.4"/>
</g>
</svg>
