<?xml version="1.0" encoding="utf-8"?>
<!-- Generator: Adobe Illustrator 19.1.0, SVG Export Plug-In . SVG Version: 6.00 Build 0)  -->
<svg version="1.1" id="Capa_1" xmlns="http://www.w3.org/2000/svg" xmlns:xlink="http://www.w3.org/1999/xlink" x="0px" y="0px"
	 viewBox="0 0 101 101" style="enable-background:new 0 0 101 101;" xml:space="preserve">
<style type="text/css">
	.st0{fill:#FFFFFF;}
	.st1{fill:#F6921E;}
	.st2{fill:#00A69C;}
	.st3{opacity:0.8;}
	.st4{clip-path:url(#SVGID_2_);}
	.st5{fill:#016458;}
	.st6{fill:#231F20;}
	.st7{fill:#9E1F63;}
	.st8{fill:#4F6E32;}
	.st9{fill:#618B3D;}
	.st10{fill:#008478;}
	.st11{fill:#7C1A52;}
	.st12{fill:#89BC40;}
	.st13{fill:#D91C5C;}
	.st14{clip-path:url(#SVGID_4_);}
	.st15{clip-path:url(#SVGID_6_);}
	.st16{clip-path:url(#SVGID_8_);}
	.st17{clip-path:url(#SVGID_10_);}
	.st18{opacity:0.8;fill:#FFFFFF;}
	.st19{opacity:0.6;fill:#FFFFFF;}
	.st20{clip-path:url(#SVGID_12_);}
	.st21{clip-path:url(#SVGID_14_);}
	.st22{clip-path:url(#SVGID_16_);}
	.st23{fill:none;}
	.st24{opacity:0.7;fill:#FFFFFF;}
	.st25{fill-rule:evenodd;clip-rule:evenodd;fill:#FFFFFF;}
	.st26{fill:#F15A29;}
	.st27{fill:#FBB040;}
	.st28{fill:#B3CF50;}
	.st29{fill:#17977F;}
	.st30{fill:#38D9C3;}
	.st31{fill:#1BAFA5;}
	.st32{fill:#287DAA;}
	.st33{clip-path:url(#SVGID_18_);}
	.st34{fill:#443C86;}
	.st35{fill:#92278F;}
	.st36{fill:#DA1C5C;}
	.st37{fill:#662D91;}
	.st38{fill:#ED1C24;}
</style>
<circle class="st26" cx="50.1" cy="50.2" r="50.2"/>
<g>
	<path class="st0" d="M60.1,61.5c1.7,0.7,3.1,1.4,4.5,1.9c1.7,0.6,2.7,1.6,3,3.6c0.4,3.4,1.1,6.8,1.7,10.1c0.3,1.7-0.3,2.9-1.9,3.3
		c-1.7,0.4-2.6-0.7-2.9-2.3c-0.5-2.7-1-5.4-1.4-8.2c-0.2-1.5-0.8-2.2-2.2-2.7c-1.8-0.6-3.5-1.5-5.3-2.2c-3.9-1.6-4.4-3.2-2.4-7
		c1.4-2.6,2.9-5.2,4.5-8c-3.1-0.5-5.6-0.7-7.8,1.5c-0.9,0.9-2,1.9-3.2,2.3c-0.7,0.3-2.1,0-2.6-0.5c-0.5-0.5-0.6-2-0.1-2.6
		c3.8-5.8,13.9-7.7,19.4-3.8c2.4,1.6,2.9,3.5,1.5,6.1C63.5,55.8,61.9,58.5,60.1,61.5z"/>
	<path class="st0" d="M40.7,50.4c0,1.2,0,2.3,0,3.3c-9.1-1.6-14.9-11-12.7-20.4c2.1-9.2,12-14.9,21.2-12.2
		c9.1,2.7,14.3,12.4,11.3,21.1c-1,0-2.1,0-3.4,0c1.3-4.7,0.9-9.1-2-12.9c-2-2.6-4.6-4.4-7.9-5c-6.9-1.4-13.5,2.5-15.6,9.2
		C29.4,40.5,32.9,47,40.7,50.4z"/>
	<path class="st0" d="M50.7,65.7c1.4,0.8,2.7,1.5,4,2.3c-0.7,3.9-2,7.3-6.1,8.9c-1.7,0.7-3.2,1.8-4.7,2.8c-1.6,1-3,1.2-4-0.6
		c-1-1.8,0.2-2.8,1.5-3.6c1.4-0.9,2.8-1.9,4.3-2.6c2.3-1.1,3.7-2.7,4.2-5.2C50.1,67.1,50.5,66.4,50.7,65.7z"/>
	<path class="st0" d="M68.7,36.5c2.5,0.1,4.8,2.3,4.8,4.9c0,2.6-2.4,5-5,4.9c-2.6-0.1-4.8-2.4-4.8-4.9C63.7,38.8,66,36.5,68.7,36.5z
		"/>
	<g>
		<path class="st0" d="M47.6,45c-0.4-0.2-0.9-0.5-1.5-1c-0.6-0.5-1-1-1.4-1.5h-0.3c-0.8,0-1.4-0.1-2-0.3s-1-0.5-1.3-0.9
			c-0.3-0.4-0.6-0.9-0.7-1.4c-0.1-0.6-0.2-1.2-0.2-1.9v-5.2c0-0.8,0.1-1.4,0.2-2c0.1-0.5,0.4-1,0.7-1.4c0.3-0.4,0.8-0.7,1.3-0.9
			s1.2-0.3,2-0.3c1.5,0,2.6,0.4,3.3,1.2c0.7,0.8,1,1.9,1,3.4v5.2c0,2.1-0.6,3.5-1.8,4.1c0.6,0.6,1,1,1.4,1.2L47.6,45z M43.9,40.2
			c0.1,0.1,0.3,0.1,0.5,0.1s0.3,0,0.5-0.1c0.1-0.1,0.2-0.1,0.3-0.2c0.1-0.1,0.1-0.2,0.2-0.4c0-0.2,0.1-0.3,0.1-0.4
			c0-0.1,0-0.3,0-0.5v-6.7c0-0.2,0-0.3,0-0.5c0-0.1,0-0.3-0.1-0.4c0-0.2-0.1-0.3-0.2-0.4c-0.1-0.1-0.2-0.2-0.3-0.2s-0.3-0.1-0.5-0.1
			s-0.3,0-0.5,0.1c-0.1,0.1-0.2,0.1-0.3,0.2s-0.1,0.2-0.2,0.4c0,0.2-0.1,0.3-0.1,0.4s0,0.3,0,0.5v6.7c0,0.2,0,0.4,0,0.5
			c0,0.1,0,0.3,0.1,0.4c0,0.2,0.1,0.3,0.2,0.4S43.8,40.1,43.9,40.2z"/>
	</g>
</g>
</svg>
