<?xml version="1.0" encoding="utf-8"?>
<!-- Generator: Adobe Illustrator 19.1.0, SVG Export Plug-In . SVG Version: 6.00 Build 0)  -->
<svg version="1.1" id="Capa_1" xmlns="http://www.w3.org/2000/svg" xmlns:xlink="http://www.w3.org/1999/xlink" x="0px" y="0px"
	 viewBox="0 0 101 101" style="enable-background:new 0 0 101 101;" xml:space="preserve">
<style type="text/css">
	.st0{fill:#FFFFFF;}
	.st1{fill:#F6921E;}
	.st2{fill:#00A69C;}
	.st3{opacity:0.8;}
	.st4{clip-path:url(#SVGID_2_);}
	.st5{fill:#016458;}
	.st6{fill:#231F20;}
	.st7{fill:#9E1F63;}
	.st8{fill:#4F6E32;}
	.st9{fill:#618B3D;}
	.st10{fill:#008478;}
	.st11{fill:#7C1A52;}
	.st12{fill:#89BC40;}
	.st13{fill:#D91C5C;}
	.st14{clip-path:url(#SVGID_4_);}
	.st15{clip-path:url(#SVGID_6_);}
	.st16{clip-path:url(#SVGID_8_);}
	.st17{clip-path:url(#SVGID_10_);}
	.st18{opacity:0.8;fill:#FFFFFF;}
	.st19{opacity:0.6;fill:#FFFFFF;}
	.st20{clip-path:url(#SVGID_12_);}
	.st21{clip-path:url(#SVGID_14_);}
	.st22{clip-path:url(#SVGID_16_);}
	.st23{fill:none;}
	.st24{opacity:0.7;fill:#FFFFFF;}
	.st25{fill-rule:evenodd;clip-rule:evenodd;fill:#FFFFFF;}
	.st26{fill:#F15A29;}
	.st27{fill:#FBB040;}
	.st28{fill:#B3CF50;}
	.st29{fill:#17977F;}
	.st30{fill:#38D9C3;}
	.st31{fill:#1BAFA5;}
	.st32{fill:#287DAA;}
	.st33{clip-path:url(#SVGID_18_);}
	.st34{fill:#443C86;}
	.st35{fill:#92278F;}
	.st36{fill:#DA1C5C;}
	.st37{fill:#662D91;}
	.st38{fill:#ED1C24;}
</style>
<circle class="st26" cx="50.5" cy="50.5" r="50.2"/>
<path class="st0" d="M86.8,72.2l-2.6-15.9c-0.1-0.6-0.4-1.1-0.9-1.4c-0.5-0.3-1-0.5-1.6-0.4L78.7,55c0.2-1.5,0.4-3,0.4-4.5
	c0-7.7-3-15-8.5-20.4c-5.7-5.7-12.4-8.5-20.4-8.5c-0.2,0-0.5,0-0.7,0c-2.9-0.8-5.8-1.3-8.6-1.3c-9.8,0-16.6,5.1-20,8.6l-3.4-2.4
	c-0.4-0.3-0.8-0.4-1.2-0.4c-0.4,0-0.8,0.1-1.1,0.3c-0.7,0.5-1.1,1.3-1,2.2l2.7,16c0.2,1,1.1,1.8,2.1,1.8c0.1,0,0.2,0,0.4,0l2.4-0.4
	c-0.2,1.4-0.3,2.9-0.3,4.4c0,7.7,3,15,8.4,20.4c5.5,5.5,12.7,8.5,20.4,8.5c0.4,0,0.7,0,1.1,0c3,0.9,5.9,1.3,8.7,1.3
	c9.8,0,16.6-5.1,20-8.6l3.4,2.4c0.4,0.3,0.8,0.4,1.2,0.4l0,0l0.1,0c1.2,0,2.1-1,2.1-2.1C86.8,72.5,86.8,72.3,86.8,72.2L86.8,72.2z
	 M50.2,75.1c-6.6,0-12.7-2.6-17.4-7.2c-6.1-6.1-8.3-14.6-6.6-22.5l9.2-1.5c0.9-0.1,1.5-0.8,1.7-1.6c0.2-0.8-0.1-1.7-0.8-2.2l-4-2.9
	c1.7-3.6,5.2-8.8,12.4-10.6c1.8-0.4,3.7-0.6,5.6-0.6c6.6,0,12.7,2.6,17.4,7.2c6.1,6.1,8.3,14.7,6.6,22.7l-8.6,1.4
	c-0.9,0.1-1.5,0.8-1.7,1.6c-0.2,0.8,0.1,1.7,0.8,2.2l4,2.9c-1.2,2.7-3.5,6.2-7.6,8.6C57.8,74.2,54.1,75.1,50.2,75.1L50.2,75.1z
	 M50.2,75.1"/>
</svg>
