<?xml version="1.0" encoding="utf-8"?>
<!-- Generator: Adobe Illustrator 19.1.0, SVG Export Plug-In . SVG Version: 6.00 Build 0)  -->
<svg version="1.1" id="Capa_1" xmlns="http://www.w3.org/2000/svg" xmlns:xlink="http://www.w3.org/1999/xlink" x="0px" y="0px"
	 viewBox="0 0 101 101" style="enable-background:new 0 0 101 101;" xml:space="preserve">
<style type="text/css">
	.st0{fill:#FFFFFF;}
	.st1{fill:#F6921E;}
	.st2{fill:#00A69C;}
	.st3{opacity:0.8;}
	.st4{clip-path:url(#SVGID_2_);}
	.st5{fill:#016458;}
	.st6{fill:#231F20;}
	.st7{fill:#9E1F63;}
	.st8{fill:#4F6E32;}
	.st9{fill:#618B3D;}
	.st10{fill:#008478;}
	.st11{fill:#7C1A52;}
	.st12{fill:#89BC40;}
	.st13{fill:#D91C5C;}
	.st14{clip-path:url(#SVGID_4_);}
	.st15{clip-path:url(#SVGID_6_);}
	.st16{clip-path:url(#SVGID_8_);}
	.st17{clip-path:url(#SVGID_10_);}
	.st18{opacity:0.8;fill:#FFFFFF;}
	.st19{opacity:0.6;fill:#FFFFFF;}
	.st20{clip-path:url(#SVGID_12_);}
	.st21{clip-path:url(#SVGID_14_);}
	.st22{clip-path:url(#SVGID_16_);}
	.st23{fill:none;}
	.st24{opacity:0.7;fill:#FFFFFF;}
	.st25{fill-rule:evenodd;clip-rule:evenodd;fill:#FFFFFF;}
	.st26{fill:#F15A29;}
	.st27{fill:#FBB040;}
	.st28{fill:#B3CF50;}
	.st29{fill:#17977F;}
	.st30{fill:#38D9C3;}
	.st31{fill:#1BAFA5;}
	.st32{fill:#287DAA;}
	.st33{clip-path:url(#SVGID_18_);}
	.st34{fill:#443C86;}
	.st35{fill:#92278F;}
	.st36{fill:#DA1C5C;}
	.st37{fill:#662D91;}
	.st38{fill:#ED1C24;}
</style>
<circle class="st0" cx="50.5" cy="50.5" r="50.2"/>
<path class="st27" d="M71.1,35.3C72.6,62,50.5,74.6,50.5,74.6v0.2c0,0-22.1-12.6-20.6-39.3c11.6-2.3,20.6-9.1,20.6-9.1l0.2-0.2
	C50.7,26.2,59.4,33,71.1,35.3L71.1,35.3z M51.1,79.8c0,0-0.1,0-0.1,0.1c-0.2,0.1-0.4,0.1-0.5,0.1c-0.2,0-0.4,0-0.5-0.1
	c-0.3-0.2-6.7-3.9-13-11.5c-5.8-7.1-12.5-19-11.6-35.4c0-0.5,0.4-0.9,0.8-1c13.1-2.6,23.2-10.1,23.6-10.4c0,0,0,0,0.1,0l0.3-0.2
	c0.4-0.3,0.9-0.2,1.2,0c0.1,0.1,10.2,7.8,23.4,10.4c0.5,0.1,0.8,0.5,0.9,1C77.4,63.9,53.2,78.6,51.1,79.8L51.1,79.8z M73.6,33.6
	C62,31.1,53.1,25.1,50.7,23.4c-1.9,1.4-11.3,7.8-23.3,10.4c-1.1,27.2,19.4,41.6,23,43.9C53.9,75.5,74.7,61.4,73.6,33.6L73.6,33.6z
	 M73.6,33.6"/>
<rect x="-38" y="10" class="st23" width="55.9" height="65"/>
</svg>
