<?xml version="1.0" encoding="utf-8"?>
<!-- Generator: Adobe Illustrator 19.1.0, SVG Export Plug-In . SVG Version: 6.00 Build 0)  -->
<svg version="1.1" id="Capa_1" xmlns="http://www.w3.org/2000/svg" xmlns:xlink="http://www.w3.org/1999/xlink" x="0px" y="0px"
	 viewBox="0 0 101 101" style="enable-background:new 0 0 101 101;" xml:space="preserve">
<style type="text/css">
	.st0{fill:#FFFFFF;}
	.st1{fill:#F6921E;}
	.st2{fill:#00A69C;}
	.st3{opacity:0.8;}
	.st4{clip-path:url(#SVGID_2_);}
	.st5{fill:#016458;}
	.st6{fill:#231F20;}
	.st7{fill:#9E1F63;}
	.st8{fill:#4F6E32;}
	.st9{fill:#618B3D;}
	.st10{fill:#008478;}
	.st11{fill:#7C1A52;}
	.st12{fill:#89BC40;}
	.st13{fill:#D91C5C;}
	.st14{clip-path:url(#SVGID_4_);}
	.st15{clip-path:url(#SVGID_6_);}
	.st16{clip-path:url(#SVGID_8_);}
	.st17{clip-path:url(#SVGID_10_);}
	.st18{opacity:0.8;fill:#FFFFFF;}
	.st19{opacity:0.6;fill:#FFFFFF;}
	.st20{clip-path:url(#SVGID_12_);}
	.st21{clip-path:url(#SVGID_14_);}
	.st22{clip-path:url(#SVGID_16_);}
	.st23{fill:none;}
	.st24{opacity:0.7;fill:#FFFFFF;}
	.st25{fill-rule:evenodd;clip-rule:evenodd;fill:#FFFFFF;}
	.st26{fill:#F15A29;}
	.st27{fill:#FBB040;}
	.st28{fill:#B3CF50;}
	.st29{fill:#17977F;}
	.st30{fill:#38D9C3;}
	.st31{fill:#1BAFA5;}
	.st32{fill:#287DAA;}
	.st33{clip-path:url(#SVGID_18_);}
	.st34{fill:#443C86;}
	.st35{fill:#92278F;}
	.st36{fill:#DA1C5C;}
	.st37{fill:#662D91;}
	.st38{fill:#ED1C24;}
</style>
<g id="layer1_11_" transform="translate(-316.46485,324.20119)">
	<g>
		<g id="g2985_8_" transform="translate(35.431926,35.440678)">
			<path id="path2590_8_" class="st0" d="M332.3-320.1c0-0.1-0.6-0.8-0.7-0.9c-0.5-0.6-1-1.3-1.5-2l-1.3-1.7
				c0.3-0.3,3.3-3.7,3.3-3.7c0,0,0,0,0-0.1c0-0.1-0.1-0.1-0.2-0.1h-1.1c0,0-0.1,0-0.1,0.1l-3.1,3.6h-0.3v-3.5c0-0.1-0.1-0.1-0.1-0.1
				h-1c-0.1,0-0.1,0.1-0.1,0.1v8.3c0,0.1,0.1,0.1,0.1,0.1h1c0.1,0,0.1-0.1,0.1-0.1v-4c0.1,0,0.2,0,0.3,0c0,0,0.1,0.1,0.1,0.1
				l2.9,3.9c0,0,0.1,0.1,0.1,0.1h1.2C332.2-320,332.3-320,332.3-320.1L332.3-320.1z"/>
			<path id="path2592_8_" class="st0" d="M339-323.2c0-2-1-3.4-3.1-3.4c-2.1,0-3.1,1.4-3.1,3.4c0,2,1.1,3.4,3.1,3.4
				C338-319.7,339-321.2,339-323.2L339-323.2L339-323.2z M337.8-323.2c0,1.3-0.3,2.5-1.8,2.5c-1.5,0-1.9-1.2-1.9-2.5
				c0-1.3,0.3-2.5,1.8-2.5C337.4-325.7,337.8-324.4,337.8-323.2L337.8-323.2z"/>
			<path id="path2594_8_" class="st0" d="M346.2-320.2v-4.2c0-1.4-0.9-2.2-2.3-2.2c-0.4,0-0.8,0.1-1.2,0.2c-0.2,0.1-0.5,0.2-0.7,0.2
				h-0.1c0-0.2,0-0.3-0.2-0.3H341c-0.1,0-0.2,0.1-0.2,0.2v6.1c0,0.1,0.1,0.2,0.2,0.2h0.8c0.1,0,0.2-0.1,0.2-0.2v-4.7
				c0-0.4,0.2-0.5,0.5-0.7c0.3-0.1,0.6-0.2,0.9-0.2c1,0,1.5,0.5,1.5,1.5v4c0,0.1,0.1,0.2,0.2,0.2h0.8
				C346.1-320,346.2-320.1,346.2-320.2L346.2-320.2L346.2-320.2z"/>
			<path id="path2596_8_" class="st0" d="M351.7-325.5c0-0.7,0.2-0.9-0.6-0.9c-0.6,0-0.9,0.1-1.4,0.3c-0.1,0.1-0.2,0.1-0.3,0.1h0
				c0-0.2,0.1-0.4-0.2-0.4h-0.7c-0.1,0-0.2,0.1-0.2,0.2v6.1c0,0.1,0.1,0.2,0.2,0.2h0.8c0.1,0,0.2-0.1,0.2-0.2v-4.5
				c0-0.7,0.5-0.8,1-0.8c0.3,0,0.6,0,0.9,0.1c0.1,0,0.1,0,0.2,0C351.7-325.3,351.7-325.4,351.7-325.5L351.7-325.5L351.7-325.5z"/>
			<path id="path2598_8_" class="st0" d="M357.7-320.2v-4.6c0-1.3-1-1.8-2.2-1.8c-0.5,0-2,0.2-2.4,0.5c-0.1,0.1-0.1,0.2-0.1,0.3v0.5
				c0,0.1,0.1,0.2,0.2,0.2c0.1,0,0.2,0,0.2-0.1c0.6-0.3,1.3-0.5,1.9-0.5c0.6,0,1.1,0.1,1.1,0.8v0.3c0,0.3-0.2,0.3-0.4,0.4
				c-0.9,0.3-1.9,0.6-2.7,1.1c-0.5,0.3-0.8,0.8-0.8,1.4c0,1.2,1.1,1.8,2.2,1.8c0.4,0,0.9-0.1,1.3-0.2c0.2-0.1,0.4-0.2,0.6-0.2h0
				c0,0.2,0,0.3,0.2,0.3h0.7C357.6-320,357.7-320.1,357.7-320.2L357.7-320.2L357.7-320.2z M356.5-321.6c0,0.3-0.1,0.5-0.4,0.6
				c-0.3,0.2-0.7,0.2-1.1,0.2c-0.6,0-1.2-0.2-1.2-0.9c0-0.8,0.6-1,1.3-1.3l1.3-0.5V-321.6z"/>
			<path id="path2600_8_" class="st0" d="M365.3-320.2v-8.7c0-0.1-0.1-0.2-0.2-0.2h-0.8c-0.1,0-0.2,0.1-0.2,0.2v2.7c0,0-0.1,0-0.1,0
				c-0.1,0-0.2-0.1-0.3-0.1c-0.3-0.2-0.8-0.3-1.2-0.3c-1.9,0-3.1,1.5-3.1,3.4c0,1.9,1.1,3.3,3.1,3.3c0.5,0,0.9-0.1,1.3-0.3
				c0.1-0.1,0.2-0.1,0.4-0.1h0c0,0.1,0,0.3,0.2,0.3h0.7C365.2-320,365.3-320.1,365.3-320.2L365.3-320.2L365.3-320.2z M364.1-321.6
				c0,0.4-0.2,0.6-0.6,0.7c-0.2,0.1-0.5,0.1-0.7,0.1c-1.4,0-2.1-1-2.1-2.4c0-0.7,0.1-1.3,0.5-1.9c0.4-0.5,1-0.7,1.6-0.7
				c0.3,0,0.7,0.1,1,0.2c0.2,0.2,0.3,0.3,0.3,0.6V-321.6L364.1-321.6z"/>
			<path id="path2602_8_" class="st0" d="M332.5-306.1C332.5-306.1,332.5-306.1,332.5-306.1l-0.1-0.2l-2.7-7.9
				c-0.1-0.4-0.2-0.6-0.7-0.6c-0.8,0-0.9-0.2-1.2,0.6l-2.8,7.9c0,0,0,0.1-0.1,0.1c0,0.1,0,0.2,0.2,0.2h0.8c0.1,0,0.1,0,0.1-0.1l1-3
				h3.1l1,3c0,0.1,0.1,0.1,0.1,0.1h0.9C332.4-306,332.5-306,332.5-306.1L332.5-306.1L332.5-306.1z M330-309.9h-2.5l1.3-3.9
				L330-309.9z"/>
			<path id="path2604_8_" class="st0" d="M339.1-306.1v-8.7c0-0.1-0.1-0.2-0.2-0.2h-0.8c-0.1,0-0.2,0.1-0.2,0.2v2.7c0,0-0.1,0-0.1,0
				c-0.1,0-0.2-0.1-0.3-0.1c-0.3-0.2-0.8-0.3-1.2-0.3c-1.9,0-3.1,1.5-3.1,3.4c0,1.9,1.1,3.3,3.1,3.3c0.5,0,0.9-0.1,1.3-0.3
				c0.1-0.1,0.2-0.1,0.4-0.1h0c0,0.1,0,0.3,0.2,0.3h0.7C339-306,339.1-306,339.1-306.1L339.1-306.1L339.1-306.1z M337.9-307.5
				c0,0.4-0.2,0.6-0.6,0.7c-0.2,0.1-0.5,0.1-0.7,0.1c-1.4,0-2.1-1-2.1-2.4c0-0.7,0.1-1.3,0.5-1.9c0.4-0.5,1-0.7,1.6-0.7
				c0.3,0,0.7,0.1,1,0.2c0.2,0.2,0.3,0.3,0.3,0.6V-307.5L337.9-307.5z"/>
			<path id="path2606_8_" class="st0" d="M346.7-309.3v-0.3c0-1.7-1-2.9-2.8-2.9c-2,0-2.9,1.6-2.9,3.4c0,1.9,1.1,3.3,3.1,3.3
				c0.6,0,1.4-0.2,1.9-0.4c0.2-0.1,0.3-0.1,0.3-0.4c0-0.2,0.1-0.7-0.2-0.7c-0.1,0-0.2,0.1-0.3,0.1c-0.5,0.2-1,0.5-1.6,0.5
				c-1.3,0-2.1-0.9-2.1-2.2v-0.1h4.3C346.6-309.1,346.7-309.1,346.7-309.3L346.7-309.3L346.7-309.3z M345.4-310h-3.3
				c0-1,0.7-1.7,1.7-1.7c0.9,0,1.6,0.6,1.6,1.6V-310L345.4-310z"/>
			<path id="path2608_8_" class="st0" d="M353.7-306.1v-4.2c0-1.4-0.9-2.2-2.3-2.2c-0.4,0-0.8,0.1-1.2,0.2c-0.2,0.1-0.5,0.2-0.7,0.2
				h-0.1c0-0.2,0-0.3-0.2-0.3h-0.6c-0.1,0-0.2,0.1-0.2,0.2v6.1c0,0.1,0.1,0.2,0.2,0.2h0.8c0.1,0,0.2-0.1,0.2-0.2v-4.7
				c0-0.4,0.2-0.5,0.5-0.7c0.3-0.1,0.6-0.2,0.9-0.2c1,0,1.5,0.5,1.5,1.5v4c0,0.1,0.1,0.2,0.2,0.2h0.8
				C353.6-306,353.7-306,353.7-306.1L353.7-306.1L353.7-306.1z"/>
			<path id="path2610_8_" class="st0" d="M360.5-306.1v-4.6c0-1.3-1-1.8-2.2-1.8c-0.5,0-2,0.2-2.4,0.5c-0.1,0.1-0.1,0.2-0.1,0.3v0.5
				c0,0.1,0.1,0.2,0.2,0.2c0.1,0,0.2,0,0.2-0.1c0.6-0.3,1.3-0.5,1.9-0.5c0.6,0,1.1,0.1,1.1,0.8v0.3c0,0.3-0.2,0.3-0.4,0.4
				c-0.9,0.3-1.9,0.6-2.7,1.1c-0.5,0.3-0.8,0.8-0.8,1.4c0,1.2,1.1,1.8,2.2,1.8c0.4,0,0.9-0.1,1.3-0.2c0.2-0.1,0.4-0.2,0.6-0.2h0
				c0,0.2,0,0.3,0.2,0.3h0.7C360.5-306,360.5-306,360.5-306.1L360.5-306.1L360.5-306.1z M359.3-307.6c0,0.3-0.1,0.5-0.4,0.6
				c-0.3,0.2-0.7,0.2-1.1,0.2c-0.6,0-1.2-0.2-1.2-0.9c0-0.8,0.6-1,1.3-1.3l1.3-0.5V-307.6L359.3-307.6z"/>
			<path id="path2612_8_" class="st0" d="M368-306.1v-6.1c0-0.1-0.1-0.2-0.2-0.2H367c-0.1,0-0.2,0.1-0.2,0.2v4.7
				c0,0.4-0.2,0.5-0.6,0.6c-0.3,0.1-0.5,0.1-0.8,0.1c-0.4,0-0.8-0.1-1.1-0.3c-0.4-0.3-0.4-0.8-0.4-1.2v-4c0-0.1-0.1-0.2-0.2-0.2
				h-0.8c-0.1,0-0.2,0.1-0.2,0.2v4.4c0,1.4,1,2,2.2,2c0.5,0,0.8-0.1,1.2-0.2c0.3-0.1,0.5-0.2,0.8-0.2c0,0.1,0,0.3,0.2,0.3h0.7
				C367.9-306,368-306,368-306.1L368-306.1L368-306.1z"/>
			<path id="path2614_8_" class="st0" d="M375.5-309.3v-0.3c0-1.7-1-2.9-2.8-2.9c-2,0-2.9,1.6-2.9,3.4c0,1.9,1.1,3.3,3.1,3.3
				c0.6,0,1.4-0.2,1.9-0.4c0.2-0.1,0.3-0.1,0.3-0.4c0-0.2,0.1-0.7-0.2-0.7c-0.1,0-0.2,0.1-0.3,0.1c-0.5,0.2-1,0.5-1.6,0.5
				c-1.3,0-2.1-0.9-2.1-2.2v-0.1h4.3C375.4-309.1,375.5-309.1,375.5-309.3L375.5-309.3L375.5-309.3z M374.3-310H371
				c0-1,0.7-1.7,1.7-1.7c0.9,0,1.6,0.6,1.6,1.6V-310L374.3-310z"/>
			<path id="path2616_8_" class="st0" d="M380.6-311.5c0-0.7,0.2-0.9-0.6-0.9c-0.6,0-0.9,0.1-1.4,0.3c-0.1,0.1-0.2,0.1-0.3,0.1h0
				c0-0.2,0.1-0.4-0.2-0.4h-0.7c-0.1,0-0.2,0.1-0.2,0.2v6.1c0,0.1,0.1,0.2,0.2,0.2h0.8c0.1,0,0.2-0.1,0.2-0.2v-4.5
				c0-0.7,0.5-0.8,1-0.8c0.3,0,0.6,0,0.9,0.1c0.1,0,0.1,0,0.2,0C380.6-311.3,380.6-311.4,380.6-311.5L380.6-311.5z"/>
			<path id="path2618_8_" class="st0" d="M330.7-294.3c0-1-0.5-1.6-1.3-2.1l-1.6-1.1c-0.4-0.3-0.7-0.6-0.7-1.1
				c0-0.8,0.7-1.2,1.4-1.2c0.6,0,1.1,0.2,1.6,0.5c0.1,0,0.1,0.1,0.2,0.1c0.1,0,0.1-0.1,0.1-0.2v-0.7c0-0.2,0-0.2-0.2-0.2
				c-0.5-0.2-1.3-0.3-1.8-0.3c-1.4,0-2.6,0.7-2.6,2.3c0,0.9,0.4,1.5,1.2,2l1.5,1.1c0.5,0.4,0.8,0.6,0.8,1.3c0,0.9-0.7,1.3-1.5,1.3
				c-0.6,0-1.2-0.2-1.7-0.5c-0.1,0-0.1-0.1-0.2-0.1c-0.1,0-0.1,0.1-0.1,0.2v0.8c0,0.2,0.1,0.2,0.3,0.3c0.5,0.2,1.3,0.3,1.9,0.3
				C329.4-291.8,330.7-292.6,330.7-294.3L330.7-294.3L330.7-294.3z"/>
			<path id="path2620_8_" class="st0" d="M335.8-292.3v-0.5c0-0.1-0.1-0.2-0.2-0.2c-0.2,0-0.5,0.3-1,0.3c-0.7,0-0.9-0.4-0.9-1v-3.8
				h1.9c0.1,0,0.2-0.1,0.2-0.2v-0.5c0-0.1-0.1-0.2-0.2-0.2h-1.9v-1.5c0-0.1-0.1-0.2-0.2-0.2h-0.8c-0.1,0-0.2,0.1-0.2,0.2v1.5h-0.7
				c-0.1,0-0.2,0.1-0.2,0.2c0,0.9-0.1,0.7,0.9,0.7v4c0,1.1,0.7,1.7,1.8,1.7c0.4,0,1-0.1,1.3-0.3
				C335.7-292.2,335.8-292.2,335.8-292.3L335.8-292.3L335.8-292.3z"/>
			<path id="path2622_8_" class="st0" d="M338.6-300.3c0-0.5-0.3-0.7-0.7-0.7c-0.5,0-0.7,0.3-0.7,0.7c0,0.5,0.2,0.7,0.7,0.7
				C338.3-299.5,338.6-299.8,338.6-300.3L338.6-300.3z M338.5-292.1v-6.1c0-0.1-0.1-0.2-0.2-0.2h-0.8c-0.1,0-0.2,0.1-0.2,0.2v6.1
				c0,0.1,0.1,0.2,0.2,0.2h0.8C338.4-291.9,338.5-292,338.5-292.1L338.5-292.1z"/>
			<path id="path2624_8_" class="st0" d="M343.8-300.2v-0.5c0-0.3-0.7-0.3-0.9-0.3c-0.5,0-0.9,0.1-1.3,0.4c-0.7,0.6-0.6,1.4-0.6,2.2
				h-0.8c-0.1,0-0.2,0.1-0.2,0.2v0.5c0,0.1,0.1,0.2,0.2,0.2h0.8v5.4c0,0.1,0.1,0.2,0.2,0.2h0.8c0.1,0,0.2-0.1,0.2-0.2v-5.4h1.3
				c0.1,0,0.2,0,0.2-0.2v-0.5c0-0.1-0.1-0.2-0.2-0.2h-1.3c0-0.3,0-0.6,0-0.9c0-0.5,0.2-0.9,0.8-0.9c0.3,0,0.5,0.2,0.6,0.2
				C343.8-300,343.8-300.1,343.8-300.2L343.8-300.2z"/>
			<path id="path2626_8_" class="st0" d="M348.8-292.3v-0.5c0-0.1-0.1-0.2-0.2-0.2c-0.2,0-0.5,0.3-1,0.3c-0.7,0-0.9-0.4-0.9-1v-3.8
				h1.9c0.1,0,0.2-0.1,0.2-0.2v-0.5c0-0.1-0.1-0.2-0.2-0.2h-1.9v-1.5c0-0.1-0.1-0.2-0.2-0.2h-0.8c-0.1,0-0.2,0.1-0.2,0.2v1.5h-0.7
				c-0.1,0-0.2,0.1-0.2,0.2c0,0.9-0.1,0.7,0.9,0.7v4c0,1.1,0.7,1.7,1.8,1.7c0.4,0,1-0.1,1.3-0.3
				C348.8-292.2,348.8-292.2,348.8-292.3L348.8-292.3L348.8-292.3z"/>
			<path id="path2628_8_" class="st0" d="M355.5-292.1v-6.1c0-0.1-0.1-0.2-0.2-0.2h-0.8c-0.1,0-0.2,0.1-0.2,0.2v4.7
				c0,0.4-0.2,0.5-0.6,0.6c-0.3,0.1-0.5,0.1-0.8,0.1c-0.4,0-0.8-0.1-1.1-0.3c-0.4-0.3-0.4-0.8-0.4-1.2v-4c0-0.1-0.1-0.2-0.2-0.2
				h-0.8c-0.1,0-0.2,0.1-0.2,0.2v4.4c0,1.4,1,2,2.2,2c0.5,0,0.8-0.1,1.2-0.2c0.3-0.1,0.5-0.2,0.8-0.2c0,0.1,0,0.3,0.2,0.3h0.7
				C355.5-291.9,355.5-292,355.5-292.1L355.5-292.1L355.5-292.1z"/>
			<path id="path2630_8_" class="st0" d="M363.2-292.1v-4.2c0-1.4-0.9-2.2-2.3-2.2c-0.4,0-0.8,0.1-1.2,0.2c-0.2,0.1-0.5,0.2-0.7,0.2
				h-0.1c0-0.2,0-0.3-0.2-0.3h-0.6c-0.1,0-0.2,0.1-0.2,0.2v6.1c0,0.1,0.1,0.2,0.2,0.2h0.8c0.1,0,0.2-0.1,0.2-0.2v-4.7
				c0-0.4,0.2-0.5,0.5-0.7c0.3-0.1,0.6-0.2,0.9-0.2c1,0,1.5,0.5,1.5,1.5v4c0,0.1,0.1,0.2,0.2,0.2h0.8
				C363.1-291.9,363.2-292,363.2-292.1L363.2-292.1L363.2-292.1z"/>
			<path id="path2632_8_" class="st0" d="M370.8-291.8v-6.4c0-0.1-0.1-0.2-0.2-0.2h-0.7c-0.2,0-0.2,0.2-0.2,0.3c0,0,0,0-0.1,0
				c-0.2,0-0.3-0.2-0.5-0.2c-0.3-0.1-0.7-0.2-1-0.2c-2,0-3.2,1.4-3.2,3.4c0,1.9,1.2,3.2,3.1,3.2c0.5,0,0.9-0.1,1.4-0.3
				c0.1,0,0.1-0.1,0.2-0.1v0.6c0,0.5-0.1,0.9-0.5,1.2c-0.4,0.3-1,0.4-1.5,0.4c-0.6,0-1.4-0.2-1.9-0.5c-0.1-0.1-0.2-0.1-0.3-0.1
				c-0.1,0-0.2,0.1-0.2,0.2v0.5c0,0.2,0.2,0.3,0.3,0.4c0.6,0.3,1.5,0.4,2.2,0.4C369.4-289.3,370.8-289.9,370.8-291.8L370.8-291.8
				L370.8-291.8z M369.6-293.6c0,0.3-0.1,0.4-0.3,0.5c-0.3,0.2-0.8,0.2-1.1,0.2c-1.4,0-2.1-1.1-2.1-2.4c0-1.3,0.6-2.4,2.1-2.4
				c0.4,0,0.8,0.1,1.1,0.3c0.2,0.1,0.2,0.2,0.2,0.5V-293.6L369.6-293.6z"/>
			<path id="path2727_8_" class="st0" d="M282.4-328.7v0.2v36.7v0.2h0.2h36.7h0.2v-0.2v-36.7v-0.2h-0.2h-36.7H282.4z M282.8-328.3
				h36.3v36.3h-8.5v-10.3h-15.7l-7.6,10.3h-4.5V-328.3z M310.6-323.9l-11.3,15.4h11.3V-323.9z M310.2-322.8v13.9H300L310.2-322.8z
				 M295.1-301.9h15.1v9.9h-22.4L295.1-301.9z"/>
		</g>
	</g>
</g>
</svg>
