<?xml version="1.0" encoding="utf-8"?>
<!-- Generator: Adobe Illustrator 19.1.0, SVG Export Plug-In . SVG Version: 6.00 Build 0)  -->
<svg version="1.1" id="Capa_1" xmlns="http://www.w3.org/2000/svg" xmlns:xlink="http://www.w3.org/1999/xlink" x="0px" y="0px"
	 viewBox="0 0 101 101" style="enable-background:new 0 0 101 101;" xml:space="preserve">
<style type="text/css">
	.st0{fill:#FFFFFF;}
	.st1{fill:#F6921E;}
	.st2{fill:#00A69C;}
	.st3{opacity:0.8;}
	.st4{clip-path:url(#SVGID_2_);}
	.st5{fill:#016458;}
	.st6{fill:#231F20;}
	.st7{fill:#9E1F63;}
	.st8{fill:#4F6E32;}
	.st9{fill:#618B3D;}
	.st10{fill:#008478;}
	.st11{fill:#7C1A52;}
	.st12{fill:#89BC40;}
	.st13{fill:#D91C5C;}
	.st14{clip-path:url(#SVGID_4_);}
	.st15{clip-path:url(#SVGID_6_);}
	.st16{clip-path:url(#SVGID_8_);}
	.st17{clip-path:url(#SVGID_10_);}
	.st18{opacity:0.8;fill:#FFFFFF;}
	.st19{opacity:0.6;fill:#FFFFFF;}
	.st20{clip-path:url(#SVGID_12_);}
	.st21{clip-path:url(#SVGID_14_);}
	.st22{clip-path:url(#SVGID_16_);}
	.st23{fill:none;}
	.st24{opacity:0.7;fill:#FFFFFF;}
	.st25{fill-rule:evenodd;clip-rule:evenodd;fill:#FFFFFF;}
	.st26{fill:#F15A29;}
	.st27{fill:#FBB040;}
	.st28{fill:#B3CF50;}
	.st29{fill:#17977F;}
	.st30{fill:#38D9C3;}
	.st31{fill:#1BAFA5;}
	.st32{fill:#287DAA;}
	.st33{clip-path:url(#SVGID_18_);}
	.st34{fill:#443C86;}
	.st35{fill:#92278F;}
	.st36{fill:#DA1C5C;}
	.st37{fill:#662D91;}
	.st38{fill:#ED1C24;}
</style>
<circle class="st0" cx="50.5" cy="50.5" r="50.2"/>
<path class="st29" d="M68.5,79.2c0-0.1,0-0.1,0-0.1l-3.8-8.7l-2.9-14.3v-4.8c1.2,0.4,2.4,0.7,3.8,1v0.6c0,0.2,0.1,0.3,0.3,0.3h1.5
	c0.2,0,0.3-0.1,0.3-0.3v-1.2h0.7c0.2,0,0.4-0.2,0.4-0.4c0-0.2-0.2-0.4-0.4-0.4h-0.7v-0.4h0.7c0.2,0,0.4-0.2,0.4-0.4
	c0-0.2-0.2-0.4-0.4-0.4h-0.7v-0.7H69c0.2,0,0.3-0.1,0.4-0.3c0-0.2,0-0.3-0.2-0.4l-7.4-4v-2.4c0.9,0.2,1.9,0.4,2.9,0.6v0.8
	c0,0.2,0.1,0.3,0.3,0.3h1.5c0.2,0,0.3-0.1,0.3-0.3v-1.2h0.7c0.2,0,0.4-0.2,0.4-0.4c0-0.2-0.2-0.4-0.4-0.4h-0.7v-0.4h0.7
	c0.2,0,0.4-0.2,0.4-0.4c0-0.2-0.2-0.4-0.4-0.4h-0.7v-0.6h0.8c0.2,0,0.3-0.1,0.4-0.3c0-0.2,0-0.3-0.2-0.4l-6.1-3.4v-0.4
	c0-0.1,0-0.1-0.1-0.2l-2.7-4.1v-2.4c0-0.2-0.2-0.4-0.4-0.4c-0.2,0-0.4,0.2-0.4,0.4v2.4l-2.7,4.1c0,0.1-0.1,0.1-0.1,0.2v0.3l-4,2.3
	c-3.8-2.4-5.7-4.8-6.3-5.8v-0.4h0.5c0.2,0,0.3-0.1,0.3-0.3c0-0.2-0.1-0.3-0.3-0.3h-0.5V30h0.5c0.2,0,0.3-0.1,0.3-0.3
	c0-0.2-0.1-0.3-0.3-0.3h-0.5v-0.4h0.6c0.1,0,0.2-0.1,0.3-0.2c0-0.1,0-0.2-0.1-0.3L41.7,26v-0.3c0-0.1,0-0.1,0-0.1l-1.9-2.9V21
	c0-0.1-0.1-0.3-0.3-0.3c-0.1,0-0.3,0.1-0.3,0.3v1.7l-1.9,2.9c0,0,0,0.1,0,0.1V26l-4.3,2.5c-0.1,0.1-0.2,0.2-0.1,0.3
	c0,0.1,0.1,0.2,0.3,0.2H34v0.4h-0.4c-0.2,0-0.3,0.1-0.3,0.3c0,0.2,0.1,0.3,0.3,0.3H34v0.3h-0.4c-0.2,0-0.3,0.1-0.3,0.3
	c0,0.2,0.1,0.3,0.3,0.3H34v0.9c0,0.1,0.1,0.2,0.2,0.2h0.7c0.1,0.4,0.4,0.9,0.7,1.4L32,35.3c-0.1,0.1-0.2,0.2-0.1,0.3
	c0,0.1,0.1,0.2,0.3,0.2h1v0.5h-0.4c-0.2,0-0.3,0.1-0.3,0.3c0,0.2,0.1,0.3,0.3,0.3h0.4v0.3h-0.4c-0.2,0-0.3,0.1-0.3,0.3
	c0,0.2,0.1,0.3,0.3,0.3h0.4v0.9c0,0.1,0.1,0.2,0.2,0.2h0.5c0.2,1.1,0.8,3.3,2.6,5.7l-1.5,6.4l-2.7,6.1c0,0,0,0.1,0,0.1h-0.7v0.8h3.9
	v-0.8h-0.9l4.1-5.9H40l4.1,5.9h-0.9v0.8h4v-0.8h-0.7c0,0,0-0.1,0-0.1l-2.7-6.1l-0.1-0.7c1.7,0.8,3.8,1.5,6.2,2V53
	c0,0.2,0.1,0.3,0.3,0.3h1.5c0.2,0,0.3-0.1,0.3-0.3v-1.2h0.7c0.2,0,0.4-0.2,0.4-0.4c0-0.2-0.2-0.4-0.4-0.4h-0.7v-0.4h0.7
	c0.2,0,0.4-0.2,0.4-0.4c0-0.2-0.2-0.4-0.4-0.4h-0.7v-0.8h3.7v7.3l-3.3,14.3L48.5,79c0,0,0,0.1,0,0.1h-1v1.1H53v-1.1h-1.3l5.8-8.3h2
	l5.8,8.3H64v1.1h5.6v-1.1H68.5z M63.9,70.1L63.9,70.1l-4.7-2.2l3.9-1.8L63.9,70.1z M50.2,41.4c0-0.1,0.1-0.1,0.1-0.1h3.3
	c0.1,0,0.1,0.1,0.1,0.1c0,0.1-0.1,0.1-0.1,0.1h-3.3C50.3,41.6,50.2,41.5,50.2,41.4L50.2,41.4z M50.9,42.2v0.9c0,0.2,0.1,0.3,0.3,0.3
	h1.5c0.2,0,0.3-0.1,0.3-0.3v-1.2h0.7c0.2,0,0.4-0.2,0.4-0.4c0-0.2-0.2-0.4-0.4-0.4H53v-0.4h0.7c0.2,0,0.4-0.2,0.4-0.4
	c0-0.2-0.2-0.4-0.4-0.4H53v-0.6h1.1c0.5,0.2,1,0.4,1.5,0.7V44l-3.2,1.8c-2-1.5-3.5-3.1-4.7-4.4C48.7,41.7,49.8,42,50.9,42.2
	L50.9,42.2z M50.3,40.3c-0.1,0-0.1-0.1-0.1-0.1c0-0.1,0.1-0.1,0.1-0.1h3.3c0.1,0,0.1,0.1,0.1,0.1c0,0.1-0.1,0.1-0.1,0.1H50.3z
	 M51.1,38.3l0.8-0.4c0.3,0.2,0.5,0.3,0.8,0.4H51.1z M55.6,39.3c-0.1-0.1-0.3-0.1-0.4-0.2h0.4V39.3z M57.5,49.5
	c0.6,0.3,1.3,0.6,1.9,0.9l-0.7,0.9L57.5,49.5z M60.9,55.5c0,0.1,0.1,0.1,0.1,0.1v0.1h-4.8v-0.1c0.1,0,0.1-0.1,0.1-0.1l2.3-3.3
	L60.9,55.5z M57.1,48.8h3.4L59.6,50C58.7,49.6,57.9,49.2,57.1,48.8L57.1,48.8z M61.1,48.9v1.6c-0.3-0.1-0.6-0.2-0.9-0.3L61.1,48.9z
	 M61.1,46.9l-2-2.6l2-2.6V46.9z M61.1,47.9L61,48h-4.5l-0.1-0.2v0l2.3-3L61.1,47.9z M56.3,46.8v-5l2,2.5L56.3,46.8z M56.3,40
	C56.3,40,56.4,40,56.3,40L56.3,40L56.3,40z M55.6,44.9V48c-0.9-0.5-1.8-1.1-2.6-1.7L55.6,44.9z M56.3,48.9l2,2.9l-2,2.9L56.3,48.9
	C56.3,48.9,56.3,48.9,56.3,48.9L56.3,48.9z M56.3,56.5h4.9l0.3,1.6h-5.6L56.3,56.5z M60.6,58.7l-1.9,1l-2-1H60.6z M58.7,60.3
	l3.3,1.6l-3.3,1.4l-3.2-1.4L58.7,60.3z M62.6,65.7l-4.2,1.9l-4-1.9l4.2-1.7L62.6,65.7z M62.9,65.1l-3.5-1.5l3-1.2L62.9,65.1z
	 M62.1,61.4L59.3,60l2.3-1.1L62.1,61.4z M61.1,54.7l-2-2.9l0.9-1.2c0.4,0.1,0.8,0.3,1.1,0.4V54.7z M61.8,50.8v-2h3.8v0.7H65
	c-0.2,0-0.4,0.2-0.4,0.4c0,0.2,0.2,0.4,0.4,0.4h0.6v0.4H65c-0.2,0-0.4,0.2-0.4,0.4c0,0.2,0.2,0.4,0.4,0.4h0.6v0.2
	C64.3,51.6,63,51.2,61.8,50.8L61.8,50.8z M68.4,51.1c0.1,0,0.1,0.1,0.1,0.1c0,0.1-0.1,0.2-0.1,0.2H65c-0.1,0-0.1-0.1-0.1-0.2
	c0-0.1,0.1-0.1,0.1-0.1H68.4z M68.4,49.8c0.1,0,0.1,0.1,0.1,0.1c0,0.1-0.1,0.1-0.1,0.1H65c-0.1,0-0.1-0.1-0.1-0.1
	c0-0.1,0.1-0.1,0.1-0.1H68.4z M67.6,48h-5.7v-3.1L67.6,48z M58.7,43.8l-2.3-3l0.6-0.6c1.1,0.4,2.3,0.8,3.6,1.1L58.7,43.8z M61.1,40
	l-1-0.9h1V40z M61.1,38.3h-1.8l-0.2-0.1l1.9-1.8V38.3z M58.7,37.8l-2.3-2.2h4.7L58.7,37.8z M59.2,39.1l1.8,1.7L60.9,41
	c-1.3-0.3-2.5-0.7-3.6-1.1l0.9-0.9H59.2z M67.5,41.3c0.1,0,0.1,0.1,0.1,0.1c0,0.1-0.1,0.1-0.1,0.1h-3.3c-0.1,0-0.1-0.1-0.1-0.1
	c0-0.1,0.1-0.1,0.1-0.1H67.5z M67.5,40c0.1,0,0.1,0.1,0.1,0.1c0,0.1-0.1,0.1-0.1,0.1h-3.3c-0.1,0-0.1-0.1-0.1-0.1
	c0-0.1,0.1-0.1,0.1-0.1H67.5z M61.8,35.8l4.5,2.5h-4.5V35.8z M64.8,39.1v0.6h-0.6c-0.2,0-0.4,0.2-0.4,0.4c0,0.2,0.2,0.4,0.4,0.4h0.6
	V41h-0.6c-0.2,0-0.4,0.2-0.4,0.4c0,0.1,0,0.2,0.1,0.3c-0.7-0.1-1.4-0.3-2-0.4v-2.2H64.8z M56.3,34.7l2.4-3.6l2.4,3.6v0.3
	c0,0,0,0,0,0h-4.7c0,0,0,0,0-0.1c0,0,0,0,0,0L56.3,34.7L56.3,34.7z M56.3,36.3l2,1.9l-0.2,0.1h-1.8V36.3z M57.4,39.1l-0.7,0.6
	c-0.1-0.1-0.2-0.1-0.4-0.1v-0.5H57.4z M55.6,35.7v2.6h-2c-0.4-0.2-0.9-0.5-1.3-0.7L55.6,35.7z M45.7,30.5c0.1,0,0.1,0,0.1,0.1
	s0,0.1-0.1,0.1h-2.4c-0.1,0-0.1,0-0.1-0.1s0-0.1,0.1-0.1H45.7z M45.7,29.6c0.1,0,0.1,0,0.1,0.1c0,0.1,0,0.1-0.1,0.1h-2.4
	c-0.1,0-0.1,0-0.1-0.1c0-0.1,0-0.1,0.1-0.1H45.7z M41.7,26.6l3.2,1.8h-3.2V26.6z M41.7,28.9h2.1v0.4h-0.4c-0.2,0-0.3,0.1-0.3,0.3
	c0,0.2,0.1,0.3,0.3,0.3h0.4v0.3h-0.4c-0.2,0-0.3,0.1-0.3,0.3c0,0.2,0.1,0.3,0.3,0.3h0.4v0.9c0,0.1,0.1,0.2,0.2,0.2H45
	c0,0,0.1,0,0.1,0c0.8,1.2,2.7,3.4,6,5.5l-1.6,0.9c-0.1,0.1-0.2,0.3-0.2,0.4c0,0.2,0.2,0.3,0.4,0.3h1.2v0.6h-0.6
	c-0.2,0-0.4,0.2-0.4,0.4c0,0.2,0.2,0.4,0.4,0.4h0.6V41h-0.6c-0.2,0-0.4,0.2-0.4,0.4c0,0.1,0,0.1,0,0.1c-1-0.2-1.9-0.5-2.8-0.8
	c-0.7-0.8-1.1-1.5-1.4-1.9c0,0,0.1-0.1,0.1-0.1v-0.9h0.5c0.2,0,0.3-0.1,0.3-0.3c0-0.2-0.1-0.3-0.3-0.3h-0.5v-0.3h0.5
	c0.2,0,0.3-0.1,0.3-0.3c0-0.2-0.1-0.3-0.3-0.3h-0.5v-0.5h1c0.1,0,0.2-0.1,0.3-0.2c0-0.1,0-0.2-0.1-0.3l-5.2-2.8L41.7,28.9L41.7,28.9
	z M43.9,37.6c-0.1,0-0.1,0-0.1-0.1c0-0.1,0-0.1,0.1-0.1h2.4c0.1,0,0.1,0,0.1,0.1c0,0.1,0,0.1-0.1,0.1H43.9z M43.9,36.7
	c-0.1,0-0.1,0-0.1-0.1c0-0.1,0-0.1,0.1-0.1h2.4c0.1,0,0.1,0,0.1,0.1c0,0.1,0,0.1-0.1,0.1H43.9z M41.7,33.1l4.1,2.2h-4.1V33.1z
	 M44.3,35.8v0.5h-0.4c-0.2,0-0.3,0.1-0.3,0.3c0,0.2,0.1,0.3,0.3,0.3h0.4v0.3h-0.4c-0.2,0-0.3,0.1-0.3,0.3c0,0.2,0.1,0.3,0.3,0.3h0.4
	v0.9c0,0.1,0.1,0.2,0.2,0.2h0.7c0.2,0.4,0.6,0.9,1.2,1.6c-1.9-0.6-3.4-1.4-4.8-2.1v-2.6H44.3z M36.9,44.7l0.4-1.7l1.6,0.8L36.9,44.7
	C37,44.7,37,44.7,36.9,44.7L36.9,44.7z M37.3,34.9c-0.4-0.5-0.7-0.9-1-1.3l1-0.6V34.9z M38.3,35.8h2.5l-1,1.4
	c-0.4-0.3-0.8-0.7-1.2-1L38.3,35.8z M37.5,42.4l0.3-1.1h3.5l0.2,1.1H37.5z M40.8,42.8l-1.4,0.7L38,42.8H40.8z M41.2,40.7h-3.4v0
	c0,0,0.1,0,0.1-0.1l1.6-2.3l1.6,2.3C41.1,40.6,41.1,40.6,41.2,40.7L41.2,40.7z M38.4,36.7l0.9,1.3L37.8,40v-3.9
	C38,36.3,38.1,36.5,38.4,36.7L38.4,36.7z M39.4,44l2.3,1.1l-2.3,1l-2-0.9c-0.1-0.1-0.1-0.1-0.1-0.2L39.4,44z M38.9,46.3l-0.3,0.1
	c-0.2-0.2-0.3-0.3-0.5-0.5L38.9,46.3z M38.4,46.9c0.6,0.6,1.3,1.1,2,1.6l-1.2,0.5l-2.8-1.3L38.4,46.9z M38.9,46.8l0.5-0.2l2.9,1.2
	l-1.3,0.6C40.2,47.8,39.5,47.3,38.9,46.8L38.9,46.8z M42.6,48.1l0.3,1.5c-0.5-0.3-1.1-0.6-1.5-0.9L42.6,48.1z M39.9,46.3l2.1-0.9
	l0.4,1.9L39.9,46.3z M39.9,43.7l1.6-0.8l0.4,1.8L39.9,43.7z M41.2,40l-1.4-2l0.1-0.1c0.4,0.3,0.9,0.6,1.3,0.9V40z M40.1,37.4
	l1.1-1.5v2.2C40.8,37.9,40.4,37.7,40.1,37.4L40.1,37.4z M39.9,28.4l-0.1-0.1l1.4-1.3v1.4H39.9z M41.2,28.9v0.7l-0.7-0.7H41.2z
	 M39.5,28l-1.6-1.6h3.3L39.5,28z M39.8,28.9l1.3,1.2l-1.7,2.2l-1.6-2.1l1.3-1.3H39.8z M41.2,30.8v3.7l-1.4-1.8L41.2,30.8z
	 M37.8,25.8l1.7-2.6l1.7,2.6V26c0,0,0,0,0,0h-3.3c0,0,0,0,0,0c0,0,0,0,0,0V25.8z M37.8,26.9l1.4,1.3l-0.1,0.1h-1.3V26.9z M37.8,28.9
	h0.7l-0.7,0.7V28.9z M37.8,30.9l1.4,1.8l-1.4,1.8V30.9z M37.8,35.1l1.7-2.1l1.7,2.2l-0.1,0.1h-3.2L37.8,35.1L37.8,35.1z M37.3,26.6
	v1.8h-3.2L37.3,26.6z M33.5,29.8c-0.1,0-0.1,0-0.1-0.1c0-0.1,0-0.1,0.1-0.1h2.4c0.1,0,0.1,0,0.1,0.1c0,0.1,0,0.1-0.1,0.1H33.5z
	 M33.5,30.7c-0.1,0-0.1,0-0.1-0.1c0-0.1,0-0.1,0.1-0.1h2.4c0.1,0,0.1,0,0.1,0.1c0,0.1,0,0.1-0.1,0.1H33.5z M35.3,31.9
	c0.1,0,0.1-0.1,0.1-0.2v-0.9h0.5c0.2,0,0.3-0.1,0.3-0.3c0-0.2-0.1-0.3-0.3-0.3h-0.5V30h0.5c0.2,0,0.3-0.1,0.3-0.3
	c0-0.2-0.1-0.3-0.3-0.3h-0.5v-0.4h1.8v3.5l-1.3,0.7C35.7,32.7,35.5,32.3,35.3,31.9L35.3,31.9z M33.2,35.3l2.7-1.5
	c0.3,0.5,0.7,0.9,1.1,1.5H33.2z M32.7,36.8c-0.1,0-0.1,0-0.1-0.1c0-0.1,0-0.1,0.1-0.1h2.4c0.1,0,0.1,0,0.1,0.1c0,0.1,0,0.1-0.1,0.1
	H32.7z M32.7,37.7c-0.1,0-0.1,0-0.1-0.1c0-0.1,0-0.1,0.1-0.1h2.4c0.1,0,0.1,0,0.1,0.1c0,0.1,0,0.1-0.1,0.1H32.7z M34.3,39h0.2
	c0.1,0,0.2-0.1,0.2-0.2v-0.9h0.5c0.2,0,0.3-0.1,0.3-0.3c0-0.2-0.1-0.3-0.3-0.3h-0.5V37h0.5c0.2,0,0.3-0.1,0.3-0.3
	c0-0.2-0.1-0.3-0.3-0.3h-0.5v-0.5h2.6V41l-0.7,3.1C35,41.9,34.5,40,34.3,39L34.3,39z M36.8,45.4l0.4,0.2c0.3,0.4,0.6,0.7,1,1.1
	l-1.8,0.8L36.8,45.4z M36.1,48.1l2.6,1.2l-3.3,1.5L36.1,48.1z M34,57.1h-1.1l2.5-5.6H38L34,57.1z M36.3,50.9l3-1.3l2.8,1.3H36.3z
	 M45.8,57.1h-1.2l-3.9-5.6h2.6L45.8,57.1z M43.1,50.9L43.1,50.9l-3.4-1.6l1.1-0.5c0.6,0.4,1.3,0.8,2.1,1.2L43.1,50.9z M43.5,49.8
	L41.7,41v-2c1.4,0.8,3.2,1.6,5.3,2.2c1.1,1.4,2.8,3.1,5,4.8l-3.8,2.1c-0.1,0.1-0.2,0.3-0.2,0.4c0,0.2,0.2,0.3,0.4,0.3h1.5v0.8h-0.6
	c-0.2,0-0.4,0.2-0.4,0.4c0,0.2,0.2,0.4,0.4,0.4h0.6v0.4h-0.6c-0.2,0-0.4,0.2-0.4,0.4c0,0.2,0.2,0.4,0.4,0.4h0.6V52
	C47.3,51.4,45.2,50.7,43.5,49.8L43.5,49.8z M52.6,51.1c0.1,0,0.1,0.1,0.1,0.1c0,0.1-0.1,0.1-0.1,0.1h-3.3c-0.1,0-0.1-0.1-0.1-0.1
	c0-0.1,0.1-0.1,0.1-0.1H52.6z M52.6,49.8c0.1,0,0.1,0.1,0.1,0.1c0,0.1-0.1,0.1-0.1,0.1h-3.3c-0.1,0-0.1-0.1-0.1-0.1
	c0-0.1,0.1-0.1,0.1-0.1H52.6z M49.8,48l2.8-1.5c0.7,0.5,1.5,1,2.3,1.5H49.8z M55.7,58.9L58,60l-2.9,1.4L55.7,58.9z M54.9,62.3l3,1.3
	l-3.6,1.5L54.9,62.3z M54,66.1l3.7,1.8L53.1,70L54,66.1z M51,78.8h-1.6l3.5-8h3.7L51,78.8z M54.3,70.1l4.2-1.9l4,1.9H54.3z
	 M65.9,78.8l-5.5-8h3.7l3.5,8H65.9z M65.9,78.8"/>
</svg>
