<?xml version="1.0" encoding="utf-8"?>
<!-- Generator: Adobe Illustrator 19.1.0, SVG Export Plug-In . SVG Version: 6.00 Build 0)  -->
<svg version="1.1" id="Capa_1" xmlns="http://www.w3.org/2000/svg" xmlns:xlink="http://www.w3.org/1999/xlink" x="0px" y="0px"
	 viewBox="0 0 101 101" style="enable-background:new 0 0 101 101;" xml:space="preserve">
<style type="text/css">
	.st0{fill:#FFFFFF;}
	.st1{fill:#F6921E;}
	.st2{fill:#00A69C;}
	.st3{opacity:0.8;}
	.st4{clip-path:url(#SVGID_2_);}
	.st5{fill:#016458;}
	.st6{fill:#231F20;}
	.st7{fill:#9E1F63;}
	.st8{fill:#4F6E32;}
	.st9{fill:#618B3D;}
	.st10{fill:#008478;}
	.st11{fill:#7C1A52;}
	.st12{fill:#89BC40;}
	.st13{fill:#D91C5C;}
	.st14{clip-path:url(#SVGID_4_);}
	.st15{clip-path:url(#SVGID_6_);}
	.st16{clip-path:url(#SVGID_8_);}
	.st17{clip-path:url(#SVGID_10_);}
	.st18{opacity:0.8;fill:#FFFFFF;}
	.st19{opacity:0.6;fill:#FFFFFF;}
	.st20{clip-path:url(#SVGID_12_);}
	.st21{clip-path:url(#SVGID_14_);}
	.st22{clip-path:url(#SVGID_16_);}
	.st23{fill:none;}
	.st24{opacity:0.7;fill:#FFFFFF;}
	.st25{fill-rule:evenodd;clip-rule:evenodd;fill:#FFFFFF;}
	.st26{fill:#F15A29;}
	.st27{fill:#FBB040;}
	.st28{fill:#B3CF50;}
	.st29{fill:#17977F;}
	.st30{fill:#38D9C3;}
	.st31{fill:#1BAFA5;}
	.st32{fill:#287DAA;}
	.st33{clip-path:url(#SVGID_18_);}
	.st34{fill:#443C86;}
	.st35{fill:#92278F;}
	.st36{fill:#DA1C5C;}
	.st37{fill:#662D91;}
	.st38{fill:#ED1C24;}
</style>
<circle class="st31" cx="50.5" cy="50.2" r="50.2"/>
<g>
	<path class="st0" d="M52.3,20.8c0.1,1.6,0.1,3.3,0.2,4.9h-3.2c0.1-1.6,0.1-3.3,0.2-4.9h-7.8c-5.2,19.8-10.4,39.6-15.6,59.4h21
		c0.1-1.6,0.1-3.3,0.2-4.9h7.2c0.1,1.6,0.1,3.3,0.2,4.9h21c-5.2-19.8-10.4-39.6-15.6-59.4H52.3z M49,33.1c1.3,0,2.5,0,3.8,0
		c0.2,4.6,0.4,9.1,0.6,13.7h-4.9C48.7,42.2,48.9,37.7,49,33.1L49,33.1z M47.6,67.9c0.2-4.6,0.4-9.1,0.6-13.7c1.8,0,3.7,0,5.5,0
		c0.2,4.6,0.4,9.1,0.6,13.7H47.6z M47.6,67.9"/>
	<path class="st0" d="M65.2,20.8h-2.6c6.6,19.8,13.2,39.6,19.8,59.4h7.2C81.4,60.4,73.3,40.6,65.2,20.8L65.2,20.8z M65.2,20.8"/>
	<path class="st0" d="M36.6,20.8c-8.1,19.8-16.2,39.6-24.3,59.4h7.2c6.6-19.8,13.2-39.6,19.8-59.4H36.6z M36.6,20.8"/>
</g>
</svg>
