<?xml version="1.0" encoding="utf-8"?>
<!-- Generator: Adobe Illustrator 19.1.0, SVG Export Plug-In . SVG Version: 6.00 Build 0)  -->
<svg version="1.1" id="Capa_1" xmlns="http://www.w3.org/2000/svg" xmlns:xlink="http://www.w3.org/1999/xlink" x="0px" y="0px"
	 viewBox="0 0 101 101" style="enable-background:new 0 0 101 101;" xml:space="preserve">
<style type="text/css">
	.st0{fill:#FFFFFF;}
	.st1{fill:#F6921E;}
	.st2{fill:#00A69C;}
	.st3{opacity:0.8;}
	.st4{clip-path:url(#SVGID_2_);}
	.st5{fill:#016458;}
	.st6{fill:#231F20;}
	.st7{fill:#9E1F63;}
	.st8{fill:#4F6E32;}
	.st9{fill:#618B3D;}
	.st10{fill:#008478;}
	.st11{fill:#7C1A52;}
	.st12{fill:#89BC40;}
	.st13{fill:#D91C5C;}
	.st14{clip-path:url(#SVGID_4_);}
	.st15{clip-path:url(#SVGID_6_);}
	.st16{clip-path:url(#SVGID_8_);}
	.st17{clip-path:url(#SVGID_10_);}
	.st18{opacity:0.8;fill:#FFFFFF;}
	.st19{opacity:0.6;fill:#FFFFFF;}
	.st20{clip-path:url(#SVGID_12_);}
	.st21{clip-path:url(#SVGID_14_);}
	.st22{clip-path:url(#SVGID_16_);}
	.st23{fill:none;}
	.st24{opacity:0.7;fill:#FFFFFF;}
	.st25{fill-rule:evenodd;clip-rule:evenodd;fill:#FFFFFF;}
	.st26{fill:#F15A29;}
	.st27{fill:#FBB040;}
	.st28{fill:#B3CF50;}
	.st29{fill:#17977F;}
	.st30{fill:#38D9C3;}
	.st31{fill:#1BAFA5;}
	.st32{fill:#287DAA;}
	.st33{clip-path:url(#SVGID_18_);}
	.st34{fill:#443C86;}
	.st35{fill:#92278F;}
	.st36{fill:#DA1C5C;}
	.st37{fill:#662D91;}
	.st38{fill:#ED1C24;}
</style>
<g>
	<g>
		<path class="st1" d="M21.8,52.2c0.8,0,1.6-0.1,2.3-0.1v-7.9c-0.7-0.1-1.5-0.1-2.3-0.1c-4.5,0-8.2,1.7-8.2,3.7v0.8
			C13.6,50.5,17.3,52.2,21.8,52.2L21.8,52.2z M21.8,52.2"/>
		<path class="st1" d="M21.8,56.3c0.8,0,1.6-0.1,2.3-0.1v-2.3C23.3,54,22.6,54,21.8,54c-3.9,0-7.2-1.3-8-2.9
			c-0.1,0.2-0.2,0.5-0.2,0.8v0.8C13.6,54.7,17.3,56.3,21.8,56.3L21.8,56.3z M21.8,56.3"/>
		<path class="st1" d="M24.1,58.2V58c-0.7,0.1-1.5,0.1-2.3,0.1c-3.9,0-7.2-1.3-8-2.9c-0.1,0.2-0.2,0.5-0.2,0.8v0.8
			c0,2,3.7,3.7,8.2,3.7c0.9,0,1.8-0.1,2.6-0.2c-0.2-0.4-0.3-0.8-0.3-1.3V58.2z M24.1,58.2"/>
		<path class="st1" d="M33.5,37.7c-4.5,0-8.2,1.7-8.2,3.7v0.8c0,2,3.7,3.7,8.2,3.7c4.5,0,8.2-1.7,8.2-3.7v-0.8
			C41.7,39.4,38,37.7,33.5,37.7L33.5,37.7z M33.5,37.7"/>
		<path class="st1" d="M33.5,47.8c-3.9,0-7.2-1.3-8-2.9c-0.1,0.2-0.2,0.5-0.2,0.8v0.8c0,2,3.7,3.7,8.2,3.7c4.5,0,8.2-1.7,8.2-3.7
			v-0.8c0-0.3-0.1-0.5-0.2-0.8C40.8,46.5,37.5,47.8,33.5,47.8L33.5,47.8z M33.5,47.8"/>
		<path class="st1" d="M33.5,51.9c-3.9,0-7.2-1.3-8-2.9c-0.1,0.2-0.2,0.5-0.2,0.8v0.8c0,2,3.7,3.7,8.2,3.7c4.5,0,8.2-1.7,8.2-3.7
			v-0.8c0-0.3-0.1-0.5-0.2-0.8C40.8,50.6,37.5,51.9,33.5,51.9L33.5,51.9z M33.5,51.9"/>
		<path class="st1" d="M33.5,56.2c-3.9,0-7.2-1.3-8-2.9c-0.1,0.2-0.2,0.5-0.2,0.8v0.8c0,2,3.7,3.7,8.2,3.7c4.5,0,8.2-1.7,8.2-3.7
			v-0.8c0-0.3-0.1-0.5-0.2-0.8C40.8,55,37.5,56.2,33.5,56.2L33.5,56.2z M33.5,56.2"/>
		<path class="st1" d="M33.5,60.4c-3.9,0-7.2-1.3-8-2.9c-0.1,0.2-0.2,0.5-0.2,0.8V59c0,2,3.7,3.7,8.2,3.7c4.5,0,8.2-1.7,8.2-3.7
			v-0.8c0-0.3-0.1-0.5-0.2-0.8C40.8,59.1,37.5,60.4,33.5,60.4L33.5,60.4z M33.5,60.4"/>
	</g>
	<g>
		<path class="st1" d="M50.5,42.7c-4.5,0-8.2,1.7-8.2,3.7v0.8c0,2,3.7,3.7,8.2,3.7c4.5,0,8.2-1.7,8.2-3.7v-0.8
			C58.6,44.4,55,42.7,50.5,42.7L50.5,42.7z M50.5,42.7"/>
		<path class="st1" d="M50.5,52.7c-3.9,0-7.2-1.3-8-2.9c-0.1,0.2-0.2,0.5-0.2,0.8v0.8c0,2,3.7,3.7,8.2,3.7c4.5,0,8.2-1.7,8.2-3.7
			v-0.8c0-0.3-0.1-0.5-0.2-0.8C57.7,51.5,54.4,52.7,50.5,52.7L50.5,52.7z M50.5,52.7"/>
		<path class="st1" d="M50.5,56.9c-3.9,0-7.2-1.3-8-2.9c-0.1,0.2-0.2,0.5-0.2,0.8v0.8c0,2,3.7,3.7,8.2,3.7c4.5,0,8.2-1.7,8.2-3.7
			v-0.8c0-0.3-0.1-0.5-0.2-0.8C57.7,55.6,54.4,56.9,50.5,56.9L50.5,56.9z M50.5,56.9"/>
		<path class="st1" d="M50.5,61.2c-3.9,0-7.2-1.3-8-2.9c-0.1,0.2-0.2,0.5-0.2,0.8v0.8c0,2,3.7,3.7,8.2,3.7c4.5,0,8.2-1.7,8.2-3.7V59
			c0-0.3-0.1-0.5-0.2-0.8C57.7,60,54.4,61.2,50.5,61.2L50.5,61.2z M50.5,61.2"/>
	</g>
	<g>
		<path class="st2" d="M70.2,35c0-18.9-15.4-34.3-34.3-34.3C17,0.7,1.6,16.1,1.6,35C1.6,54,17,69.3,35.9,69.3
			C54.8,69.3,70.2,54,70.2,35L70.2,35z M35.9,60.8c-14.2,0-25.7-11.5-25.7-25.7c0-14.2,11.5-25.7,25.7-25.7
			c14.2,0,25.7,11.5,25.7,25.7C61.6,49.2,50.1,60.8,35.9,60.8L35.9,60.8z M35.9,60.8"/>
		<path class="st2" d="M97.5,88.9L66.5,57.2c-2.3,3.8-5.4,7-9,9.4l31.1,31.7c2.5,2.6,6.5,2.6,9,0C100,95.7,100,91.5,97.5,88.9
			L97.5,88.9z M97.5,88.9"/>
	</g>
</g>
</svg>
