<?xml version="1.0" encoding="utf-8"?>
<!-- Generator: Adobe Illustrator 19.1.0, SVG Export Plug-In . SVG Version: 6.00 Build 0)  -->
<svg version="1.1" id="Capa_1" xmlns="http://www.w3.org/2000/svg" xmlns:xlink="http://www.w3.org/1999/xlink" x="0px" y="0px"
	 viewBox="0 0 101 101" style="enable-background:new 0 0 101 101;" xml:space="preserve">
<style type="text/css">
	.st0{fill:#FFFFFF;}
	.st1{fill:#F6921E;}
	.st2{fill:#00A69C;}
	.st3{opacity:0.8;}
	.st4{clip-path:url(#SVGID_2_);}
	.st5{fill:#016458;}
	.st6{fill:#231F20;}
	.st7{fill:#9E1F63;}
	.st8{fill:#4F6E32;}
	.st9{fill:#618B3D;}
	.st10{fill:#008478;}
	.st11{fill:#7C1A52;}
	.st12{fill:#89BC40;}
	.st13{fill:#D91C5C;}
	.st14{clip-path:url(#SVGID_4_);}
	.st15{clip-path:url(#SVGID_6_);}
	.st16{clip-path:url(#SVGID_8_);}
	.st17{clip-path:url(#SVGID_10_);}
	.st18{opacity:0.8;fill:#FFFFFF;}
	.st19{opacity:0.6;fill:#FFFFFF;}
	.st20{clip-path:url(#SVGID_12_);}
	.st21{clip-path:url(#SVGID_14_);}
	.st22{clip-path:url(#SVGID_16_);}
	.st23{fill:none;}
	.st24{opacity:0.7;fill:#FFFFFF;}
	.st25{fill-rule:evenodd;clip-rule:evenodd;fill:#FFFFFF;}
	.st26{fill:#F15A29;}
	.st27{fill:#FBB040;}
	.st28{fill:#B3CF50;}
	.st29{fill:#17977F;}
	.st30{fill:#38D9C3;}
	.st31{fill:#1BAFA5;}
	.st32{fill:#287DAA;}
	.st33{clip-path:url(#SVGID_18_);}
	.st34{fill:#443C86;}
	.st35{fill:#92278F;}
	.st36{fill:#DA1C5C;}
	.st37{fill:#662D91;}
	.st38{fill:#ED1C24;}
</style>
<circle class="st32" cx="50.5" cy="50.5" r="50.2"/>
<path class="st0" d="M84.4,55l-0.2-0.2c-0.1-0.1-0.2-0.2-0.3-0.3L67.5,38.2c0,0-0.1-0.1-0.1-0.1c-0.8-0.7-1.8-1.2-2.8-1.5v-4
	c0-1-0.8-1.8-1.8-1.8h-8c-1,0-1.8,0.8-1.8,1.8v3.7H19.2c-2.9,0-5.2,2.3-5.2,5.2v31.1c0,1,0.8,1.8,1.8,1.8h4.6
	c0.8,3.5,3.9,6.1,7.7,6.1s6.9-2.6,7.7-6.1h30.1c0.8,3.5,3.9,6.1,7.7,6.1c3.7,0,6.9-2.6,7.7-6.1c3.2-0.1,5.8-2.8,5.8-6V61
	C87,58.8,86,56.6,84.4,55L84.4,55z M56.6,34.4h4.5v2h-4.5V34.4z M28,77c-2.4,0-4.3-2-4.3-4.3c0-2.4,2-4.3,4.3-4.3s4.3,2,4.3,4.3
	C32.4,75.1,30.4,77,28,77L28,77z M37.1,51.8c0,1-0.8,1.8-1.8,1.8h-2.9v2.9c0,1-0.8,1.8-1.8,1.8h-3.4c-1,0-1.8-0.8-1.8-1.8v-2.9h-2.9
	c-1,0-1.8-0.8-1.8-1.8v-3.4c0-1,0.8-1.8,1.8-1.8h2.9v-2.9c0-1,0.8-1.8,1.8-1.8h3.4c1,0,1.8,0.8,1.8,1.8v2.9h2.9c1,0,1.8,0.8,1.8,1.8
	V51.8z M58.5,53.5c-0.9,0-1.5-0.7-1.5-1.5v-8.3c0-0.5,0.4-0.9,0.9-0.9h5.5c0.5,0,1.1,0.2,1.4,0.6l8.5,8.5c0.4,0.4,0.3,0.9,0.2,1.1
	c-0.1,0.2-0.3,0.6-0.9,0.6H58.5z M73.5,77c-2.4,0-4.3-2-4.3-4.3c0-2.4,1.9-4.3,4.3-4.3s4.4,2,4.4,4.3C77.8,75.1,75.9,77,73.5,77
	L73.5,77z M58.9,28.9c-1,0-1.8-0.8-1.8-1.8v-4.9c0-1,0.8-1.8,1.8-1.8c1,0,1.8,0.8,1.8,1.8v4.9C60.6,28.1,59.8,28.9,58.9,28.9
	L58.9,28.9z M67.4,30.4c-0.5,0-0.9-0.2-1.2-0.5c-0.7-0.7-0.7-1.8,0-2.5l3.1-3.1c0.7-0.7,1.8-0.7,2.5,0c0.7,0.7,0.7,1.8,0,2.5
	l-3.1,3.1C68.3,30.2,67.8,30.4,67.4,30.4L67.4,30.4z M51.2,30.4c-0.5,0-0.9-0.2-1.2-0.5l-3.1-3.1c-0.7-0.7-0.7-1.8,0-2.5
	c0.7-0.7,1.8-0.7,2.5,0l3.1,3.1c0.7,0.7,0.7,1.8,0,2.5C52.1,30.2,51.6,30.4,51.2,30.4L51.2,30.4z M51.2,30.4"/>
</svg>
