<?xml version="1.0" encoding="utf-8"?>
<!-- Generator: Adobe Illustrator 19.1.0, SVG Export Plug-In . SVG Version: 6.00 Build 0)  -->
<svg version="1.1" id="Capa_1" xmlns="http://www.w3.org/2000/svg" xmlns:xlink="http://www.w3.org/1999/xlink" x="0px" y="0px"
	 viewBox="0 0 101 101" style="enable-background:new 0 0 101 101;" xml:space="preserve">
<style type="text/css">
	.st0{fill:#FFFFFF;}
	.st1{fill:#F6921E;}
	.st2{fill:#00A69C;}
	.st3{opacity:0.8;}
	.st4{clip-path:url(#SVGID_2_);}
	.st5{fill:#016458;}
	.st6{fill:#231F20;}
	.st7{fill:#9E1F63;}
	.st8{fill:#4F6E32;}
	.st9{fill:#618B3D;}
	.st10{fill:#008478;}
	.st11{fill:#7C1A52;}
	.st12{fill:#89BC40;}
	.st13{fill:#D91C5C;}
	.st14{clip-path:url(#SVGID_4_);}
	.st15{clip-path:url(#SVGID_6_);}
	.st16{clip-path:url(#SVGID_8_);}
	.st17{clip-path:url(#SVGID_10_);}
	.st18{opacity:0.8;fill:#FFFFFF;}
	.st19{opacity:0.6;fill:#FFFFFF;}
	.st20{clip-path:url(#SVGID_12_);}
	.st21{clip-path:url(#SVGID_14_);}
	.st22{clip-path:url(#SVGID_16_);}
	.st23{fill:none;}
	.st24{opacity:0.7;fill:#FFFFFF;}
	.st25{fill-rule:evenodd;clip-rule:evenodd;fill:#FFFFFF;}
	.st26{fill:#F15A29;}
	.st27{fill:#FBB040;}
	.st28{fill:#B3CF50;}
	.st29{fill:#17977F;}
	.st30{fill:#38D9C3;}
	.st31{fill:#1BAFA5;}
	.st32{fill:#287DAA;}
	.st33{clip-path:url(#SVGID_18_);}
	.st34{fill:#443C86;}
	.st35{fill:#92278F;}
	.st36{fill:#DA1C5C;}
	.st37{fill:#662D91;}
	.st38{fill:#ED1C24;}
</style>
<circle class="st0" cx="50.5" cy="50.5" r="50.2"/>
<g>
	<path class="st26" d="M73.2,77.5H59.6l5.7-36c0.1-0.4-0.1-0.9-0.3-1.2c-0.3-0.3-0.7-0.5-1.2-0.5h-2.5v-4c0-2.6-2.4-4.8-5.3-4.8h-1
		c0.8-1.1,1.3-2.5,1.3-4c0-3.6-2.6-6.4-5.7-6.4c-3.2,0-5.7,2.9-5.7,6.4c0,1.5,0.5,2.9,1.3,4h-1c-2.9,0-5.3,2.1-5.3,4.8v4h-2.8
		c-0.4,0-0.9,0.2-1.2,0.5c-0.3,0.3-0.4,0.8-0.3,1.2l5.9,36H27.8c-0.8,0-1.5,0.7-1.5,1.5c0,0.8,0.7,1.5,1.5,1.5h45.3
		c0.8,0,1.5-0.7,1.5-1.5C74.7,78.1,74,77.5,73.2,77.5L73.2,77.5z M46.3,46.1h8.3c0.8,0,1.5,0.7,1.5,1.5c0,0.8-0.7,1.5-1.5,1.5h-8.3
		c-0.8,0-1.5-0.7-1.5-1.5C44.8,46.8,45.5,46.1,46.3,46.1L46.3,46.1z M56.6,54.4H44.4c-0.8,0-1.5-0.7-1.5-1.5c0-0.8,0.7-1.5,1.5-1.5
		h12.1c0.8,0,1.5,0.7,1.5,1.5C58.1,53.8,57.4,54.4,56.6,54.4L56.6,54.4z M56.6,54.4"/>
</g>
</svg>
