<?xml version="1.0" encoding="utf-8"?>
<!-- Generator: Adobe Illustrator 19.1.0, SVG Export Plug-In . SVG Version: 6.00 Build 0)  -->
<svg version="1.1" id="Capa_1" xmlns="http://www.w3.org/2000/svg" xmlns:xlink="http://www.w3.org/1999/xlink" x="0px" y="0px"
	 viewBox="0 0 101 101" style="enable-background:new 0 0 101 101;" xml:space="preserve">
<style type="text/css">
	.st0{fill:#FFFFFF;}
	.st1{fill:#F6921E;}
	.st2{fill:#00A69C;}
	.st3{opacity:0.8;}
	.st4{clip-path:url(#SVGID_2_);}
	.st5{fill:#016458;}
	.st6{fill:#231F20;}
	.st7{fill:#9E1F63;}
	.st8{fill:#4F6E32;}
	.st9{fill:#618B3D;}
	.st10{fill:#008478;}
	.st11{fill:#7C1A52;}
	.st12{fill:#89BC40;}
	.st13{fill:#D91C5C;}
	.st14{clip-path:url(#SVGID_4_);}
	.st15{clip-path:url(#SVGID_6_);}
	.st16{clip-path:url(#SVGID_8_);}
	.st17{clip-path:url(#SVGID_10_);}
	.st18{opacity:0.8;fill:#FFFFFF;}
	.st19{opacity:0.6;fill:#FFFFFF;}
	.st20{clip-path:url(#SVGID_12_);}
	.st21{clip-path:url(#SVGID_14_);}
	.st22{clip-path:url(#SVGID_16_);}
	.st23{fill:none;}
	.st24{opacity:0.7;fill:#FFFFFF;}
	.st25{fill-rule:evenodd;clip-rule:evenodd;fill:#FFFFFF;}
	.st26{fill:#F15A29;}
	.st27{fill:#FBB040;}
	.st28{fill:#B3CF50;}
	.st29{fill:#17977F;}
	.st30{fill:#38D9C3;}
	.st31{fill:#1BAFA5;}
	.st32{fill:#287DAA;}
	.st33{clip-path:url(#SVGID_18_);}
	.st34{fill:#443C86;}
	.st35{fill:#92278F;}
	.st36{fill:#DA1C5C;}
	.st37{fill:#662D91;}
	.st38{fill:#ED1C24;}
</style>
<g>
	<g>
		<path class="st25" d="M74.6,58c11.7,1.7,14.1-17.2,4.4-19.9C66.5,34.6,62.9,56.3,74.6,58z M76.2,39.5c5.9,0.2,6.4,18.2-0.8,16.6
			C70.6,55.1,70,39.3,76.2,39.5z"/>
		<path class="st25" d="M44.5,51.1c-2.4,0.8-2.8,4-5.9,3.6c-0.3-2.3,1.2-4.7,2.4-7.4c1.3-2.9,4-6.7,1.8-8.9
			c-2.5-0.7-4.1,0.7-5.7,1.9c-1.1,0.8-3.1,1.8-1.8,2.7c1.6,0.4,1.9-1.6,3.6-1.6c1.1,1.1,0.1,2.7-0.4,3.8c-0.5,1.1-1,2.4-1.6,3.6
			c-1,2.3-3.2,5.3-3,7.4c0.1,1.2,1.2,2.1,3.8,1.7c1.6-0.2,3.4-1.7,4.8-3C43.6,53.9,45.8,52.2,44.5,51.1z"/>
		<path class="st25" d="M57,58c2.3-6,4.9-11.7,7.1-17.7c0.4-0.3,1.3-0.1,2-0.2c0-0.6,0-1.3,0-1.9c-2,0-4.9,0-6.3,0
			c0,0.6,0,1.3,0,1.9c0.7,0,1.4,0,2.2,0c-1.5,3.6-2.9,7.2-4.4,10.8c-1.4-3.4-2.4-7.1-3.8-10.6c0.3-0.4,1.4-0.1,2-0.2
			c0-0.6,0-1.3,0-1.9c-2.8,0-6.6,0-8.7,0c0,0.6,0,1.3,0,1.9c0.7,0,1.5,0,2.2,0c2.3,5.8,4.3,11.9,6.3,17.9C56.1,58,56.5,58,57,58z"/>
		<path class="st25" d="M89.3,57.3c6.8,1.9,13.2-1,10.9-6.8c-1.5-3.9-9.7-4.4-8.5-9c0.2-0.8,1.4-1.6,2.2-1.7c3.7-0.6,3.4,2.2,5.7,3
			c0.8-1,0.4-3.7,0.2-4.9c-0.9-0.1-1.7-0.1-1.4,0.8c-6.2-1.5-10.1,0.6-10.3,4.4c-0.3,5.7,9.1,6,8.7,10.6c-0.2,2.1-3.3,3.1-5.9,2.1
			c-1.6-0.6-1.2-1.9-3.6-2.1c-0.4,1.1-0.1,2.9-0.2,4.3C87.9,57.7,89.7,58.3,89.3,57.3z"/>
		<path class="st25" d="M12,57.6c0-0.7,0-1.5,0-2.2c-1.3,0-2.5,0-3.8,0c0-3.6,0-7.2,0-10.8c4.5-0.4,9.8-0.1,14.7-0.2
			c0.5,3.3,0.1,7.2,0.2,10.8c-0.8,0.4-2.4,0.1-3.6,0.2c0,0.7,0,1.5,0,2.2c3.9,0,7.8,0,11.7,0c0-0.7,0-1.5,0-2.2c-1.2,0-2.4,0-3.6,0
			c0-7.9,0-15.7,0-23.6c0.8-0.4,2.4-0.1,3.6-0.2c0-0.8,0-1.6,0-2.4c-3.5,0.4-7.9,0.1-11.7,0.2c0.1,0.7-0.2,1.7,0.2,2.2
			c1.1,0,2.2,0,3.4,0c0,3.5,0,7,0,10.4c-4.9,0-9.8,0-14.7,0C8,38.9,8.4,35.1,8.2,31.8c0.8-0.4,2.4-0.1,3.6-0.2
			c0.4-0.5,0.1-1.5,0.2-2.2c-3.9,0-7.8,0-11.7,0c0,0.7,0,1.5,0,2.2c1.2,0,2.4,0,3.6,0c0,7.9,0,15.7,0,23.6c-0.8,0.3-2.4,0.1-3.6,0.2
			c0,0.7,0,1.5,0,2.2C4.2,57.6,8.1,57.6,12,57.6z"/>
		<path class="st25" d="M42.5,33.5c3.9,1,4.5-3.2,2-4C41.7,28.7,38.9,32.6,42.5,33.5z"/>
	</g>
	<g>
		<path class="st0" d="M0.3,71.8v-7h2.1v0.7C2.7,65.2,3,65,3.2,64.9c0.3-0.1,0.7-0.2,1.1-0.2c0.8,0,1.4,0.3,1.8,0.8
			c0.4,0.5,0.6,1.2,0.6,1.9c0,0.8-0.2,1.5-0.7,1.9C5.5,69.7,5,70,4.3,70c-0.3,0-0.7,0-0.9-0.2c-0.3-0.1-0.5-0.3-0.8-0.5v2.4H0.3z
			 M2.6,67.3c0,0.4,0.1,0.7,0.3,0.9c0.2,0.2,0.4,0.3,0.7,0.3c0.3,0,0.5-0.1,0.6-0.3c0.2-0.2,0.3-0.5,0.3-0.9c0-0.4-0.1-0.7-0.3-0.9
			c-0.2-0.2-0.4-0.3-0.7-0.3c-0.3,0-0.5,0.1-0.7,0.3C2.7,66.6,2.6,66.9,2.6,67.3z"/>
		<path class="st0" d="M14.1,67.8H9.7c0,0.3,0.1,0.5,0.3,0.7c0.2,0.2,0.5,0.3,0.8,0.3c0.2,0,0.4,0,0.6-0.1c0.1-0.1,0.2-0.2,0.4-0.3
			l2.2,0.2c-0.3,0.5-0.7,0.9-1.2,1.1c-0.5,0.2-1.1,0.3-2,0.3C10,70,9.4,69.9,9,69.7c-0.4-0.2-0.8-0.5-1.1-0.9
			c-0.3-0.4-0.4-0.9-0.4-1.5c0-0.8,0.3-1.4,0.9-1.9c0.6-0.5,1.4-0.7,2.4-0.7c0.8,0,1.5,0.1,2,0.3c0.5,0.2,0.8,0.5,1.1,0.9
			c0.2,0.4,0.4,1,0.4,1.6V67.8z M11.9,66.9c0-0.4-0.2-0.6-0.3-0.8c-0.2-0.2-0.4-0.2-0.7-0.2c-0.4,0-0.6,0.1-0.8,0.4
			c-0.1,0.2-0.2,0.4-0.3,0.7H11.9z"/>
		<path class="st0" d="M14.9,67.3c0-0.8,0.3-1.4,0.9-1.9c0.6-0.5,1.4-0.8,2.4-0.8c1.2,0,2,0.3,2.6,0.9c0.5,0.5,0.7,1.1,0.7,1.7
			c0,0.8-0.3,1.4-0.9,1.9C20,69.7,19.2,70,18.2,70c-0.9,0-1.7-0.2-2.2-0.6C15.2,68.8,14.9,68.2,14.9,67.3z M17.1,67.3
			c0,0.4,0.1,0.8,0.3,1c0.2,0.2,0.5,0.3,0.8,0.3c0.3,0,0.6-0.1,0.8-0.3c0.2-0.2,0.3-0.6,0.3-1c0-0.4-0.1-0.8-0.3-1
			c-0.2-0.2-0.5-0.3-0.8-0.3c-0.3,0-0.6,0.1-0.8,0.3C17.2,66.5,17.1,66.9,17.1,67.3z"/>
		<path class="st0" d="M22.6,71.8v-7h2.1v0.7c0.3-0.3,0.5-0.5,0.8-0.6c0.3-0.1,0.7-0.2,1.1-0.2c0.8,0,1.4,0.3,1.8,0.8
			c0.4,0.5,0.6,1.2,0.6,1.9c0,0.8-0.2,1.5-0.7,1.9c-0.5,0.4-1,0.7-1.7,0.7c-0.3,0-0.7,0-0.9-0.2c-0.3-0.1-0.5-0.3-0.7-0.5v2.4H22.6z
			 M24.8,67.3c0,0.4,0.1,0.7,0.3,0.9c0.2,0.2,0.4,0.3,0.7,0.3c0.3,0,0.5-0.1,0.6-0.3c0.2-0.2,0.3-0.5,0.3-0.9c0-0.4-0.1-0.7-0.3-0.9
			c-0.2-0.2-0.4-0.3-0.7-0.3c-0.3,0-0.5,0.1-0.7,0.3C24.9,66.6,24.8,66.9,24.8,67.3z"/>
		<path class="st0" d="M30,62.9h2.2v7H30V62.9z"/>
		<path class="st0" d="M40,67.8h-4.4c0,0.3,0.1,0.5,0.3,0.7c0.2,0.2,0.5,0.3,0.8,0.3c0.2,0,0.4,0,0.6-0.1c0.1-0.1,0.2-0.2,0.4-0.3
			l2.2,0.2c-0.3,0.5-0.7,0.9-1.2,1.1c-0.5,0.2-1.1,0.3-2,0.3c-0.8,0-1.4-0.1-1.8-0.3c-0.4-0.2-0.8-0.5-1.1-0.9
			c-0.3-0.4-0.4-0.9-0.4-1.5c0-0.8,0.3-1.4,0.9-1.9c0.6-0.5,1.4-0.7,2.4-0.7c0.8,0,1.5,0.1,2,0.3c0.5,0.2,0.8,0.5,1.1,0.9
			c0.2,0.4,0.4,1,0.4,1.6V67.8z M37.8,66.9c0-0.4-0.2-0.6-0.3-0.8c-0.2-0.2-0.4-0.2-0.7-0.2c-0.3,0-0.6,0.1-0.8,0.4
			c-0.1,0.2-0.2,0.4-0.3,0.7H37.8z"/>
		<path class="st0" d="M50.8,69.8h-2.1V69c-0.3,0.3-0.6,0.6-0.9,0.7c-0.3,0.1-0.7,0.2-1.1,0.2c-0.6,0-1.1-0.2-1.4-0.5
			c-0.3-0.3-0.5-0.8-0.5-1.5v-3.2h2.2v2.8c0,0.3,0.1,0.5,0.2,0.7c0.1,0.1,0.3,0.2,0.6,0.2c0.3,0,0.5-0.1,0.6-0.3
			c0.2-0.2,0.3-0.5,0.3-1v-2.4h2.2V69.8z"/>
		<path class="st0" d="M52.2,64.8h2.1v0.8c0.3-0.3,0.6-0.6,0.9-0.7c0.3-0.1,0.7-0.2,1.1-0.2c0.6,0,1.1,0.2,1.4,0.5
			c0.3,0.3,0.5,0.8,0.5,1.5v3.2H56v-2.8c0-0.3-0.1-0.5-0.2-0.7c-0.1-0.1-0.3-0.2-0.6-0.2c-0.3,0-0.5,0.1-0.6,0.3
			c-0.2,0.2-0.3,0.5-0.3,1v2.4h-2.2V64.8z"/>
		<path class="st0" d="M59.6,62.9h2.2v7h-2.2V62.9z"/>
		<path class="st0" d="M63.3,62.9h2.2v1.3h-2.2V62.9z M63.3,64.8h2.2v5.1h-2.2V64.8z"/>
		<path class="st0" d="M67,64.8H69v0.7c0.3-0.3,0.6-0.5,0.9-0.7c0.3-0.1,0.7-0.2,1.1-0.2c0.5,0,0.8,0.1,1.1,0.2
			c0.3,0.1,0.5,0.4,0.7,0.6c0.3-0.3,0.7-0.6,0.9-0.7c0.3-0.1,0.6-0.2,1.1-0.2c0.6,0,1.1,0.2,1.4,0.5c0.3,0.3,0.5,0.8,0.5,1.5v3.2
			h-2.2V67c0-0.2-0.1-0.4-0.1-0.5c-0.2-0.2-0.3-0.3-0.6-0.3c-0.3,0-0.5,0.1-0.6,0.2C73,66.6,73,66.9,73,67.2v2.6h-2.2v-2.8
			c0-0.2,0-0.4,0-0.5c0-0.1-0.1-0.2-0.2-0.3c-0.1-0.1-0.3-0.1-0.4-0.1c-0.2,0-0.5,0.1-0.6,0.3c-0.2,0.2-0.2,0.4-0.2,0.8v2.6H67V64.8
			z"/>
		<path class="st0" d="M78.1,62.9h2.2v1.3h-2.2V62.9z M78.1,64.8h2.2v5.1h-2.2V64.8z"/>
		<path class="st0" d="M84.4,62.9v1.9h1.2v1.4h-1.2V68c0,0.2,0,0.4,0.1,0.4c0.1,0.1,0.2,0.2,0.4,0.2c0.2,0,0.4,0,0.7-0.1l0.2,1.3
			c-0.5,0.1-1.1,0.2-1.5,0.2c-0.5,0-0.9-0.1-1.2-0.2c-0.3-0.1-0.5-0.3-0.6-0.6c-0.1-0.2-0.2-0.7-0.2-1.2v-1.8h-0.8v-1.4h0.8v-0.9
			L84.4,62.9z"/>
		<path class="st0" d="M93.1,67.8h-4.4c0,0.3,0.1,0.5,0.3,0.7c0.2,0.2,0.5,0.3,0.8,0.3c0.2,0,0.4,0,0.6-0.1c0.1-0.1,0.2-0.2,0.4-0.3
			l2.2,0.2c-0.3,0.5-0.7,0.9-1.2,1.1c-0.5,0.2-1.1,0.3-2,0.3c-0.8,0-1.4-0.1-1.8-0.3c-0.4-0.2-0.8-0.5-1.1-0.9
			c-0.3-0.4-0.4-0.9-0.4-1.5c0-0.8,0.3-1.4,0.9-1.9c0.6-0.5,1.4-0.7,2.4-0.7c0.8,0,1.5,0.1,1.9,0.3c0.5,0.2,0.8,0.5,1.1,0.9
			c0.3,0.4,0.4,1,0.4,1.6V67.8z M90.8,66.9c0-0.4-0.2-0.6-0.3-0.8c-0.2-0.2-0.4-0.2-0.7-0.2c-0.4,0-0.6,0.1-0.8,0.4
			c-0.1,0.2-0.2,0.4-0.3,0.7H90.8z"/>
		<path class="st0" d="M100.1,62.9v7h-2.1v-0.8c-0.3,0.3-0.6,0.5-0.8,0.6C97,69.9,96.6,70,96.2,70c-0.8,0-1.4-0.3-1.8-0.8
			c-0.4-0.5-0.6-1.2-0.6-1.9c0-0.8,0.2-1.5,0.7-1.9c0.5-0.4,1-0.7,1.7-0.7c0.3,0,0.7,0.1,0.9,0.2c0.3,0.1,0.5,0.3,0.7,0.5v-2.4
			H100.1z M97.9,67.3c0-0.4-0.1-0.7-0.3-0.9c-0.2-0.2-0.4-0.3-0.7-0.3c-0.3,0-0.5,0.1-0.6,0.3c-0.2,0.2-0.3,0.5-0.3,0.9
			c0,0.4,0.1,0.7,0.3,0.9c0.2,0.2,0.4,0.3,0.7,0.3c0.3,0,0.5-0.1,0.7-0.3C97.8,68.1,97.9,67.7,97.9,67.3z"/>
	</g>
</g>
</svg>
