<?xml version="1.0" encoding="utf-8"?>
<!-- Generator: Adobe Illustrator 19.1.0, SVG Export Plug-In . SVG Version: 6.00 Build 0)  -->
<svg version="1.1" id="Capa_1" xmlns="http://www.w3.org/2000/svg" xmlns:xlink="http://www.w3.org/1999/xlink" x="0px" y="0px"
	 viewBox="0 0 101 101" style="enable-background:new 0 0 101 101;" xml:space="preserve">
<style type="text/css">
	.st0{fill:#FFFFFF;}
	.st1{fill:#F6921E;}
	.st2{fill:#00A69C;}
	.st3{opacity:0.8;}
	.st4{clip-path:url(#SVGID_2_);}
	.st5{fill:#016458;}
	.st6{fill:#231F20;}
	.st7{fill:#9E1F63;}
	.st8{fill:#4F6E32;}
	.st9{fill:#618B3D;}
	.st10{fill:#008478;}
	.st11{fill:#7C1A52;}
	.st12{fill:#89BC40;}
	.st13{fill:#D91C5C;}
	.st14{clip-path:url(#SVGID_4_);}
	.st15{clip-path:url(#SVGID_6_);}
	.st16{clip-path:url(#SVGID_8_);}
	.st17{clip-path:url(#SVGID_10_);}
	.st18{opacity:0.8;fill:#FFFFFF;}
	.st19{opacity:0.6;fill:#FFFFFF;}
	.st20{clip-path:url(#SVGID_12_);}
	.st21{clip-path:url(#SVGID_14_);}
	.st22{clip-path:url(#SVGID_16_);}
	.st23{fill:none;}
	.st24{opacity:0.7;fill:#FFFFFF;}
	.st25{fill-rule:evenodd;clip-rule:evenodd;fill:#FFFFFF;}
	.st26{fill:#F15A29;}
	.st27{fill:#FBB040;}
	.st28{fill:#B3CF50;}
	.st29{fill:#17977F;}
	.st30{fill:#38D9C3;}
	.st31{fill:#1BAFA5;}
	.st32{fill:#287DAA;}
	.st33{clip-path:url(#SVGID_18_);}
	.st34{fill:#443C86;}
	.st35{fill:#92278F;}
	.st36{fill:#DA1C5C;}
	.st37{fill:#662D91;}
	.st38{fill:#ED1C24;}
</style>
<circle class="st0" cx="50.5" cy="50.5" r="50.2"/>
<g>
	<path class="st30" d="M53.8,41.3c0.6-1.4,1-3,1-4.6c0.1-1.7-0.1-3.4-0.6-5.1c-0.5-1.7-1.3-3.3-2.4-4.8c-1.1-1.4-2.5-2.6-3.9-3.4
		c-1.4-0.8-2.9-1.1-4-1.1c-0.5,0-1,0.1-1.2,0.2c-0.3,0.1-0.4,0.1-0.4,0.1s0,0.1,0.1,0.4c0.1,0.3,0.1,0.7,0.1,1.1c0,0.9,0,2-0.2,3.1
		c-0.2,2.3-0.1,5,0.7,7.7c0.4,1.3,1,2.6,1.7,3.9c0.7,1.2,1.5,2.4,2.4,3.3c0.8,0.9,2.5,2.9,3.2,3.4c0.2-1.1,0.3-2.3,0.3-3.5
		c0.1-0.8,0-1.6,0-2.5c0-0.8-0.2-1.6-0.2-2.4c-0.1-0.8-0.3-1.5-0.5-2.2c-0.2-0.7-0.5-1.3-0.7-1.9c-0.3-0.5-0.6-1.1-0.8-1.5
		c-0.2-0.5-0.6-0.8-0.8-1.1c-0.5-0.6-0.7-0.9-0.7-0.9s0.3,0.3,0.8,0.8c0.2,0.3,0.6,0.6,0.9,1c0.3,0.4,0.6,0.9,0.9,1.5
		c0.3,0.6,0.5,1.2,0.8,1.9c0.2,0.7,0.4,1.4,0.6,2.2c0.1,0.8,0.3,1.6,0.4,2.4c0.1,0.8,0.2,1.7,0.2,2.5c0,1,0,1.9,0,2.9
		c0.1-0.1,0.2-0.2,0.2-0.2C52.5,43.8,53.2,42.7,53.8,41.3L53.8,41.3z M53.8,41.3"/>
	<path class="st30" d="M46.2,48.3c0.1,0.2,0.2,0.4,0.4,0.6C40.2,50.2,35,54.8,33,60.8l0.4,0c0.5,0,1.3,0.1,2.7,0.4
		c0-0.4,0.2-0.8,0.4-1.1c1-1.3,2.5-2,4.3-2c2.7,0,5.5,0.1,8.4,1c1.5,0.5,3,0.4,4.6-0.3c4.5-1.8,8.5-1.6,11.7,0.4
		c0.4,0.3,0.8,0.5,1.2,0.8c-2.3-5.8-7.5-10.1-13.8-11.2c0.2-0.3,0.3-0.6,0.5-0.9c0.2-0.3,0.5-1,0.5-1.2c0-0.1,0-0.2,0-0.3
		c-0.6,0.8-1.2,1.6-1.7,2.4c-0.3,0-0.6,0-1-0.1c0.2-1.2,0.3-2.5,0.4-3.8c-0.1,0.1-0.2,0.2-0.3,0.3c-0.2,0.1-0.5,1.2-0.6,1.6
		c-0.1,0.6-0.2,1.2-0.4,1.8c-0.1,0-0.2,0-0.3,0c-0.9,0-1.8,0.1-2.7,0.2c-0.5-0.7-0.9-1.4-1.5-2.1c0,0.1,0,0.2,0,0.3
		C45.7,47.3,46.1,48.1,46.2,48.3L46.2,48.3z M46.2,48.3"/>
	<path class="st30" d="M56.6,43.4c0.5-0.4,1-0.8,1.4-1.2c0.5-0.3,1-0.6,1.5-0.9c0.5-0.2,1-0.5,1.4-0.7c0.5-0.1,0.9-0.3,1.3-0.4
		c0.4-0.1,0.7-0.1,1-0.2c0.6-0.1,0.9-0.1,0.9-0.1s-0.3,0.1-0.9,0.2c-0.3,0.1-0.6,0.1-1,0.2c-0.4,0.1-0.8,0.3-1.2,0.4
		c-0.4,0.2-0.9,0.5-1.3,0.7c-0.4,0.3-0.9,0.6-1.4,1c-0.4,0.4-0.9,0.8-1.3,1.2c-0.4,0.5-0.9,0.9-1.2,1.4c-0.6,0.7-1.1,1.4-1.5,2.1
		c0.6,0,2.6-0.2,3.5-0.3c1-0.1,2-0.4,3-0.7c1-0.3,2-0.8,2.9-1.4c1.8-1.1,3.2-2.6,4.2-4c0.5-0.7,1-1.4,1.5-1.9
		c0.2-0.2,0.4-0.5,0.6-0.6c0.2-0.1,0.2-0.2,0.2-0.2s-0.1-0.1-0.2-0.3c-0.1-0.2-0.3-0.5-0.6-0.7c-0.6-0.5-1.6-1.1-2.8-1.4
		c-1.2-0.3-2.6-0.3-3.9,0c-1.3,0.2-2.6,0.8-3.7,1.5c-1.1,0.7-2.1,1.6-2.9,2.6c-0.8,1-1.4,2.1-1.7,3.2c-0.4,1.1-0.5,2.1-0.5,2.9
		c0,0.1,0,0.2,0,0.3c0.4-0.6,0.9-1.1,1.4-1.6C55.7,44.3,56.2,43.8,56.6,43.4L56.6,43.4z M56.6,43.4"/>
	<path class="st30" d="M30.3,39.5c0.5,0.5,0.9,1.1,1.5,1.9c1,1.4,2.4,2.9,4.2,4c0.9,0.5,1.9,1,2.9,1.4c1,0.4,2.1,0.6,3,0.7
		c0.9,0.1,2.9,0.4,3.5,0.3c-0.5-0.7-1-1.5-1.5-2.1c-0.4-0.5-0.8-0.9-1.2-1.4c-0.4-0.5-0.9-0.8-1.3-1.2c-0.5-0.4-0.9-0.7-1.4-1
		c-0.5-0.3-0.9-0.5-1.3-0.7c-0.5-0.2-0.9-0.3-1.2-0.4c-0.4-0.2-0.7-0.2-1-0.2c-0.5-0.1-0.9-0.2-0.9-0.2s0.3,0,0.9,0.1
		c0.3,0,0.6,0,1,0.2c0.4,0.1,0.8,0.2,1.3,0.4c0.4,0.2,0.9,0.4,1.4,0.7c0.5,0.3,1,0.6,1.5,0.9c0.5,0.4,1,0.7,1.4,1.2
		c0.5,0.4,0.9,0.9,1.4,1.3c0.5,0.5,1,1.1,1.4,1.6c0-0.1,0-0.2,0-0.3c0-0.8-0.2-1.8-0.5-2.9c-0.4-1.1-0.9-2.2-1.7-3.2
		c-0.8-1-1.8-1.9-2.9-2.6c-1.1-0.7-2.4-1.2-3.7-1.5c-1.3-0.3-2.7-0.3-3.9,0c-1.2,0.3-2.2,0.8-2.8,1.4c-0.3,0.2-0.5,0.5-0.6,0.7
		c-0.1,0.2-0.2,0.3-0.2,0.3s0.1,0.1,0.3,0.2C29.8,39,30,39.3,30.3,39.5L30.3,39.5z M30.3,39.5"/>
	<path class="st30" d="M74.1,69.2c-2.8-3.7-6.4-6.5-10.2-9c-3.1-2-6.6-1.6-9.9-0.3c-2,0.8-4,0.9-5.9,0.3c-2.6-0.8-5.2-0.9-7.8-0.9
		c-1.1,0-2.1,0.4-2.7,1.3c-0.4,0.5,2.7,2.5,5.3,2.5c-0.5,1-9-1.1-10.1-1l-6.4-0.8c-2.3-0.2-2.3-1-4.5,0.2c-0.1,0-0.2,0-0.3,0
		c-1.3-0.1-2,0.3-2.7,1.1c-0.4,0.5-0.4,1.1-0.2,1.6c0.2,0.6,0.8,0.4,1.3,0.6c2.9,1.1,3.8,1.7,7.7,2.6c2.8,0.7,5.5,1.5,8.2,2.2
		c1.1,0.3,2.3,0.4,3.3,1c2.2,1.2,4.5,1.6,7,1.5c2.8-0.1,5.7,0,8.5,0c5,0,8.8,2,11.4,6.4l16.1,0C78.8,74.6,77.3,73.6,74.1,69.2
		L74.1,69.2z M74.1,69.2"/>
</g>
</svg>
