<?xml version="1.0" encoding="utf-8"?>
<!-- Generator: Adobe Illustrator 19.1.0, SVG Export Plug-In . SVG Version: 6.00 Build 0)  -->
<svg version="1.1" id="Capa_1" xmlns="http://www.w3.org/2000/svg" xmlns:xlink="http://www.w3.org/1999/xlink" x="0px" y="0px"
	 viewBox="0 0 101 101" style="enable-background:new 0 0 101 101;" xml:space="preserve">
<style type="text/css">
	.st0{fill:#FFFFFF;}
	.st1{fill:#F6921E;}
	.st2{fill:#00A69C;}
	.st3{opacity:0.8;}
	.st4{clip-path:url(#SVGID_2_);}
	.st5{fill:#016458;}
	.st6{fill:#231F20;}
	.st7{fill:#9E1F63;}
	.st8{fill:#4F6E32;}
	.st9{fill:#618B3D;}
	.st10{fill:#008478;}
	.st11{fill:#7C1A52;}
	.st12{fill:#89BC40;}
	.st13{fill:#D91C5C;}
	.st14{clip-path:url(#SVGID_4_);}
	.st15{clip-path:url(#SVGID_6_);}
	.st16{clip-path:url(#SVGID_8_);}
	.st17{clip-path:url(#SVGID_10_);}
	.st18{opacity:0.8;fill:#FFFFFF;}
	.st19{opacity:0.6;fill:#FFFFFF;}
	.st20{clip-path:url(#SVGID_12_);}
	.st21{clip-path:url(#SVGID_14_);}
	.st22{clip-path:url(#SVGID_16_);}
	.st23{fill:none;}
	.st24{opacity:0.7;fill:#FFFFFF;}
	.st25{fill-rule:evenodd;clip-rule:evenodd;fill:#FFFFFF;}
	.st26{fill:#F15A29;}
	.st27{fill:#FBB040;}
	.st28{fill:#B3CF50;}
	.st29{fill:#17977F;}
	.st30{fill:#38D9C3;}
	.st31{fill:#1BAFA5;}
	.st32{fill:#287DAA;}
	.st33{clip-path:url(#SVGID_18_);}
	.st34{fill:#443C86;}
	.st35{fill:#92278F;}
	.st36{fill:#DA1C5C;}
	.st37{fill:#662D91;}
	.st38{fill:#ED1C24;}
</style>
<g>
	<g>
		<rect x="29.9" y="27.5" class="st0" width="37.2" height="3.1"/>
		<rect x="29.9" y="33.5" class="st0" width="37.2" height="3.1"/>
		<rect x="29.8" y="15.5" class="st0" width="23.5" height="3.1"/>
		<rect x="29.8" y="21.5" class="st0" width="23.5" height="3.1"/>
		<rect x="29.8" y="40" class="st0" width="37.3" height="3.1"/>
		<rect x="29.8" y="46.1" class="st0" width="37.3" height="3.1"/>
		<rect x="29.8" y="51.8" class="st0" width="23.7" height="3.1"/>
		<g>
			<polygon class="st0" points="14.8,13.1 17,13.1 17,9.5 11.3,9.5 11.3,93.9 41.6,94 41.6,90.4 14.8,90.4 			"/>
			<polygon class="st23" points="72.7,56.8 72.6,56.8 72.7,56.8 72.7,21.2 57.9,21.2 57.9,5 23.4,5 23.4,82.3 41.6,82.3 41.6,81.8 
				41.6,82.3 72.7,82.4 			"/>
			<polygon class="st23" points="61.4,17.6 72.6,17.6 72.6,17.5 61.4,6.3 			"/>
			<path class="st0" d="M61.6,1.4H19.8v84.4l21.8,0v-3.6l-18.2,0V5h34.5v16.2h14.8v35.6h3.6V16L61.6,1.4z M72.6,17.6H61.4V6.3
				l11.2,11.2V17.6z"/>
		</g>
	</g>
	<g>
		<path class="st0" d="M56.9,82.3c1.3,0,2.6-0.1,3.7-0.2V69c-1.2-0.2-2.4-0.2-3.7-0.2c-7.4,0-13.4,2.7-13.4,6.1v1.3
			C43.5,79.6,49.5,82.3,56.9,82.3L56.9,82.3z M56.9,82.3"/>
		<path class="st0" d="M56.9,89.1c1.3,0,2.6-0.1,3.7-0.2v-3.8c-1.2,0.2-2.4,0.2-3.7,0.2c-6.5,0-11.9-2.1-13.2-4.8
			c-0.2,0.4-0.3,0.8-0.3,1.2V83C43.5,86.4,49.5,89.1,56.9,89.1L56.9,89.1z M56.9,89.1"/>
		<path class="st0" d="M60.7,92.2v-0.3c-1.2,0.2-2.4,0.2-3.7,0.2c-6.5,0-11.9-2.1-13.2-4.8c-0.2,0.4-0.3,0.8-0.3,1.2v1.3
			c0,3.4,6,6.1,13.4,6.1c1.5,0,2.9-0.1,4.2-0.3c-0.3-0.7-0.5-1.4-0.5-2.1V92.2z M60.7,92.2"/>
		<path class="st0" d="M76.3,58.5c-7.4,0-13.4,2.7-13.4,6.1v1.3c0,3.4,6,6.1,13.4,6.1c7.4,0,13.4-2.7,13.4-6.1v-1.3
			C89.7,61.2,83.7,58.5,76.3,58.5L76.3,58.5z M76.3,58.5"/>
		<path class="st0" d="M76.3,75c-6.5,0-11.9-2.1-13.2-4.8c-0.2,0.4-0.3,0.8-0.3,1.2v1.3c0,3.4,6,6.1,13.4,6.1
			c7.4,0,13.4-2.7,13.4-6.1v-1.3c0-0.4-0.1-0.8-0.3-1.2C88.2,72.9,82.8,75,76.3,75L76.3,75z M76.3,75"/>
		<path class="st0" d="M76.3,81.8c-6.5,0-11.9-2.1-13.2-4.8c-0.2,0.4-0.3,0.8-0.3,1.2v1.3c0,3.4,6,6.1,13.4,6.1
			c7.4,0,13.4-2.7,13.4-6.1v-1.3c0-0.4-0.1-0.8-0.3-1.2C88.2,79.7,82.8,81.8,76.3,81.8L76.3,81.8z M76.3,81.8"/>
		<path class="st0" d="M76.3,89c-6.5,0-11.9-2.1-13.2-4.8c-0.2,0.4-0.3,0.8-0.3,1.2v1.3c0,3.4,6,6.1,13.4,6.1
			c7.4,0,13.4-2.7,13.4-6.1v-1.3c0-0.4-0.1-0.8-0.3-1.2C88.2,86.9,82.8,89,76.3,89L76.3,89z M76.3,89"/>
		<path class="st0" d="M76.3,95.8c-6.5,0-11.9-2.1-13.2-4.8c-0.2,0.4-0.3,0.8-0.3,1.2v1.3c0,3.4,6,6.1,13.4,6.1
			c7.4,0,13.4-2.7,13.4-6.1v-1.3c0-0.4-0.1-0.8-0.3-1.2C88.2,93.7,82.8,95.8,76.3,95.8L76.3,95.8z M76.3,95.8"/>
	</g>
</g>
</svg>
