<?xml version="1.0" encoding="utf-8"?>
<!-- Generator: Adobe Illustrator 19.1.0, SVG Export Plug-In . SVG Version: 6.00 Build 0)  -->
<svg version="1.1" id="Capa_1" xmlns="http://www.w3.org/2000/svg" xmlns:xlink="http://www.w3.org/1999/xlink" x="0px" y="0px"
	 viewBox="0 0 101 101" style="enable-background:new 0 0 101 101;" xml:space="preserve">
<style type="text/css">
	.st0{fill:#FFFFFF;}
	.st1{fill:#F6921E;}
	.st2{fill:#00A69C;}
	.st3{opacity:0.8;}
	.st4{clip-path:url(#SVGID_2_);}
	.st5{fill:#016458;}
	.st6{fill:#231F20;}
	.st7{fill:#9E1F63;}
	.st8{fill:#4F6E32;}
	.st9{fill:#618B3D;}
	.st10{fill:#008478;}
	.st11{fill:#7C1A52;}
	.st12{fill:#89BC40;}
	.st13{fill:#D91C5C;}
	.st14{clip-path:url(#SVGID_4_);}
	.st15{clip-path:url(#SVGID_6_);}
	.st16{clip-path:url(#SVGID_8_);}
	.st17{clip-path:url(#SVGID_10_);}
	.st18{opacity:0.8;fill:#FFFFFF;}
	.st19{opacity:0.6;fill:#FFFFFF;}
	.st20{clip-path:url(#SVGID_12_);}
	.st21{clip-path:url(#SVGID_14_);}
	.st22{clip-path:url(#SVGID_16_);}
	.st23{fill:none;}
	.st24{opacity:0.7;fill:#FFFFFF;}
	.st25{fill-rule:evenodd;clip-rule:evenodd;fill:#FFFFFF;}
	.st26{fill:#F15A29;}
	.st27{fill:#FBB040;}
	.st28{fill:#B3CF50;}
	.st29{fill:#17977F;}
	.st30{fill:#38D9C3;}
	.st31{fill:#1BAFA5;}
	.st32{fill:#287DAA;}
	.st33{clip-path:url(#SVGID_18_);}
	.st34{fill:#443C86;}
	.st35{fill:#92278F;}
	.st36{fill:#DA1C5C;}
	.st37{fill:#662D91;}
	.st38{fill:#ED1C24;}
</style>
<g>
	<path class="st0" d="M58.3,17.5c0,1.5-1.2,2.7-2.7,2.7H23c-1.5,0-2.7-1.2-2.7-2.7c0-1.5,1.2-2.7,2.7-2.7h32.7
		C57.1,14.7,58.3,16,58.3,17.5L58.3,17.5z M55.6,25.9H23c-1.5,0-2.7,1.2-2.7,2.7c0,1.5,1.2,2.7,2.7,2.7h32.7c1.5,0,2.7-1.2,2.7-2.7
		C58.3,27.1,57.1,25.9,55.6,25.9L55.6,25.9z M99.6,42.1L88.7,91.4c-0.6,2.5-2.8,4.3-5.3,4.3H6.7c-3,0-5.5-2.4-5.5-5.5V24.5
		c0-3,2.4-5.5,5.5-5.5h2.7V8.1c0-1.5,1.2-2.7,2.7-2.7h54.7c1.5,0,2.7,1.2,2.7,2.7V19h2.7c3,0,5.5,2.4,5.5,5.5V30h5.5
		c3,0,5.5,2.4,5.5,5.5h5.5c1.7,0,3.2,0.7,4.3,2.1C99.6,38.8,100,40.5,99.6,42.1L99.6,42.1z M9.4,24.5H6.7v65.7h2.7V24.5z M69.7,30
		h2.7v-5.5h-2.7V30z M28.6,35.4h32.8c0-3,2.4-5.5,5.5-5.5V8.1H12.2v82.1c0-0.4,11.1-50.4,11.1-50.4C23.8,37.2,26,35.4,28.6,35.4
		L28.6,35.4z M76.6,80.8L68,73.8c-0.7-0.6-1.7-0.8-2.6-0.7l-1-0.8c2.1-3.1,3-6.9,2.6-10.7c-0.4-4.4-2.6-8.3-5.9-11.1
		c-2.9-2.4-6.6-3.7-10.4-3.7c-5,0-9.6,2.2-12.7,6c-5.7,7-4.7,17.4,2.3,23.1c2.9,2.4,6.6,3.7,10.4,3.7c4,0,7.8-1.5,10.8-4.1l1.1,0.9
		c0,0.9,0.4,1.8,1.2,2.4l8.6,7.1c0.6,0.5,1.3,0.7,2.1,0.7c1,0,1.9-0.4,2.5-1.2C78.3,84,78.1,82,76.6,80.8L76.6,80.8z M57.6,54.7
		c-2-1.7-4.5-2.5-6.9-2.5c-3.2,0-6.3,1.4-8.5,4c-3.8,4.7-3.1,11.6,1.6,15.4c2,1.7,4.5,2.5,6.9,2.5c3.2,0,6.3-1.4,8.5-4
		C63,65.4,62.3,58.5,57.6,54.7L57.6,54.7z M57.6,54.7"/>
</g>
</svg>
