<?xml version="1.0" encoding="utf-8"?>
<!-- Generator: Adobe Illustrator 19.1.0, SVG Export Plug-In . SVG Version: 6.00 Build 0)  -->
<svg version="1.1" id="Capa_1" xmlns="http://www.w3.org/2000/svg" xmlns:xlink="http://www.w3.org/1999/xlink" x="0px" y="0px"
	 viewBox="0 0 101 101" style="enable-background:new 0 0 101 101;" xml:space="preserve">
<style type="text/css">
	.st0{fill:#FFFFFF;}
	.st1{fill:#F6921E;}
	.st2{fill:#00A69C;}
	.st3{opacity:0.8;}
	.st4{clip-path:url(#SVGID_2_);}
	.st5{fill:#016458;}
	.st6{fill:#231F20;}
	.st7{fill:#9E1F63;}
	.st8{fill:#4F6E32;}
	.st9{fill:#618B3D;}
	.st10{fill:#008478;}
	.st11{fill:#7C1A52;}
	.st12{fill:#89BC40;}
	.st13{fill:#D91C5C;}
	.st14{clip-path:url(#SVGID_4_);}
	.st15{clip-path:url(#SVGID_6_);}
	.st16{clip-path:url(#SVGID_8_);}
	.st17{clip-path:url(#SVGID_10_);}
	.st18{opacity:0.8;fill:#FFFFFF;}
	.st19{opacity:0.6;fill:#FFFFFF;}
	.st20{clip-path:url(#SVGID_12_);}
	.st21{clip-path:url(#SVGID_14_);}
	.st22{clip-path:url(#SVGID_16_);}
	.st23{fill:none;}
	.st24{opacity:0.7;fill:#FFFFFF;}
	.st25{fill-rule:evenodd;clip-rule:evenodd;fill:#FFFFFF;}
	.st26{fill:#F15A29;}
	.st27{fill:#FBB040;}
	.st28{fill:#B3CF50;}
	.st29{fill:#17977F;}
	.st30{fill:#38D9C3;}
	.st31{fill:#1BAFA5;}
	.st32{fill:#287DAA;}
	.st33{clip-path:url(#SVGID_18_);}
	.st34{fill:#443C86;}
	.st35{fill:#92278F;}
	.st36{fill:#DA1C5C;}
	.st37{fill:#662D91;}
	.st38{fill:#ED1C24;}
</style>
<g>
	<g>
		<defs>
			<path id="SVGID_9_" d="M38.3,5.6c4.9,1.6,9.8,3.2,14.7,4.8c0.9,0.3,0.9,0.3,0.6,1.4c-0.6,2.8-1.2,5.5-1.9,8.3
				c-0.4,1.4-1,2.7-1.6,4c-0.8,1.5-1.5,1.8-2.7,1.2c-1-0.5-1.9-1.3-2.9-1.9c-0.7-0.4-1.4-0.9-2.1-0.9c-1.8-0.2-3.2,1.1-4,3.5
				c-0.6,1.8-0.9,3.6-0.9,5.5c0,1,0.5,1.6,1.1,2c1.3,0.7,2.7,0.8,4.2,0.9c0.8,0.1,1.7,0.2,2.5,0.4c0.5,0.1,0.7,0.6,0.7,1.2
				c-0.1,0.8,0,1.7-0.3,2.5c-0.9,2.7-1.9,5.3-2.9,8c-0.3,0.9-0.6,1.7-0.9,2.6c-0.3,0.9-0.5,1.1-1.2,0.8c-1.2-0.5-2.3-1.1-3.5-1.5
				c-1.9-0.7-3.8-1.4-5.8-2.1c-0.8-0.3-1.6-0.2-2.4,0.2c-0.8,0.4-1.3,1.1-1.4,2.2c-0.3,1.7-0.6,3.5-0.9,5.2c-0.8,4.1-3.2,4.3-5.7,3
				c-1.9-1-2.2-2.5-1.4-5c0.3-0.9,0.7-1.7,1.2-2.6c0.4-0.8,1-1.6,1.4-2.5c0.8-1.8,0.5-3-1-3.8c-2.5-1.4-5.3-1.9-8.1-2.5
				c-0.8-0.2-1.7-0.3-2.5-0.4c-0.6-0.1-0.7-0.3-0.4-1c3.5-10.4,6.9-20.8,10.3-31.3c0.7-2.2,1.5-4.3,2.1-6.5c0.2-0.7,0.4-0.8,1-0.6
				C28.4,2.3,33.3,3.9,38.3,5.6C38.3,5.6,38.3,5.6,38.3,5.6z"/>
		</defs>
		<clipPath id="SVGID_2_">
			<use xlink:href="#SVGID_9_"  style="overflow:visible;"/>
		</clipPath>
		<g class="st4">
			<polygon class="st0" points="51,11.7 33.9,6 20.9,14 40.2,20.3 			"/>
			<path class="st6" d="M92.6,13.9c0,0.1,0,0.3-0.1,0.4L92.6,13.9L92.6,13.9z"/>
			<polygon class="st18" points="58.4,35.2 48.4,41 40.6,64.7 49.3,62.9 			"/>
			<polygon class="st18" points="44.8,30.7 51,11.7 40.2,20.3 36.5,31.6 41.2,29.5 			"/>
			<polygon class="st0" points="44.8,30.7 41.2,29.5 36.5,31.6 29.2,34.7 29.2,34.7 34.8,36.5 42.1,38.9 48.4,41 58.4,35.2 			"/>
			<path class="st19" d="M34.6,18.5L20.9,14L7.7,54l-8.1,24.5L13.2,83l8.1-24.6l7.8-23.7l0,0l7.2-3.1l3.7-11.2L34.6,18.5z M6.9,70.9
				l-2.1-0.7L6,66.7l2.1,0.7L6.9,70.9z M9.2,63.9l-2.1-0.7l1.2-3.6l2.1,0.7L9.2,63.9z M11.6,56.8l-2.1-0.7l1.2-3.6l2.1,0.7
				L11.6,56.8z M13.9,49.7L11.8,49l1.2-3.6l2.1,0.7L13.9,49.7z M16.3,42.6l-2.1-0.7l1.2-3.6l2.1,0.7L16.3,42.6z M18.6,35.7L16.4,35
				l1.2-3.6l2.1,0.7L18.6,35.7z M20.9,28.5l-2.1-0.7l1.2-3.6l2.1,0.7L20.9,28.5z M23.3,21.4l-2.1-0.7l1.2-3.6l2.1,0.7L23.3,21.4z
				 M11.2,72.3L9,71.6l1.2-3.6l2.1,0.7L11.2,72.3z M13.5,65.3l-2.1-0.7l1.2-3.6l2.1,0.7L13.5,65.3z M15.8,58.2l-2.1-0.7l1.2-3.6
				l2.1,0.7L15.8,58.2z M18.2,51.1L16,50.4l1.2-3.6l2.1,0.7L18.2,51.1z M20.5,44l-2.1-0.7l1.2-3.6l2.1,0.7L20.5,44z M22.8,37.1
				l-2.1-0.7l1.2-3.6l2.1,0.7L22.8,37.1z M25.2,29.9L23,29.2l1.2-3.6l2.1,0.7L25.2,29.9z M27.5,22.8l-2.1-0.7l1.2-3.6l2.1,0.7
				L27.5,22.8z M15.4,73.7L13.3,73l1.2-3.6l2.1,0.7L15.4,73.7z M17.7,66.7L15.6,66l1.2-3.6l2.1,0.7L17.7,66.7z M20.1,59.6l-2.1-0.7
				l1.2-3.6l2.1,0.7L20.1,59.6z M22.4,52.5l-2.1-0.7l1.2-3.6l2.1,0.7L22.4,52.5z M24.7,45.4l-2.1-0.7l1.2-3.6l2.1,0.7L24.7,45.4z
				 M27,38.5l-2.1-0.7l1.2-3.6l2.1,0.7L27,38.5z M29.4,31.3l-2.1-0.7l1.2-3.6l2.1,0.7L29.4,31.3z M31.7,24.2l-2.1-0.7l1.2-3.6
				l2.1,0.7L31.7,24.2z M33.6,32.7L31.5,32l1.2-3.6l2.1,0.7L33.6,32.7z M36,25.6l-2.1-0.7l1.2-3.6l2.1,0.7L36,25.6z"/>
			<path class="st19" d="M29.2,34.7L13.2,83l19.2,6.4l16-48.4L29.2,34.7z M19.4,78.2l-2.2-0.7l0.9-2.7l2.2,0.7L19.4,78.2z M21.1,73
				l-2.2-0.7l0.9-2.7l2.2,0.7L21.1,73z M22.9,67.7L20.7,67l0.9-2.7l2.2,0.7L22.9,67.7z M24.6,62.4l-2.2-0.7l0.9-2.7l2.2,0.7
				L24.6,62.4z M26.4,57.1l-2.2-0.7l0.9-2.7l2.2,0.7L26.4,57.1z M28.1,51.9l-2.2-0.7l0.9-2.7l2.2,0.7L28.1,51.9z M29.9,46.6
				l-2.2-0.7l0.9-2.7l2.2,0.7L29.9,46.6z M31.6,41.3l-2.2-0.7l0.9-2.7l2.2,0.7L31.6,41.3z M23.8,79.7l-2.2-0.7l0.9-2.7l2.2,0.7
				L23.8,79.7z M25.5,74.5l-2.2-0.7l0.9-2.7l2.2,0.7L25.5,74.5z M27.3,69.1l-2.2-0.7l0.9-2.7l2.2,0.7L27.3,69.1z M29,63.9l-2.2-0.7
				l0.9-2.7l2.2,0.7L29,63.9z M30.8,58.6l-2.2-0.7l0.9-2.7l2.2,0.7L30.8,58.6z M32.5,53.4l-2.2-0.7l0.9-2.7l2.2,0.7L32.5,53.4z
				 M34.2,48L32,47.3l0.9-2.7l2.2,0.7L34.2,48z M36,42.8L33.8,42l0.9-2.7l2.2,0.7L36,42.8z M28.2,81.1L26,80.4l0.9-2.7l2.2,0.7
				L28.2,81.1z M29.9,75.9l-2.2-0.7l0.9-2.7l2.2,0.7L29.9,75.9z M31.7,70.6l-2.2-0.7l0.9-2.7l2.2,0.7L31.7,70.6z M33.4,65.3
				l-2.2-0.7l0.9-2.7l2.2,0.7L33.4,65.3z M35.2,60L33,59.3l0.9-2.7l2.2,0.7L35.2,60z M36.9,54.8l-2.2-0.7l0.9-2.7l2.2,0.7L36.9,54.8
				z M38.6,49.5l-2.2-0.7l0.9-2.7l2.2,0.7L38.6,49.5z M40.4,44.2l-2.2-0.7l0.9-2.7l2.2,0.7L40.4,44.2z M32.6,82.6l-2.2-0.7l0.9-2.7
				l2.2,0.7L32.6,82.6z M34.3,77.4l-2.2-0.7L33,74l2.2,0.7L34.3,77.4z M36.1,72.1l-2.2-0.7l0.9-2.7l2.2,0.7L36.1,72.1z M37.8,66.8
				L35.6,66l0.9-2.7l2.2,0.7L37.8,66.8z M39.6,61.5l-2.2-0.7l0.9-2.7l2.2,0.7L39.6,61.5z M41.3,56.3l-2.2-0.7l0.9-2.7l2.2,0.7
				L41.3,56.3z M43,51l-2.2-0.7l0.9-2.7l2.2,0.7L43,51z M44.8,45.7l-2.2-0.7l0.9-2.7l2.2,0.7L44.8,45.7z"/>
		</g>
	</g>
	<g>
		<defs>
			<path id="SVGID_11_" d="M40.9,100.4c-5.2,0-10.5,0-15.7,0c-0.5,0-0.8-0.2-0.8-0.9c0-13.1,0-26.2,0-39.2c0-0.6,0.1-0.9,0.6-1
				c3.5-0.6,6.9-1,10.4-0.7c2,0.2,2.3,0.9,1.7,3.4c-0.3,1.6-0.6,3.2-0.6,4.9c-0.1,2.9,1.1,4.5,3.4,5.1c1.3,0.3,2.5,0.1,3.7-0.5
				c1.3-0.6,1.9-1.8,2-3.6c0.1-2.4-0.3-4.8-0.7-7.1c-0.2-0.9,0-1.4,0.6-1.9c0.3-0.2,0.7-0.4,1.1-0.4c2.3,0,4.6,0,6.9,0.1
				c0.9,0,1.9,0.2,2.8,0.3c0.5,0,0.7,0.3,0.7,0.9c-0.1,2.2-0.3,4.5-0.3,6.7c0,2,0,4,0.1,6c0,0.4,0.2,0.9,0.3,1.3
				c0.6,2.2,2.1,2.6,3.5,2.3c1.5-0.4,2.9-0.8,4.4-1c1.3-0.2,1.7,0.3,2,1.9c0.3,1.4,0.5,2.9,0.5,4.3c0,2.5-1.6,3.8-3.5,3
				c-1.4-0.6-2.8-1.2-4.4-1.1c-1.4,0.1-2.1,0.6-2.6,2.4c-0.6,2.1-0.6,4.3-0.4,6.5c0.2,2.4,0.5,4.8,0.7,7.2c0.1,1,0,1-0.8,1
				C51.4,100.4,46.2,100.4,40.9,100.4z"/>
		</defs>
		<clipPath id="SVGID_4_">
			<use xlink:href="#SVGID_11_"  style="overflow:visible;"/>
		</clipPath>
		<g class="st14">
			<path class="st6" d="M95.1,7.5c0,0.1,0,0.3,0,0.4L95.1,7.5L95.1,7.5z"/>
			<path class="st19" d="M61.6,72.1v14v5.7v6.4h20.2V72.1H61.6z M65.9,93.7h-2.4v-1.3h2.4V93.7z M65.9,91.2h-2.4v-1.3h2.4V91.2z
				 M65.9,88.5h-2.4v-1.3h2.4V88.5z M65.9,85.9h-2.4v-1.3h2.4V85.9z M65.9,83.3h-2.4V82h2.4V83.3z M65.9,80.7h-2.4v-1.3h2.4V80.7z
				 M65.9,78.1h-2.4v-1.3h2.4V78.1z M65.9,75.4h-2.4v-1.3h2.4V75.4z M70.6,93.7h-2.4v-1.3h2.4V93.7z M70.6,91.2h-2.4v-1.3h2.4V91.2z
				 M70.6,88.5h-2.4v-1.3h2.4V88.5z M70.6,85.9h-2.4v-1.3h2.4V85.9z M70.6,83.3h-2.4V82h2.4V83.3z M70.6,80.7h-2.4v-1.3h2.4V80.7z
				 M70.6,78.1h-2.4v-1.3h2.4V78.1z M70.6,75.4h-2.4v-1.3h2.4V75.4z M75.3,93.7h-2.4v-1.3h2.4V93.7z M75.3,91.2h-2.4v-1.3h2.4V91.2z
				 M75.3,88.5h-2.4v-1.3h2.4V88.5z M75.3,85.9h-2.4v-1.3h2.4V85.9z M75.3,83.3h-2.4V82h2.4V83.3z M75.3,80.7h-2.4v-1.3h2.4V80.7z
				 M75.3,78.1h-2.4v-1.3h2.4V78.1z M75.3,75.4h-2.4v-1.3h2.4V75.4z M79.9,93.7h-2.4v-1.3h2.4V93.7z M79.9,91.2h-2.4v-1.3h2.4V91.2z
				 M79.9,88.5h-2.4v-1.3h2.4V88.5z M79.9,85.9h-2.4v-1.3h2.4V85.9z M79.9,83.3h-2.4V82h2.4V83.3z M79.9,80.7h-2.4v-1.3h2.4V80.7z
				 M79.9,78.1h-2.4v-1.3h2.4V78.1z M79.9,75.4h-2.4v-1.3h2.4V75.4z"/>
			<path class="st19" d="M41.4,30.1H27v42.2v25.8h14.3V72.1v-25h0l5.9-5.2V30.1H41.4z M31.6,88.6h-2.2v-3.8h2.2V88.6z M31.6,81.2
				h-2.2v-3.8h2.2V81.2z M31.6,73.7h-2.2v-3.8h2.2V73.7z M31.6,66.2h-2.2v-3.8h2.2V66.2z M31.6,58.8h-2.2V55h2.2V58.8z M31.6,51.4
				h-2.2v-3.8h2.2V51.4z M31.6,43.9h-2.2v-3.8h2.2V43.9z M31.6,36.5h-2.2v-3.8h2.2V36.5z M36,88.6h-2.2v-3.8H36V88.6z M36,81.2h-2.2
				v-3.8H36V81.2z M36,73.7h-2.2v-3.8H36V73.7z M36,66.2h-2.2v-3.8H36V66.2z M36,58.8h-2.2V55H36V58.8z M36,51.4h-2.2v-3.8H36V51.4z
				 M36,43.9h-2.2v-3.8H36V43.9z M36,36.5h-2.2v-3.8H36V36.5z M40.5,88.6h-2.2v-3.8h2.2V88.6z M40.5,81.2h-2.2v-3.8h2.2V81.2z
				 M40.5,73.7h-2.2v-3.8h2.2V73.7z M40.5,66.2h-2.2v-3.8h2.2V66.2z M40.5,58.8h-2.2V55h2.2V58.8z M40.5,51.4h-2.2v-3.8h2.2V51.4z
				 M40.5,43.9h-2.2v-3.8h2.2V43.9z M40.5,36.5h-2.2v-3.8h2.2V36.5z M45,43.9h-2.2v-3.8H45V43.9z M45,36.5h-2.2v-3.8H45V36.5z"/>
			<path class="st19" d="M41.4,47.1v50.9h20.2V47.1H41.4z M45.7,91.6h-2.3v-2.8h2.3V91.6z M45.7,86.1h-2.3v-2.8h2.3V86.1z
				 M45.7,80.5h-2.3v-2.8h2.3V80.5z M45.7,74.9h-2.3v-2.8h2.3V74.9z M45.7,69.4h-2.3v-2.8h2.3V69.4z M45.7,63.9h-2.3v-2.8h2.3V63.9z
				 M45.7,58.3h-2.3v-2.8h2.3V58.3z M45.7,52.7h-2.3v-2.8h2.3V52.7z M50.3,91.6H48v-2.8h2.3V91.6z M50.3,86.1H48v-2.8h2.3V86.1z
				 M50.3,80.5H48v-2.8h2.3V80.5z M50.3,74.9H48v-2.8h2.3V74.9z M50.3,69.4H48v-2.8h2.3V69.4z M50.3,63.9H48v-2.8h2.3V63.9z
				 M50.3,58.3H48v-2.8h2.3V58.3z M50.3,52.7H48v-2.8h2.3V52.7z M55,91.6h-2.3v-2.8H55V91.6z M55,86.1h-2.3v-2.8H55V86.1z M55,80.5
				h-2.3v-2.8H55V80.5z M55,74.9h-2.3v-2.8H55V74.9z M55,69.4h-2.3v-2.8H55V69.4z M55,63.9h-2.3v-2.8H55V63.9z M55,58.3h-2.3v-2.8
				H55V58.3z M55,52.7h-2.3v-2.8H55V52.7z M59.6,91.6h-2.3v-2.8h2.3V91.6z M59.6,86.1h-2.3v-2.8h2.3V86.1z M59.6,80.5h-2.3v-2.8h2.3
				V80.5z M59.6,74.9h-2.3v-2.8h2.3V74.9z M59.6,69.4h-2.3v-2.8h2.3V69.4z M59.6,63.9h-2.3v-2.8h2.3V63.9z M59.6,58.3h-2.3v-2.8h2.3
				V58.3z M59.6,52.7h-2.3v-2.8h2.3V52.7z"/>
		</g>
	</g>
	<g>
		<defs>
			<path id="SVGID_13_" d="M74.6,16.6c5.2,0,10.4,0,15.6,0c0.8,0,0.8,0,0.8,1c0,13,0,26,0,39c0,0.7-0.2,1-0.7,1
				c-3.3,0.5-6.6,0.9-10,0.7c-0.4,0-0.8-0.1-1.2-0.2c-0.8-0.2-1.1-0.9-1-1.9c0.2-1.2,0.6-2.3,0.7-3.5c0.1-1.4,0.1-2.9-0.1-4.4
				c-0.1-1.3-0.8-2.2-1.8-2.7c-2-1.1-4-0.9-5.9,0.4c-0.9,0.6-1.2,1.7-1.3,3c-0.1,2.5,0.3,4.9,0.7,7.3c0.2,1,0,1.6-0.8,1.9
				c-0.5,0.2-1.1,0.4-1.6,0.3c-3-0.1-5.9-0.3-8.9-0.5c-0.6,0-0.8-0.3-0.8-1.1c0.1-2.4,0.2-4.8,0.4-7.2c0.1-2.1,0.1-4.2-0.3-6.3
				c-0.5-2.3-2-2.9-3.6-2.4c-1.5,0.4-3,0.8-4.4,0.9c-1.2,0.1-1.6-0.3-1.9-1.8c-0.3-1.4-0.5-2.8-0.5-4.3c0-2.8,1.7-4.2,3.8-3.3
				c1.4,0.6,2.8,1.1,4.4,1c1.2-0.1,1.8-0.6,2.2-2.1c0.6-2,0.7-4.1,0.5-6.2c-0.2-2.2-0.5-4.5-0.7-6.7c-0.2-2-0.2-2,1.4-2
				C64.6,16.6,69.6,16.6,74.6,16.6z"/>
		</defs>
		<clipPath id="SVGID_6_">
			<use xlink:href="#SVGID_13_"  style="overflow:visible;"/>
		</clipPath>
		<g class="st15">
			<path class="st6" d="M95.1,7.5c0,0.1,0,0.3,0,0.4L95.1,7.5L95.1,7.5z"/>
			<polygon class="st18" points="69.2,38.5 61.6,47.2 61.6,72.1 69.2,67.6 			"/>
			<polygon class="st18" points="54.9,38.5 54.9,18.5 47.3,30.1 47.3,41.9 51.2,38.5 			"/>
			<polygon class="st0" points="54.9,38.5 51.2,38.5 47.3,41.9 41.4,47.1 41.4,47.1 47.3,47.1 54.9,47.1 61.6,47.1 69.2,38.5 			"/>
			<path class="st19" d="M41.4,47.1v50.9h20.2V47.1H41.4z M45.7,91.6h-2.3v-2.8h2.3V91.6z M45.7,86.1h-2.3v-2.8h2.3V86.1z
				 M45.7,80.5h-2.3v-2.8h2.3V80.5z M45.7,74.9h-2.3v-2.8h2.3V74.9z M45.7,69.4h-2.3v-2.8h2.3V69.4z M45.7,63.9h-2.3v-2.8h2.3V63.9z
				 M45.7,58.3h-2.3v-2.8h2.3V58.3z M45.7,52.7h-2.3v-2.8h2.3V52.7z M50.3,91.6H48v-2.8h2.3V91.6z M50.3,86.1H48v-2.8h2.3V86.1z
				 M50.3,80.5H48v-2.8h2.3V80.5z M50.3,74.9H48v-2.8h2.3V74.9z M50.3,69.4H48v-2.8h2.3V69.4z M50.3,63.9H48v-2.8h2.3V63.9z
				 M50.3,58.3H48v-2.8h2.3V58.3z M50.3,52.7H48v-2.8h2.3V52.7z M55,91.6h-2.3v-2.8H55V91.6z M55,86.1h-2.3v-2.8H55V86.1z M55,80.5
				h-2.3v-2.8H55V80.5z M55,74.9h-2.3v-2.8H55V74.9z M55,69.4h-2.3v-2.8H55V69.4z M55,63.9h-2.3v-2.8H55V63.9z M55,58.3h-2.3v-2.8
				H55V58.3z M55,52.7h-2.3v-2.8H55V52.7z M59.6,91.6h-2.3v-2.8h2.3V91.6z M59.6,86.1h-2.3v-2.8h2.3V86.1z M59.6,80.5h-2.3v-2.8h2.3
				V80.5z M59.6,74.9h-2.3v-2.8h2.3V74.9z M59.6,69.4h-2.3v-2.8h2.3V69.4z M59.6,63.9h-2.3v-2.8h2.3V63.9z M59.6,58.3h-2.3v-2.8h2.3
				V58.3z M59.6,52.7h-2.3v-2.8h2.3V52.7z"/>
		</g>
	</g>
	<g>
		<defs>
			<path id="SVGID_15_" d="M74.8,100.3c-5.2,0-10.4,0-15.6,0c-0.5,0-0.7-0.2-0.8-0.9c-0.2-3-0.6-5.9-0.8-8.9
				c-0.1-1.4,0.1-2.8,0.3-4.1c0.3-1.6,0.8-2,2.1-1.8c1.1,0.2,2.2,0.5,3.2,0.9c3.2,1.3,5.6-1,5.2-5.2c-0.1-1.4-0.4-2.8-0.7-4.2
				c-0.2-1.2-0.9-1.9-1.9-2.1c-1.8-0.4-3.5,0.2-5.2,0.7c-0.3,0.1-0.6,0.2-0.8,0.2c-1.1,0.1-1.6-0.3-1.9-1.7
				c-0.2-1.2-0.4-2.4-0.4-3.6c0-2.2,0.2-4.4,0.3-6.6c0-1,0.1-2.1,0.1-3.2c0-0.6,0.2-0.8,0.6-0.8c1.2,0.1,2.5,0.3,3.7,0.4
				c2.1,0.1,4.3,0.2,6.4,0.2c1,0,1.9-0.4,2.6-1.3c0.4-0.6,0.6-1.3,0.5-2.1c-0.3-1.7-0.5-3.5-0.8-5.3c0-0.1,0-0.2,0-0.3
				c-0.1-3.3,0.2-3.9,2.9-4.5c1-0.2,2,0.1,3,0.7c0.7,0.4,1,1.2,1.2,2.2c0.3,2-0.1,3.9-0.5,5.8c0,0.1-0.1,0.2-0.1,0.4
				c-0.6,2.5,0.2,3.9,2.2,4.3c2.9,0.5,5.7,0.1,8.5-0.2c0.8-0.1,1.6-0.2,2.5-0.4c0.4-0.1,0.5,0.1,0.5,0.5c0,0.1,0,0.3,0,0.4
				c0,13.1,0,26.3,0,39.4c0,1,0,1-0.8,1C85.2,100.3,80,100.3,74.8,100.3z"/>
		</defs>
		<clipPath id="SVGID_8_">
			<use xlink:href="#SVGID_15_"  style="overflow:visible;"/>
		</clipPath>
		<g class="st16">
			<path class="st6" d="M95.1,7.5c0,0.1,0,0.3,0,0.4L95.1,7.5L95.1,7.5z"/>
			<polygon class="st18" points="69.2,38.5 61.6,47.2 61.6,72.1 69.2,67.6 			"/>
			<polygon class="st0" points="69.2,67.6 61.6,72.1 69.2,72.1 81.9,72.1 89.5,67.6 			"/>
			<polygon class="st18" points="81.9,98.2 89.5,93.8 89.5,67.6 81.9,72.1 			"/>
			<path class="st19" d="M61.6,72.1v14v5.7v6.4h20.2V72.1H61.6z M65.9,93.7h-2.4v-1.3h2.4V93.7z M65.9,91.2h-2.4v-1.3h2.4V91.2z
				 M65.9,88.5h-2.4v-1.3h2.4V88.5z M65.9,85.9h-2.4v-1.3h2.4V85.9z M65.9,83.3h-2.4V82h2.4V83.3z M65.9,80.7h-2.4v-1.3h2.4V80.7z
				 M65.9,78.1h-2.4v-1.3h2.4V78.1z M65.9,75.4h-2.4v-1.3h2.4V75.4z M70.6,93.7h-2.4v-1.3h2.4V93.7z M70.6,91.2h-2.4v-1.3h2.4V91.2z
				 M70.6,88.5h-2.4v-1.3h2.4V88.5z M70.6,85.9h-2.4v-1.3h2.4V85.9z M70.6,83.3h-2.4V82h2.4V83.3z M70.6,80.7h-2.4v-1.3h2.4V80.7z
				 M70.6,78.1h-2.4v-1.3h2.4V78.1z M70.6,75.4h-2.4v-1.3h2.4V75.4z M75.3,93.7h-2.4v-1.3h2.4V93.7z M75.3,91.2h-2.4v-1.3h2.4V91.2z
				 M75.3,88.5h-2.4v-1.3h2.4V88.5z M75.3,85.9h-2.4v-1.3h2.4V85.9z M75.3,83.3h-2.4V82h2.4V83.3z M75.3,80.7h-2.4v-1.3h2.4V80.7z
				 M75.3,78.1h-2.4v-1.3h2.4V78.1z M75.3,75.4h-2.4v-1.3h2.4V75.4z M79.9,93.7h-2.4v-1.3h2.4V93.7z M79.9,91.2h-2.4v-1.3h2.4V91.2z
				 M79.9,88.5h-2.4v-1.3h2.4V88.5z M79.9,85.9h-2.4v-1.3h2.4V85.9z M79.9,83.3h-2.4V82h2.4V83.3z M79.9,80.7h-2.4v-1.3h2.4V80.7z
				 M79.9,78.1h-2.4v-1.3h2.4V78.1z M79.9,75.4h-2.4v-1.3h2.4V75.4z"/>
			<path class="st19" d="M41.4,47.1v50.9h20.2V47.1H41.4z M45.7,91.6h-2.3v-2.8h2.3V91.6z M45.7,86.1h-2.3v-2.8h2.3V86.1z
				 M45.7,80.5h-2.3v-2.8h2.3V80.5z M45.7,74.9h-2.3v-2.8h2.3V74.9z M45.7,69.4h-2.3v-2.8h2.3V69.4z M45.7,63.9h-2.3v-2.8h2.3V63.9z
				 M45.7,58.3h-2.3v-2.8h2.3V58.3z M45.7,52.7h-2.3v-2.8h2.3V52.7z M50.3,91.6H48v-2.8h2.3V91.6z M50.3,86.1H48v-2.8h2.3V86.1z
				 M50.3,80.5H48v-2.8h2.3V80.5z M50.3,74.9H48v-2.8h2.3V74.9z M50.3,69.4H48v-2.8h2.3V69.4z M50.3,63.9H48v-2.8h2.3V63.9z
				 M50.3,58.3H48v-2.8h2.3V58.3z M50.3,52.7H48v-2.8h2.3V52.7z M55,91.6h-2.3v-2.8H55V91.6z M55,86.1h-2.3v-2.8H55V86.1z M55,80.5
				h-2.3v-2.8H55V80.5z M55,74.9h-2.3v-2.8H55V74.9z M55,69.4h-2.3v-2.8H55V69.4z M55,63.9h-2.3v-2.8H55V63.9z M55,58.3h-2.3v-2.8
				H55V58.3z M55,52.7h-2.3v-2.8H55V52.7z M59.6,91.6h-2.3v-2.8h2.3V91.6z M59.6,86.1h-2.3v-2.8h2.3V86.1z M59.6,80.5h-2.3v-2.8h2.3
				V80.5z M59.6,74.9h-2.3v-2.8h2.3V74.9z M59.6,69.4h-2.3v-2.8h2.3V69.4z M59.6,63.9h-2.3v-2.8h2.3V63.9z M59.6,58.3h-2.3v-2.8h2.3
				V58.3z M59.6,52.7h-2.3v-2.8h2.3V52.7z"/>
		</g>
	</g>
</g>
</svg>
