<?xml version="1.0" encoding="utf-8"?>
<!-- Generator: Adobe Illustrator 19.1.0, SVG Export Plug-In . SVG Version: 6.00 Build 0)  -->
<svg version="1.1" id="Capa_1" xmlns="http://www.w3.org/2000/svg" xmlns:xlink="http://www.w3.org/1999/xlink" x="0px" y="0px"
	 viewBox="0 0 101 101" style="enable-background:new 0 0 101 101;" xml:space="preserve">
<style type="text/css">
	.st0{fill:#FFFFFF;}
	.st1{fill:#F6921E;}
	.st2{fill:#00A69C;}
	.st3{opacity:0.8;}
	.st4{clip-path:url(#SVGID_2_);}
	.st5{fill:#016458;}
	.st6{fill:#231F20;}
	.st7{fill:#9E1F63;}
	.st8{fill:#4F6E32;}
	.st9{fill:#618B3D;}
	.st10{fill:#008478;}
	.st11{fill:#7C1A52;}
	.st12{fill:#89BC40;}
	.st13{fill:#D91C5C;}
	.st14{clip-path:url(#SVGID_4_);}
	.st15{clip-path:url(#SVGID_6_);}
	.st16{clip-path:url(#SVGID_8_);}
	.st17{clip-path:url(#SVGID_10_);}
	.st18{opacity:0.8;fill:#FFFFFF;}
	.st19{opacity:0.6;fill:#FFFFFF;}
	.st20{clip-path:url(#SVGID_12_);}
	.st21{clip-path:url(#SVGID_14_);}
	.st22{clip-path:url(#SVGID_16_);}
	.st23{fill:none;}
	.st24{opacity:0.7;fill:#FFFFFF;}
	.st25{fill-rule:evenodd;clip-rule:evenodd;fill:#FFFFFF;}
	.st26{fill:#F15A29;}
	.st27{fill:#FBB040;}
	.st28{fill:#B3CF50;}
	.st29{fill:#17977F;}
	.st30{fill:#38D9C3;}
	.st31{fill:#1BAFA5;}
	.st32{fill:#287DAA;}
	.st33{clip-path:url(#SVGID_18_);}
	.st34{fill:#443C86;}
	.st35{fill:#92278F;}
	.st36{fill:#DA1C5C;}
	.st37{fill:#662D91;}
	.st38{fill:#ED1C24;}
</style>
<path id="XMLID_74_" class="st0" d="M1.1,89.3c0-25.9,0-51.8,0-77.7c0.4-0.1,0.2-0.4,0.3-0.7c1.1-4.7,3.9-7.8,8.4-9.3
	c0.6-0.2,1.3-0.1,1.9-0.6c25.8,0,51.6,0,77.3,0c0.5,0.3,1.2,0.3,1.8,0.5c4.6,1.5,7.7,4.4,8.7,9.3c0.1,0.3-0.1,0.8,0.4,1
	c0,25.8,0,51.7,0,77.5c-0.3,0.1-0.2,0.4-0.3,0.6c-1.1,5-4.1,8.2-9.1,9.6c-0.5,0.1-1.1,0.1-1.5,0.4c-25.8,0-51.6,0-77.3,0
	c-0.1-0.3-0.4-0.2-0.7-0.3c-4.6-1.1-7.8-3.8-9.3-8.4C1.5,90.6,1.6,89.9,1.1,89.3z M50.3,88.6c11.3,0,22.6,0,33.9,0
	c0.8,0,1.5,0,2.2-0.4c1.6-0.8,2.2-2.2,2.2-3.9c0-9.5,0-19,0-28.6c0-4,0-8,0-12.1c0-0.6-0.1-0.7-0.7-0.7c-2.4,0-4.8,0-7.2,0
	c-0.7,0-0.8,0.1-0.6,0.8c0.5,1.4,0.7,2.8,0.9,4.2C81.7,53,81,58,78.9,62.8c-1.8,4.2-4.5,7.8-7.9,10.8c-3.4,2.9-7.2,5-11.5,6.3
	c-4.2,1.3-8.6,1.6-13,1c-5.7-0.7-10.7-2.8-15.2-6.3c-3.6-2.8-6.4-6.2-8.4-10.2c-1.7-3.3-2.7-6.9-2.9-10.6c-0.2-3.4,0-6.7,0.9-10
	c0.2-0.6,0.1-0.8-0.6-0.8c-2.4,0-4.8,0-7.3,0c-1.1,0-1-0.2-1,1.1c0,13.3,0,26.7,0,40c0,2.8,1.8,4.7,4.6,4.6
	C27.9,88.5,39.1,88.6,50.3,88.6z M50.4,69.5c6.3,0,12.1-2.7,15.9-7.6c4.1-5.3,5.2-11.2,3.1-17.6c-1.7-5.2-5.2-8.9-10.1-11.3
	c-4.1-2-8.4-2.5-12.8-1.6c-5.4,1.1-9.6,4-12.7,8.6c-4.6,7-4.1,15.9,1.4,22.4C39.2,67.1,44.4,69.4,50.4,69.5z M78.7,31.6
	c1.7,0,3.4,0,5.1,0c3.1,0,4.9-1.8,4.9-4.9c0-3.2,0-6.4,0-9.6c0-3.3-1.8-5-5.1-5.1c-3.3,0-6.6,0-9.9,0c-3.2,0-5,1.8-5,5
	c0,3.2,0,6.5,0,9.7c0,3.1,1.8,4.9,4.9,4.9C75.2,31.6,76.9,31.6,78.7,31.6z"/>
</svg>
