<?xml version="1.0" encoding="utf-8"?>
<!-- Generator: Adobe Illustrator 19.1.0, SVG Export Plug-In . SVG Version: 6.00 Build 0)  -->
<svg version="1.1" id="Capa_1" xmlns="http://www.w3.org/2000/svg" xmlns:xlink="http://www.w3.org/1999/xlink" x="0px" y="0px"
	 viewBox="0 0 101 101" style="enable-background:new 0 0 101 101;" xml:space="preserve">
<style type="text/css">
	.st0{fill:#FFFFFF;}
	.st1{fill:#F6921E;}
	.st2{fill:#00A69C;}
	.st3{opacity:0.8;}
	.st4{clip-path:url(#SVGID_2_);}
	.st5{fill:#016458;}
	.st6{fill:#231F20;}
	.st7{fill:#9E1F63;}
	.st8{fill:#4F6E32;}
	.st9{fill:#618B3D;}
	.st10{fill:#008478;}
	.st11{fill:#7C1A52;}
	.st12{fill:#89BC40;}
	.st13{fill:#D91C5C;}
	.st14{clip-path:url(#SVGID_4_);}
	.st15{clip-path:url(#SVGID_6_);}
	.st16{clip-path:url(#SVGID_8_);}
	.st17{clip-path:url(#SVGID_10_);}
	.st18{opacity:0.8;fill:#FFFFFF;}
	.st19{opacity:0.6;fill:#FFFFFF;}
	.st20{clip-path:url(#SVGID_12_);}
	.st21{clip-path:url(#SVGID_14_);}
	.st22{clip-path:url(#SVGID_16_);}
	.st23{fill:none;}
	.st24{opacity:0.7;fill:#FFFFFF;}
	.st25{fill-rule:evenodd;clip-rule:evenodd;fill:#FFFFFF;}
	.st26{fill:#F15A29;}
	.st27{fill:#FBB040;}
	.st28{fill:#B3CF50;}
	.st29{fill:#17977F;}
	.st30{fill:#38D9C3;}
	.st31{fill:#1BAFA5;}
	.st32{fill:#287DAA;}
	.st33{clip-path:url(#SVGID_18_);}
	.st34{fill:#443C86;}
	.st35{fill:#92278F;}
	.st36{fill:#DA1C5C;}
	.st37{fill:#662D91;}
	.st38{fill:#ED1C24;}
</style>
<circle class="st0" cx="50.1" cy="50.2" r="50.2"/>
<g>
	<path class="st26" d="M73.3,49.1c0-4.2-5.9-7.6-13.3-7.6c-2.1,0-3.9,0.2-5.6,0.7v-14c0-4.2-5.9-7.6-13.3-7.6
		c-7.5,0-13.4,3.3-13.4,7.6V60c0,4.2,5.9,7.6,13.3,7.6c2,0,3.9-0.2,5.6-0.7v5.8c0,4.2,5.9,7.6,13.3,7.6s13.3-3.3,13.3-7.6L73.3,49.1
		L73.3,49.1z M31.2,33.5c0.1,0.1,0.2,0.2,0.3,0.2c0.3,0.2,0.7,0.4,1,0.5c0.4,0.2,0.7,0.3,1.1,0.4c0.2,0.1,0.3,0.1,0.4,0.2
		c0.3,0.1,0.5,0.2,0.8,0.3c0.2,0.1,0.3,0.1,0.5,0.2c0.3,0.1,0.5,0.2,0.8,0.2c0.2,0.1,0.4,0.1,0.5,0.1c0.3,0.1,0.6,0.1,0.9,0.2
		c0.2,0,0.4,0.1,0.5,0.1c0.3,0.1,0.7,0.1,1,0.1c0.2,0,0.3,0,0.4,0.1c0.5,0,1,0.1,1.5,0.1c0.5,0,1,0,1.5-0.1c0.2,0,0.3,0,0.4-0.1
		c0.3,0,0.7-0.1,1-0.1c0.2,0,0.4-0.1,0.5-0.1c0.3-0.1,0.6-0.1,0.9-0.2c0.2,0,0.4-0.1,0.5-0.1c0.3-0.1,0.5-0.2,0.8-0.2
		c0.2-0.1,0.3-0.1,0.5-0.2c0.3-0.1,0.5-0.2,0.8-0.3c0.2-0.1,0.3-0.1,0.4-0.2c0.4-0.2,0.7-0.3,1.1-0.4c0.4-0.2,0.7-0.4,1-0.5
		c0.1-0.1,0.2-0.2,0.3-0.2c0.2-0.2,0.4-0.3,0.7-0.4c0,0,0.1-0.1,0.2-0.1v2.9c0,2.3-4.3,4.8-10.5,4.8s-10.5-2.5-10.5-4.8V33
		c0,0,0.1,0.1,0.2,0.1C30.8,33.2,31,33.4,31.2,33.5L31.2,33.5z M53.8,55.8c0.2,0.1,0.3,0.1,0.5,0.2c0.3,0.1,0.5,0.2,0.8,0.2
		c0.2,0.1,0.4,0.1,0.5,0.1c0.3,0.1,0.6,0.1,0.9,0.2c0.2,0,0.4,0.1,0.5,0.1c0.3,0.1,0.7,0.1,1,0.1c0.2,0,0.3,0,0.4,0.1
		c0.5,0,1,0.1,1.5,0.1c0.5,0,1,0,1.5-0.1c0.2,0,0.3,0,0.4-0.1c0.3,0,0.7-0.1,1-0.1c0.2,0,0.4-0.1,0.5-0.1c0.3-0.1,0.6-0.1,0.9-0.2
		c0.2,0,0.4-0.1,0.5-0.1c0.3-0.1,0.5-0.2,0.8-0.2c0.2-0.1,0.3-0.1,0.5-0.2c0.3-0.1,0.5-0.2,0.8-0.3c0.2-0.1,0.3-0.1,0.4-0.2
		c0.4-0.2,0.7-0.3,1.1-0.4c0.4-0.2,0.7-0.4,1-0.5c0.1-0.1,0.2-0.2,0.3-0.2c0.2-0.2,0.4-0.3,0.7-0.4c0,0,0.1-0.1,0.2-0.1v2.9
		c0,2.3-4.3,4.8-10.5,4.8c-2.7,0-5-0.4-6.8-1.2c0,0-0.1,0-0.1-0.1c-2-0.8-3.3-2-3.6-3.1v-3.4c0.2,0.1,0.2,0.2,0.4,0.3H50
		c0.1,0,0.1,0.1,0.2,0.1c0.2,0.1,0.2,0.2,0.4,0.2c0.2,0.1,0.2,0.2,0.4,0.2H51c0.1,0,0.1,0.1,0.2,0.1c0.3,0.2,0.6,0.3,1,0.4
		c0.1,0,0.2,0.1,0.2,0.1c0.2,0.1,0.4,0.2,0.5,0.2c0.2,0.1,0.2,0.1,0.4,0.2C53.2,55.6,53.5,55.7,53.8,55.8L53.8,55.8z M46.7,56
		c-1.7,0.5-3.6,0.8-5.6,0.8c-6.2,0-10.5-2.5-10.5-4.8v-2.9C33,50.9,36.8,52,41.1,52c2,0,3.9-0.2,5.6-0.7V56z M70.6,64.7
		c0,2.3-4.3,4.8-10.5,4.8c-6,0-10.3-2.4-10.5-4.6v-3.1c0.6,0.4,1.3,0.8,2,1.2c0.2,0.1,0.2,0.2,0.4,0.2c0.1,0,0.2,0.1,0.2,0.1
		c2.2,0.9,4.9,1.5,7.9,1.5c4.4,0,8.2-1.1,10.5-2.9V64.7z M47.7,46.1c-0.2,0.2-0.2,0.4-0.4,0.5c-0.1,0.1-0.1,0.2-0.2,0.3
		c-0.1,0.2-0.2,0.3-0.2,0.4c-0.1,0.2-0.1,0.3-0.2,0.4c0,0.1-0.1,0.1-0.1,0.2c-1.7,0.6-3.7,0.9-5.8,0.9c-6.2,0-10.5-2.5-10.5-4.8V41
		c2.4,1.8,6.2,2.9,10.5,2.9c4.3,0,8.2-1.1,10.5-2.9v2.1c-1.7,0.7-3,1.8-3.9,2.9C47.8,46.1,47.7,46.1,47.7,46.1L47.7,46.1z
		 M70.6,49.1c0,2.3-4.3,4.8-10.5,4.8c-2.9,0-5.3-0.5-7.1-1.3c-0.2-0.1-0.4-0.2-0.7-0.3c0,0-0.1,0-0.1-0.1h-0.1l-0.3-0.2
		c-0.2-0.2-0.2-0.2-0.3-0.2c0,0-0.1,0-0.1-0.1h-0.1c-0.2-0.1-0.3-0.2-0.4-0.4h-0.1l-0.2-0.2c-0.1-0.1-0.2-0.2-0.2-0.2l-0.2-0.2
		c-0.1-0.1-0.2-0.2-0.2-0.2c-0.1-0.1-0.1-0.2-0.2-0.2c-0.1-0.1-0.1-0.2-0.2-0.2c-0.2-0.3-0.2-0.5-0.2-0.8v-0.2c0-0.2,0-0.3,0.1-0.5
		c0.4-1.2,1.8-2.3,3.9-3.1h0.1c1.8-0.7,3.9-1.1,6.5-1.1C66.2,44.3,70.6,46.8,70.6,49.1L70.6,49.1z M41,23.5c6.2,0,10.5,2.5,10.5,4.8
		c0,2.3-4.3,4.8-10.5,4.8c-6.2,0-10.5-2.5-10.5-4.8C30.5,26.1,34.8,23.5,41,23.5L41,23.5z M30.5,60v-2.9C32.9,58.9,36.7,60,41,60
		c2,0,3.9-0.2,5.6-0.7v4.8c-1.7,0.5-3.6,0.8-5.6,0.8C34.8,64.8,30.5,62.3,30.5,60L30.5,60z M70.6,72.7c0,2.3-4.3,4.8-10.5,4.8
		c-6.2,0-10.5-2.5-10.5-4.8v-2.9c2.4,1.8,6.2,2.9,10.5,2.9c4.3,0,8.2-1.1,10.5-2.9V72.7z M70.6,72.7"/>
</g>
</svg>
