<?xml version="1.0" encoding="utf-8"?>
<!-- Generator: Adobe Illustrator 19.1.0, SVG Export Plug-In . SVG Version: 6.00 Build 0)  -->
<svg version="1.1" id="Capa_1" xmlns="http://www.w3.org/2000/svg" xmlns:xlink="http://www.w3.org/1999/xlink" x="0px" y="0px"
	 viewBox="0 0 101 101" style="enable-background:new 0 0 101 101;" xml:space="preserve">
<style type="text/css">
	.st0{fill:#FFFFFF;}
	.st1{fill:#F6921E;}
	.st2{fill:#00A69C;}
	.st3{opacity:0.8;}
	.st4{clip-path:url(#SVGID_2_);}
	.st5{fill:#016458;}
	.st6{fill:#231F20;}
	.st7{fill:#9E1F63;}
	.st8{fill:#4F6E32;}
	.st9{fill:#618B3D;}
	.st10{fill:#008478;}
	.st11{fill:#7C1A52;}
	.st12{fill:#89BC40;}
	.st13{fill:#D91C5C;}
	.st14{clip-path:url(#SVGID_4_);}
	.st15{clip-path:url(#SVGID_6_);}
	.st16{clip-path:url(#SVGID_8_);}
	.st17{clip-path:url(#SVGID_10_);}
	.st18{opacity:0.8;fill:#FFFFFF;}
	.st19{opacity:0.6;fill:#FFFFFF;}
	.st20{clip-path:url(#SVGID_12_);}
	.st21{clip-path:url(#SVGID_14_);}
	.st22{clip-path:url(#SVGID_16_);}
	.st23{fill:none;}
	.st24{opacity:0.7;fill:#FFFFFF;}
	.st25{fill-rule:evenodd;clip-rule:evenodd;fill:#FFFFFF;}
	.st26{fill:#F15A29;}
	.st27{fill:#FBB040;}
	.st28{fill:#B3CF50;}
	.st29{fill:#17977F;}
	.st30{fill:#38D9C3;}
	.st31{fill:#1BAFA5;}
	.st32{fill:#287DAA;}
	.st33{clip-path:url(#SVGID_18_);}
	.st34{fill:#443C86;}
	.st35{fill:#92278F;}
	.st36{fill:#DA1C5C;}
	.st37{fill:#662D91;}
	.st38{fill:#ED1C24;}
</style>
<circle class="st0" cx="50.5" cy="50.5" r="50.2"/>
<g>
	<path class="st35" d="M82.2,44.3v-4.3l-0.3-1.2c-0.1-0.1-1.5-2.7-4.4-5.2c-2.2-2-5.3-4-9.3-4.8v-7.9C50.8,22,49,35.6,49,35.6v0.1
		c0,0,0,0-0.1,0c-0.6-0.7-1.4-1.5-2.3-2.3c-2.9-2.6-7.3-5.2-13.2-5.2c-5.9,0-10.3,2.7-13.1,5.3c-2.8,2.6-4.2,5.1-4.3,5.3l-0.3,1.2
		v4.3h-2.2v36h71.5v-36H82.2z M26.5,72.9c1.9-1.1,4.2-2,7-2c2.8,0,5.2,0.8,7.1,2H26.5z M46.6,71.3c-2.9-2.5-7.3-5.1-13.1-5.1h0
		c-5.7,0-10,2.5-12.8,5V40.6c0.5-0.8,1.6-2.3,3.2-3.7c2.3-2,5.4-3.8,9.6-3.8c4.3,0,7.6,1.9,10,4c1.2,1,2,2.1,2.6,2.8
		c0.2,0.3,0.4,0.5,0.5,0.7V71.3z M64.3,25v36.2c0,0-6.5-1.2-12.8,4.5v-28C51.5,37.7,53.8,27.1,64.3,25L64.3,25z M57.2,72.9
		c1.9-1.1,4.3-2,7.1-2c2.8,0,5.2,0.8,7.1,2H57.2z M77.3,71.3c-2.9-2.5-7.3-5.1-13.1-5.1c-5.7,0-10,2.5-12.8,5V71
		c5.4-7.4,16.8-5.4,16.8-5.4V33.7c2.5,0.7,4.5,2,6,3.4c1.1,1,2,2.1,2.6,2.8c0.2,0.3,0.4,0.5,0.5,0.7V71.3z M77.3,71.3"/>
</g>
</svg>
